<?xml version="1.0"?>
<svg xmlns="http://www.w3.org/2000/svg" height="512px" viewBox="-56 0 496 496.002" width="512px" class=""><g><path d="m376 64.003906c-61.101562 0-119.519531-19-168.933594-54.9375l-10.363281-7.535156c-2.796875-2.042969-6.605469-2.042969-9.40625 0l-10.359375 7.535156c-49.417969 35.9375-107.832031 54.9375-168.9375 54.9375-4.421875 0-8 3.582032-8 8v151.535156c0 110.261719 64.273438 212.246094 163.746094 259.816407l24.808594 11.863281c1.085937.519531 2.269531.785156 3.445312.785156s2.359375-.265625 3.457031-.785156l24.808594-11.863281c99.464844-47.570313 163.734375-149.554688 163.734375-259.816407v-151.535156c0-4.417968-3.574219-8-8-8zm-8 159.535156c0 104.136719-60.703125 200.453126-154.648438 245.375l-21.351562 10.222657-21.351562-10.214844c-93.945313-44.929687-154.648438-141.246094-154.648438-245.382813v-143.640624c61.59375-1.59375 120.34375-21.519532 170.34375-57.894532l5.65625-4.113281 5.65625 4.113281c50 36.367188 108.753906 56.300782 170.34375 57.894532zm0 0" data-original="#000000" class="active-path" data-old_color="#ced8e6" fill="#ced8e6"/><path d="m184 80.003906h16v16h-16zm0 0" data-original="#000000" class="active-path" data-old_color="#ced8e6" fill="#ced8e6"/><path d="m216 80.003906h16v16h-16zm0 0" data-original="#000000" class="active-path" data-old_color="#ced8e6" fill="#ced8e6"/><path d="m248 80.003906h16v16h-16zm0 0" data-original="#000000" class="active-path" data-old_color="#ced8e6" fill="#ced8e6"/><path d="m152 80.003906h16v16h-16zm0 0" data-original="#000000" class="active-path" data-old_color="#ced8e6" fill="#ced8e6"/><path d="m120 80.003906h16v16h-16zm0 0" data-original="#000000" class="active-path" data-old_color="#ced8e6" fill="#ced8e6"/><path d="m48 256.003906c0 79.398438 64.601562 144 144 144 79.402344 0 144-64.601562 144-144 0-79.402344-64.597656-144-144-144-79.398438 0-144 64.597656-144 144zm272 0c0 70.574219-57.421875 128-128 128-70.574219 0-128-57.425781-128-128 0-70.578125 57.425781-128 128-128 70.578125 0 128 57.421875 128 128zm0 0" data-original="#000000" class="active-path" data-old_color="#ced8e6" fill="#ced8e6"/><path d="m296 256.003906h16c0-61.761718-52.039062-112-116-112v16c55.144531 0 100 43.0625 100 96zm0 0" data-original="#000000" class="active-path" data-old_color="#ced8e6" fill="#ced8e6"/><path d="m96 256.003906h-16c0 61.757813 52.039062 112 116 112v-16c-55.144531 0-100-43.066406-100-96zm0 0" data-original="#000000" class="active-path" data-old_color="#ced8e6" fill="#ced8e6"/><path d="m182.3125 297.480469-32.167969-38.597657-12.296875 10.238282 40 48c1.539063 1.839844 3.792969 2.882812 6.152344 2.882812.304688 0 .617188-.019531.921875-.058594 2.679687-.3125 5.023437-1.953124 6.230469-4.367187l56-112-14.3125-7.160156zm0 0" data-original="#000000" class="active-path" data-old_color="#ced8e6" fill="#ced8e6"/></g> </svg>
