<?xml version="1.0"?>
<svg xmlns="http://www.w3.org/2000/svg" xmlns:xlink="http://www.w3.org/1999/xlink" version="1.1" id="Capa_1" x="0px" y="0px" viewBox="0 0 512.002 512.002" style="enable-background:new 0 0 512.002 512.002;" xml:space="preserve" width="512px" height="512px" class=""><g><g>
	<g>
		<g>
			<path d="M472.25,201.337c-0.086-0.008-0.173-0.013-0.26-0.02c-0.516-0.042-1.033-0.073-1.553-0.094     c-0.081-0.003-0.161-0.012-0.242-0.015l-155.744-37.441v-25.28h24.073c8.233,0,15.509-4.636,18.989-12.098     c3.48-7.462,2.354-16.016-2.939-22.323l-80.096-95.45C269.885,3.141,263.149,0,256.001,0c-7.148,0-13.884,3.141-18.479,8.617     l-80.096,95.451c-5.292,6.307-6.419,14.86-2.939,22.322c3.479,7.462,10.756,12.098,18.989,12.098h24.073v25.268L41.623,201.209     c-0.121,0.004-0.24,0.017-0.36,0.022c-0.191,0.008-0.381,0.023-0.571,0.035c-0.486,0.029-0.97,0.063-1.452,0.111     c-0.039,0.004-0.078,0.009-0.118,0.013c-9.5,0.97-18.286,5.562-24.527,12.948c-0.322,0.381-0.601,0.789-0.86,1.208     c-4.877,6.274-7.791,14.145-7.791,22.688v236.719c0,9.135,3.335,17.498,8.838,23.964c0.025,0.032,0.048,0.067,0.075,0.099     c0.023,0.027,0.048,0.052,0.071,0.079c0.408,0.473,0.825,0.939,1.256,1.391c0.022,0.023,0.045,0.047,0.067,0.07     c0.434,0.454,0.88,0.896,1.334,1.325c0.034,0.032,0.068,0.065,0.102,0.098c0.47,0.441,0.95,0.869,1.441,1.284     c0.008,0.007,0.017,0.015,0.025,0.022c0.63,0.531,1.278,1.041,1.943,1.53c2.01,1.478,4.158,2.744,6.411,3.784     c0.009,0.004,0.018,0.008,0.027,0.012c0.588,0.271,1.183,0.526,1.784,0.765c0.016,0.006,0.031,0.012,0.047,0.019     c0.598,0.237,1.203,0.459,1.814,0.665c0.015,0.005,0.029,0.01,0.044,0.015c0.613,0.206,1.232,0.396,1.857,0.57     c0.012,0.003,0.025,0.007,0.037,0.011c0.624,0.173,1.254,0.33,1.888,0.47c0.015,0.003,0.029,0.007,0.044,0.01     c0.631,0.139,1.267,0.261,1.907,0.367c0.018,0.003,0.036,0.007,0.054,0.01c0.633,0.104,1.27,0.19,1.911,0.261     c0.025,0.003,0.05,0.007,0.076,0.01c0.645,0.07,1.293,0.123,1.943,0.159c0.019,0.001,0.038,0.003,0.057,0.004     c0.66,0.035,1.323,0.055,1.992,0.055h0.027h425.997h0.027c0.126,0,0.251-0.009,0.377-0.01c0.52-0.005,1.039-0.015,1.555-0.042     c0.294-0.015,0.585-0.045,0.877-0.067c0.352-0.027,0.705-0.049,1.055-0.086c0.315-0.033,0.628-0.079,0.941-0.12     c0.323-0.042,0.647-0.081,0.968-0.132c0.327-0.052,0.65-0.114,0.975-0.175c0.3-0.056,0.601-0.109,0.899-0.172     c0.343-0.072,0.682-0.155,1.022-0.236c0.268-0.065,0.537-0.129,0.803-0.199c0.369-0.098,0.736-0.204,1.101-0.313     c0.221-0.066,0.442-0.132,0.661-0.202c0.407-0.13,0.811-0.268,1.213-0.411c0.158-0.056,0.315-0.114,0.472-0.172     c0.457-0.17,0.911-0.349,1.36-0.537c0.075-0.031,0.15-0.064,0.224-0.096c5.164-2.2,9.826-5.562,13.581-9.926     c0.161-0.187,0.306-0.385,0.452-0.583c5.296-6.409,8.482-14.622,8.482-23.566V238.234     C506.058,218.898,491.165,202.984,472.25,201.337z M173.476,118.488L173.476,118.488c-0.227-0.001-0.606-0.001-0.863-0.551     c-0.256-0.549-0.012-0.84,0.133-1.014l80.096-95.451c1.076-1.281,2.441-1.472,3.159-1.472c0.718,0,2.083,0.191,3.159,1.473     l80.096,95.45c0.146,0.173,0.39,0.464,0.133,1.014c-0.257,0.55-0.636,0.55-0.863,0.55h-34.073c-5.523,0-10,4.477-10,10v30.472     v20.57v21.658v20v39.087c0,5.363-4.363,9.726-9.726,9.726h-57.452c-5.363,0-9.726-4.363-9.726-9.726v-39.087v-20v-21.666v-20.569     v-30.464c0-5.523-4.477-10-10-10H173.476z M42.897,221.187c0.787,0,1.571-0.093,2.335-0.276l82.114-19.724l70.202-16.862v16.862     v20v39.087c0,16.391,13.335,29.726,29.726,29.726h57.452c16.391,0,29.726-13.335,29.726-29.726v-39.087v-20v-16.85l70.09,16.85     l82.041,19.723c0.766,0.184,1.55,0.277,2.337,0.277c1.302,0,2.583,0.147,3.825,0.432L315.45,344.589l-16.248,12.702     L275.654,375.7c-11.108,8.684-26.641,8.706-37.772,0.052l-24.988-19.423l-16.283-12.657L39.5,221.549l-0.021-0.016     C40.594,221.305,41.738,221.187,42.897,221.187z M26.077,476.994c-0.081-0.67-0.134-1.349-0.134-2.041V238.234     c0-0.613,0.036-1.218,0.1-1.815l154.321,119.956L26.077,476.994z M486.06,474.953c0,0.725-0.06,1.434-0.149,2.136l-40.222-31.265     c-4.359-3.388-10.643-2.602-14.033,1.758c-3.389,4.36-2.602,10.643,1.758,14.033l38.707,30.087     c-0.352,0.065-0.707,0.12-1.066,0.163c-0.118,0.014-0.235,0.037-0.353,0.049c-0.556,0.055-1.119,0.086-1.689,0.086H43.016     c-0.196,0-0.388-0.021-0.583-0.028c-0.364-0.012-0.729-0.021-1.087-0.055c-0.448-0.044-0.891-0.115-1.331-0.194     c-0.084-0.015-0.171-0.023-0.255-0.039l156.888-122.652l28.961,22.512c9.17,7.129,20.148,10.691,31.126,10.691     c11.024,0,22.049-3.594,31.238-10.777l27.513-21.509l52.373,40.71c4.361,3.389,10.644,2.603,14.033-1.758     c3.389-4.36,2.602-10.643-1.758-14.033l-48.4-37.622L485.98,236.66c0.048,0.519,0.08,1.043,0.08,1.574V474.953z" data-original="#000000" class="active-path" data-old_color="#ced8e6" fill="#ced8e6"/>
			<path d="M416.291,424.63c-0.25-0.6-0.56-1.18-0.92-1.72c-0.37-0.55-0.79-1.06-1.25-1.52c-0.46-0.46-0.97-0.88-1.52-1.25     c-0.54-0.36-1.12-0.67-1.72-0.92c-0.61-0.25-1.24-0.44-1.87-0.57c-1.29-0.26-2.62-0.26-3.91,0c-0.64,0.13-1.27,0.32-1.87,0.57     c-0.61,0.25-1.19,0.56-1.73,0.92c-0.55,0.37-1.06,0.79-1.52,1.25c-0.46,0.46-0.88,0.97-1.24,1.52c-0.36,0.54-0.67,1.12-0.92,1.72     c-0.25,0.61-0.44,1.24-0.57,1.87c-0.13,0.65-0.2,1.31-0.2,1.96c0,0.65,0.07,1.31,0.2,1.95s0.32,1.27,0.57,1.87     c0.25,0.61,0.56,1.19,0.92,1.73c0.36,0.55,0.78,1.06,1.24,1.52c0.46,0.46,0.97,0.88,1.52,1.24c0.54,0.36,1.12,0.67,1.73,0.92     c0.6,0.25,1.23,0.44,1.87,0.57s1.3,0.2,1.95,0.2s1.31-0.07,1.96-0.2c0.63-0.13,1.26-0.32,1.87-0.57c0.6-0.25,1.18-0.56,1.72-0.92     c0.55-0.36,1.06-0.78,1.52-1.24c0.46-0.46,0.88-0.97,1.25-1.52c0.36-0.54,0.67-1.12,0.92-1.73c0.25-0.6,0.44-1.23,0.57-1.87     s0.19-1.3,0.19-1.95s-0.06-1.31-0.19-1.96C416.731,425.87,416.541,425.24,416.291,424.63z" data-original="#000000" class="active-path" data-old_color="#ced8e6" fill="#ced8e6"/>
		</g>
	</g>
</g></g> </svg>
