<svg version="1.1" id="svg_01" xmlns="http://www.w3.org/2000/svg" xmlns:xlink="http://www.w3.org/1999/xlink" x="0px" y="0px"
	 viewBox="0 0 1920 912" enable-background="new 0 0 1920 912" xml:space="preserve">

     <image id="1" onclick="test()" overflow="visible" width="80" height="80" xlink:href="meter.png"  transform="translate(100.0,100.0)"> </image>

<g>
	<g>
		<g>
			<ellipse fill="#FFFFFF" cx="1137.5" cy="457.4" rx="44" ry="37.8"/>
			<path d="M1137.5,420c24,0,43.5,16.7,43.5,37.3s-19.5,37.3-43.5,37.3s-43.5-16.7-43.5-37.3S1113.5,420,1137.5,420 M1137.5,419
				c-24.6,0-44.5,17.2-44.5,38.3s19.9,38.3,44.5,38.3s44.5-17.2,44.5-38.3S1162.1,419,1137.5,419L1137.5,419z"/>
		</g>
		<ellipse fill="none" cx="1146" cy="460.1" rx="31" ry="31.4"/>
		
			<text transform="matrix(0.7175 0 0 1 1120.8711 472.938)" stroke="#000000" stroke-miterlimit="10" font-family="'AdobeSongStd-Light-GBpc-EUC-H'" font-size="50.1724px">Ａ</text>
	</g>
	<text transform="matrix(0.7175 0 0 1 1077.3623 554.2559)" font-family="'AdobeSongStd-Light-GBpc-EUC-H'" font-size="50.1724px">FFF2</text>
</g>

</svg>