<svg xmlns="http://www.w3.org/2000/svg" viewBox="0 0 10.84 15.05"><defs><style>.cls-1{fill:none;stroke:#616e80;stroke-miterlimit:10;stroke-width:1.03px;}</style></defs><title>share inactive</title><g id="Layer_2" data-name="Layer 2"><g id="Layer_1-2" data-name="Layer 1"><path class="cls-1" d="M6.58,6.43a.28.28,0,0,0-.31-.32,3.57,3.57,0,0,0-3.49,4.1c.11,1.67,1.14,2.88,3.46,4.15.09.05.07.19,0,.18A6.3,6.3,0,0,1,6.34,2a.27.27,0,0,0,.25-.33L6.42.8A.23.23,0,0,1,6.8.58l3.41,3.21a.38.38,0,0,1,0,.57L6.73,7.5c-.12.1-.35-.06-.3-.2Z"/></g></g></svg>