<svg xmlns="http://www.w3.org/2000/svg" viewBox="0 0 72.03 72.01"><defs><style>.cls-1{fill:#e6e6e6;stroke:#787e88;stroke-linejoin:round;stroke-width:3.21px;}.cls-2{fill:#fa5a5a;stroke:#c14b50;stroke-width:3.79px;}.cls-2,.cls-3{stroke-miterlimit:10;}.cls-3{fill:none;stroke:#fff;stroke-linecap:round;stroke-width:4px;}.cls-4{font-size:43px;fill:#787e88;font-family:Montserrat-SemiBold, Montserrat;font-weight:700;}</style></defs><title>calender</title><g id="Layer_2" data-name="Layer 2"><g id="Layer_1-2" data-name="Layer 1"><path class="cls-1" d="M1.9,19H70.13a0,0,0,0,1,0,0v41.7a9.48,9.48,0,0,1-9.48,9.48H11.37A9.48,9.48,0,0,1,1.9,60.66V19A0,0,0,0,1,1.9,19Z"/><path class="cls-2" d="M11.37,1.9H60.66a9.48,9.48,0,0,1,9.48,9.48V19a0,0,0,0,1,0,0H1.9a0,0,0,0,1,0,0V11.37A9.48,9.48,0,0,1,11.37,1.9Z"/><line class="cls-3" x1="18.96" y1="15.64" x2="18.96" y2="23.58"/><line class="cls-3" x1="36.01" y1="15.64" x2="36.01" y2="23.58"/><line class="cls-3" x1="53.07" y1="15.64" x2="53.07" y2="23.58"/><text class="cls-4" transform="translate(17.41 59.8)">31</text></g></g></svg>