<svg xmlns="http://www.w3.org/2000/svg" viewBox="0 0 72.12 72.12"><defs><style>.cls-1{fill:#82bff1;}.cls-1,.cls-3{stroke:#5a759c;}.cls-1,.cls-4,.cls-6,.cls-7{stroke-linejoin:round;}.cls-1,.cls-6{stroke-width:3.8px;}.cls-2,.cls-4{fill:#a9ca76;}.cls-3{fill:#fff;stroke-miterlimit:1;stroke-width:4.05px;}.cls-4,.cls-6,.cls-7{stroke:#5c8060;stroke-linecap:round;}.cls-4,.cls-7{stroke-width:3.8px;}.cls-5{fill:#c9e0a4;}.cls-6,.cls-7{fill:none;}</style></defs><title>image</title><g id="Layer_2" data-name="Layer 2"><g id="Layer_1-2" data-name="Layer 1"><path class="cls-1" d="M1.9,27.68l29.63,8.91L70.22,15.8V12A10.11,10.11,0,0,0,60.11,1.9H12A10.11,10.11,0,0,0,1.9,12Z"/><path class="cls-2" d="M1.9,27.68V60.11A10.11,10.11,0,0,0,12,70.22h48.1A10.11,10.11,0,0,0,70.22,60.11V48.24Z"/><circle class="cls-3" cx="21.13" cy="17.31" r="7.57"/><polygon class="cls-4" points="31.52 36.59 70.22 48.24 70.22 15.8 31.52 36.59"/><path class="cls-5" d="M1.9,27.68v14q6.47.16,13.17.59a355.45,355.45,0,0,1,55.15,7.92Z"/><path class="cls-6" d="M70.22,48.24,1.9,27.68V60.11A10.11,10.11,0,0,0,12,70.22h48.1A10.11,10.11,0,0,0,70.22,60.11Z"/><path class="cls-5" d="M31.26,37.33a210.75,210.75,0,0,1,32.62-8.22c2.14-.36,4.25-.69,6.34-1V15.8Z"/><polygon class="cls-7" points="31.52 36.59 70.22 48.24 70.22 15.8 31.52 36.59"/></g></g></svg>