<?xml version="1.0"?>
<svg xmlns="http://www.w3.org/2000/svg" viewBox="-10 0 512 512" width="512px" height="512px"><path d="m396.003906 185.996094c5.519532 0 10-4.480469 10-10 0-5.519532-4.480468-10-10-10-5.519531 0-10 4.480468-10 10 0 5.519531 4.480469 10 10 10zm0 0" fill="#006DF0"/><path d="m388.195312 442.246094c5.277344 6.597656 15.925782 4.074218 17.613282-4.269532l85.980468-425.914062c.632813-3.015625-.144531-6.164062-2.152343-8.535156-.003907 0-.003907 0-.007813-.003906v-.003907c-2.660156-3.128906-6.21875-3.339843-6.320312-3.441406-1.503906-.15625-2.871094-.109375-4.480469.433594l-465.816406 145.941406c-9.046875 2.835937-9.414063 15.570313-.523438 18.90625l152.476563 57.179687-18.863282 132.042969c-.007812.050781-.003906.097657-.007812.144531-1.003906 7.878907 7.191406 13.808594 14.382812 10.214844l118.480469-59.246094zm2.242188-29.210938c-6.421875-8.03125-134.75-168.4375-140.792969-175.992187l216.46875-198.871094zm-343.695312-256.191406 372.652343-116.753906-244.703125 164.734375zm138.53125 64.96875 192.3125-129.46875-148.347657 136.289062c-.039062.035157-.070312.074219-.109375.109376-.128906.121093-.25.25-.375.378906-.113281.121094-.226562.242187-.332031.367187-.09375.109375-.183594.21875-.269531.332031-.128906.160157-.25.320313-.363282.488282-.035156.050781-.074218.09375-.105468.144531l-55.546875 83.316406zm-.0625 108.398438 51.527343-77.289063 29.441407 36.800781zm0 0" fill="#006DF0"/><path d="m367.640625 355.4375c5.460937.816406 10.554687-2.941406 11.375-8.40625l19.527344-130.230469c.820312-5.460937-2.941407-10.554687-8.40625-11.375-5.464844-.8125-10.550781 2.945313-11.371094 8.40625l-19.53125 130.230469c-.820313 5.464844 2.945313 10.554688 8.40625 11.375zm0 0" fill="#006DF0"/><path d="m2.929688 509.070312c3.90625 3.90625 10.234374 3.902344 14.140624 0l66.003907-66c3.902343-3.90625 3.902343-10.238281 0-14.144531-3.90625-3.902343-10.238281-3.902343-14.144531 0l-66 66c-3.90625 3.90625-3.90625 10.238281 0 14.144531zm0 0" fill="#006DF0"/><path d="m168.929688 428.925781-66 66.003907c-3.90625 3.902343-3.90625 10.234374 0 14.140624s10.238281 3.90625 14.144531 0l66-66c3.90625-3.90625 3.90625-10.238281 0-14.144531-3.90625-3.902343-10.238281-3.902343-14.144531 0zm0 0" fill="#006DF0"/><path d="m2.929688 409.070312c3.90625 3.902344 10.234374 3.902344 14.140624 0l66.003907-66c3.902343-3.90625 3.902343-10.238281 0-14.144531-3.90625-3.90625-10.238281-3.90625-14.144531 0l-66 66c-3.90625 3.90625-3.90625 10.238281 0 14.144531zm0 0" fill="#006DF0"/></svg>
