<?xml version="1.0" encoding="UTF-8" standalone="no"?>
<!DOCTYPE svg PUBLIC "-//W3C//DTD SVG 1.1//EN" "http://www.w3.org/Graphics/SVG/1.1/DTD/svg11.dtd">
<!-- Generated by Microsoft Visio, SVG Export data-flow-cn.svg MyEMS Data Flow CN -->
<svg xmlns="http://www.w3.org/2000/svg" xmlns:xlink="http://www.w3.org/1999/xlink" xmlns:ev="http://www.w3.org/2001/xml-events"
		xmlns:v="http://schemas.microsoft.com/visio/2003/SVGExtensions/" width="11.6929in" height="8.26772in"
		viewBox="0 0 841.89 595.276" xml:space="preserve" color-interpolation-filters="sRGB" class="st49">
	<v:documentProperties v:langID="2052" v:viewMarkup="false">
		<v:userDefs>
			<v:ud v:nameU="msvNoAutoConnect" v:val="VT0(1):26"/>
		</v:userDefs>
	</v:documentProperties>

	<style type="text/css">
	<![CDATA[
		.st1 {fill:#0078d4;stroke:none;stroke-linecap:butt;stroke-width:12.75}
		.st2 {fill:#50e6ff;stroke:none;stroke-linecap:butt;stroke-width:12.75}
		.st3 {fill:#005ba1;stroke:none;stroke-linecap:butt;stroke-width:0.75}
		.st4 {fill:#ffffff;stroke:none;stroke-linecap:butt;stroke-width:0.75}
		.st5 {fill:#1ac3f2;stroke:none;stroke-linecap:butt;stroke-width:0.75}
		.st6 {fill:url(#grad0-85);stroke:none;stroke-linecap:butt;stroke-width:0.75}
		.st7 {fill:#0078d4;stroke:none;stroke-linecap:butt;stroke-width:0.75}
		.st8 {fill:url(#grad0-94);stroke:none;stroke-linecap:butt;stroke-width:0.75}
		.st9 {fill:#50e6ff;stroke:none;stroke-linecap:butt;stroke-width:0.75}
		.st10 {fill:url(#grad0-100);stroke:none;stroke-linecap:butt;stroke-width:0.75}
		.st11 {fill:url(#grad0-105);stroke:none;stroke-linecap:butt;stroke-width:0.75}
		.st12 {fill:#e8e8e8;stroke:none;stroke-linecap:butt;stroke-width:0.75}
		.st13 {fill:#198ab3;stroke:none;stroke-linecap:butt;stroke-width:0.75}
		.st14 {fill:url(#grad3-115);stroke:none;stroke-linecap:butt;stroke-width:0.75}
		.st15 {fill:none;stroke:#000000;stroke-dasharray:5.25,3.75;stroke-width:0.75}
		.st16 {fill:url(#grad0-127);stroke:none;stroke-linecap:butt;stroke-width:0.75}
		.st17 {fill:#eaeaea;stroke:none;stroke-linecap:butt;stroke-width:0.75}
		.st18 {fill:#cc271f;stroke:none;stroke-linecap:butt;stroke-width:10.2}
		.st19 {fill:#e63118;stroke:none;stroke-linecap:butt;stroke-width:10.2}
		.st20 {fill:#f65b23;stroke:none;stroke-linecap:butt;stroke-width:10.2}
		.st21 {fill:none;stroke:none;stroke-width:0.25}
		.st22 {fill:#000000;font-family:Microsoft YaHei UI;font-size:0.833336em}
		.st23 {fill:url(#grad0-188);stroke:none;stroke-linecap:butt;stroke-width:0.75}
		.st24 {fill:#32bedd;stroke:none;stroke-linecap:butt;stroke-width:0.75}
		.st25 {fill:url(#grad0-220);stroke:none;stroke-linecap:butt;stroke-width:0.75}
		.st26 {fill:none;stroke:none;stroke-linecap:butt;stroke-width:0.75}
		.st27 {fill:#341a6e;stroke:none;stroke-linecap:butt;stroke-width:0.75}
		.st28 {fill:url(#grad0-314);stroke:none;stroke-linecap:butt;stroke-width:0.75}
		.st29 {fill:#000000;fill-opacity:0.2;stroke:none;stroke-linecap:butt;stroke-width:0.75}
		.st30 {fill:#000000;fill-opacity:0.18;stroke:none;stroke-linecap:butt;stroke-width:0.75}
		.st31 {fill:url(#grad0-322);stroke:none;stroke-linecap:butt;stroke-width:0.75}
		.st32 {fill:url(#grad0-326);stroke:none;stroke-linecap:butt;stroke-width:0.75}
		.st33 {fill:url(#grad7-331);stroke:none;stroke-linecap:butt;stroke-width:0.75}
		.st34 {fill:#ffffff;fill-opacity:0.6;stroke:none;stroke-linecap:butt;stroke-width:0.75}
		.st35 {fill:#f2f2f2;fill-opacity:0.55;stroke:none;stroke-linecap:butt;stroke-width:0.75}
		.st36 {fill:url(#grad0-341);stroke:none;stroke-linecap:butt;stroke-width:0.75}
		.st37 {fill:url(#grad0-349);stroke:none;stroke-linecap:butt;stroke-width:0.75}
		.st38 {fill:#f2f2f2;fill-opacity:0.7;stroke:none;stroke-linecap:butt;stroke-width:0.75}
		.st39 {fill:#000000;font-family:Microsoft YaHei UI;font-size:1.00001em;font-weight:bold}
		.st40 {fill:#000000;font-family:Microsoft YaHei UI;font-size:0.916672em;font-weight:bold}
		.st41 {font-size:1em}
		.st42 {marker-start:url(#mrkr4-399);stroke:#000000;stroke-linecap:round;stroke-linejoin:round;stroke-width:1.5}
		.st43 {fill:#000000;fill-opacity:1;stroke:#000000;stroke-opacity:1;stroke-width:0.37313432835821}
		.st44 {stroke:#000000;stroke-linecap:round;stroke-linejoin:round;stroke-width:1.5}
		.st45 {fill:#107c10;stroke:none;stroke-width:0.75}
		.st46 {fill:#ffffff;font-family:Microsoft YaHei UI;font-size:0.916672em;font-weight:bold}
		.st47 {marker-end:url(#mrkr4-422);stroke:#000000;stroke-linecap:round;stroke-linejoin:round;stroke-width:1.5}
		.st48 {fill:#000000;font-family:Microsoft YaHei UI;font-size:0.75em;font-style:italic}
		.st49 {fill:none;fill-rule:evenodd;font-size:12px;overflow:visible;stroke-linecap:square;stroke-miterlimit:3}
	]]>
	</style>

	<defs id="Patterns_And_Gradients">
		<linearGradient id="grad0-85" x1="0" y1="0" x2="1" y2="0" gradientTransform="rotate(91.040618821164 0.5 0.5)">
			<stop offset="0" stop-color="#32d4f5" stop-opacity="1"/>
			<stop offset="0.23" stop-color="#31d0f1" stop-opacity="1"/>
			<stop offset="0.46" stop-color="#2cc3e6" stop-opacity="1"/>
			<stop offset="0.7" stop-color="#25afd4" stop-opacity="1"/>
			<stop offset="0.94" stop-color="#1c92ba" stop-opacity="1"/>
			<stop offset="1" stop-color="#198ab3" stop-opacity="1"/>
		</linearGradient>
		<linearGradient id="grad0-94" x1="0" y1="0" x2="1" y2="0" gradientTransform="rotate(-90 0.5 0.5)">
			<stop offset="0.2" stop-color="#005ba1" stop-opacity="1"/>
			<stop offset="1" stop-color="#0078d4" stop-opacity="1"/>
		</linearGradient>
		<linearGradient id="grad0-100" x1="0" y1="0" x2="1" y2="0" gradientTransform="rotate(-90 0.5 0.5)">
			<stop offset="0" stop-color="#198ab3" stop-opacity="1"/>
			<stop offset="0.17" stop-color="#32bedd" stop-opacity="1"/>
			<stop offset="0.5" stop-color="#50e6ff" stop-opacity="1"/>
			<stop offset="0.5" stop-color="#4fe4fd" stop-opacity="1"/>
			<stop offset="0.5" stop-color="#4bddf8" stop-opacity="1"/>
			<stop offset="0.5" stop-color="#44d2ee" stop-opacity="1"/>
			<stop offset="0.5" stop-color="#3ac1e0" stop-opacity="1"/>
			<stop offset="0.5" stop-color="#2dabce" stop-opacity="1"/>
			<stop offset="0.5" stop-color="#1d90b8" stop-opacity="1"/>
			<stop offset="0.5" stop-color="#198ab3" stop-opacity="1"/>
			<stop offset="0.66" stop-color="#32bedd" stop-opacity="1"/>
			<stop offset="0.975" stop-color="#50e6ff" stop-opacity="1"/>
		</linearGradient>
		<linearGradient id="grad0-105" x1="0" y1="0" x2="1" y2="0" gradientTransform="rotate(0 0.5 0.5)">
			<stop offset="0" stop-color="#005ba1" stop-opacity="1"/>
			<stop offset="0.07" stop-color="#0060a9" stop-opacity="1"/>
			<stop offset="0.36" stop-color="#0071c8" stop-opacity="1"/>
			<stop offset="0.52" stop-color="#0078d4" stop-opacity="1"/>
			<stop offset="0.64" stop-color="#0074cd" stop-opacity="1"/>
			<stop offset="0.82" stop-color="#006abb" stop-opacity="1"/>
			<stop offset="1" stop-color="#005ba1" stop-opacity="1"/>
		</linearGradient>
		<radialGradient id="grad3-115" cx="0.5" cy="0.5" r="0.73">
			<stop offset="0" stop-color="#f2f2f2" stop-opacity="1"/>
			<stop offset="0.58" stop-color="#eeeeee" stop-opacity="1"/>
			<stop offset="1" stop-color="#e6e6e6" stop-opacity="1"/>
		</radialGradient>
		<linearGradient id="grad0-127" x1="0" y1="0" x2="1" y2="0" gradientTransform="rotate(0 0.5 0.5)">
			<stop offset="0" stop-color="#005ba1" stop-opacity="1"/>
			<stop offset="0.07" stop-color="#0060a9" stop-opacity="1"/>
			<stop offset="0.36" stop-color="#0071c8" stop-opacity="1"/>
			<stop offset="0.52" stop-color="#0078d4" stop-opacity="1"/>
			<stop offset="0.64" stop-color="#0074cd" stop-opacity="1"/>
			<stop offset="0.81" stop-color="#006abb" stop-opacity="1"/>
			<stop offset="0.99" stop-color="#005ba1" stop-opacity="1"/>
		</linearGradient>
		<linearGradient id="grad0-188" x1="0" y1="0" x2="1" y2="0" gradientTransform="rotate(0 0.5 0.5)">
			<stop offset="0" stop-color="#50c7e8" stop-opacity="1"/>
			<stop offset="0.25" stop-color="#4cc3e4" stop-opacity="1"/>
			<stop offset="0.51" stop-color="#41b6da" stop-opacity="1"/>
			<stop offset="0.77" stop-color="#2fa2c8" stop-opacity="1"/>
			<stop offset="1" stop-color="#1989b2" stop-opacity="1"/>
		</linearGradient>
		<linearGradient id="grad0-220" x1="0" y1="0" x2="1" y2="0" gradientTransform="rotate(0 0.5 0.5)">
			<stop offset="0" stop-color="#b77af4" stop-opacity="1"/>
			<stop offset="1" stop-color="#773adc" stop-opacity="1"/>
		</linearGradient>
		<linearGradient id="grad0-314" x1="0" y1="0" x2="1" y2="0" gradientTransform="rotate(35.2432185142 0.5 0.5)">
			<stop offset="0" stop-color="#e6ad10" stop-opacity="1"/>
			<stop offset="1" stop-color="#c87e0e" stop-opacity="1"/>
		</linearGradient>
		<linearGradient id="grad0-322" x1="0" y1="0" x2="1" y2="0" gradientTransform="rotate(40.759716433349 0.5 0.5)">
			<stop offset="0" stop-color="#f6d751" stop-opacity="1"/>
			<stop offset="1" stop-color="#e6ad10" stop-opacity="1"/>
		</linearGradient>
		<linearGradient id="grad0-326" x1="0" y1="0" x2="1" y2="0" gradientTransform="rotate(57.669552439706 0.5 0.5)">
			<stop offset="0" stop-color="#f9e589" stop-opacity="1"/>
			<stop offset="1" stop-color="#f6d751" stop-opacity="1"/>
		</linearGradient>
		<radialGradient id="grad7-331" cx="0" cy="0" r="1.4">
			<stop offset="0.18" stop-color="#5ea0ef" stop-opacity="1"/>
			<stop offset="1" stop-color="#0078d4" stop-opacity="1"/>
		</radialGradient>
		<linearGradient id="grad0-341" x1="0" y1="0" x2="1" y2="0" gradientTransform="rotate(-90.435149452297 0.5 0.5)">
			<stop offset="0" stop-color="#cccccc" stop-opacity="1"/>
			<stop offset="1" stop-color="#fcfcfc" stop-opacity="1"/>
		</linearGradient>
		<linearGradient id="grad0-349" x1="0" y1="0" x2="1" y2="0" gradientTransform="rotate(-90 0.5 0.5)">
			<stop offset="0" stop-color="#cccccc" stop-opacity="1"/>
			<stop offset="1" stop-color="#fcfcfc" stop-opacity="1"/>
		</linearGradient>
	</defs>
	<defs id="Markers">
		<g id="lend4">
			<path d="M 2 1 L 0 0 L 2 -1 L 2 1 " style="stroke:none"/>
		</g>
		<marker id="mrkr4-399" class="st43" v:arrowType="4" v:arrowSize="2" v:setback="5.12" refX="5.12" orient="auto"
				markerUnits="strokeWidth" overflow="visible">
			<use xlink:href="#lend4" transform="scale(2.68) "/>
		</marker>
		<marker id="mrkr4-422" class="st43" v:arrowType="4" v:arrowSize="2" v:setback="5.36" refX="-5.36" orient="auto"
				markerUnits="strokeWidth" overflow="visible">
			<use xlink:href="#lend4" transform="scale(-2.68,-2.68) "/>
		</marker>
	</defs>
	<g v:mID="10" v:index="2" v:groupContext="foregroundPage">
		<title>Data Flow CN</title>
		<v:pageProperties v:drawingScale="1" v:pageScale="1" v:drawingUnits="19" v:shadowOffsetX="9" v:shadowOffsetY="-9"/>
		<v:layer v:name="Connector" v:index="0"/>
		<g id="group1-1" transform="translate(27,-408.271)" v:mID="1" v:groupContext="group">
			<title>Sheet.1</title>
			<g id="shape2-2" v:mID="2" v:groupContext="shape" transform="translate(17.6169,-19.0366)">
				<title>Sheet.2</title>
				<path d="M5.45 590.26 C5.33 588.8 4.11 587.64 2.69 587.64 C1.2 587.64 0 588.85 0 590.33 L0 592.51 C0 593.93 1.15
							 595.15 2.69 595.28 C4.19 595.28 5.45 594.01 5.45 592.51 L5.45 590.26 ZM3.77 592.51 C3.77 593.15 3.19
							 593.6 2.75 593.6 C2.15 593.55 1.67 593.06 1.67 592.51 L1.67 590.33 C1.67 589.78 2.13 589.32 2.68 589.32
							 C3.23 589.32 3.72 589.8 3.77 590.33 L3.77 592.51 Z" class="st1"/>
			</g>
			<g id="shape3-4" v:mID="3" v:groupContext="shape" transform="translate(12.9353,-19.0052)">
				<title>Sheet.3</title>
				<path d="M0.94 595.28 C0.42 595.28 0 594.85 0 594.33 L0 588.61 C0 588.09 0.42 587.66 0.94 587.66 C1.46 587.66 1.89
							 588.09 1.89 588.61 L1.89 594.33 C1.89 594.85 1.46 595.28 0.94 595.28 Z" class="st2"/>
			</g>
			<g id="shape4-6" v:mID="4" v:groupContext="shape" transform="translate(4.68789,-19.0366)">
				<title>Sheet.4</title>
				<path d="M5.45 590.26 C5.33 588.8 4.11 587.64 2.69 587.64 C1.2 587.64 0 588.85 0 590.33 L0 592.51 C0 593.93 1.15
							 595.15 2.69 595.28 C4.19 595.28 5.45 594.01 5.45 592.51 L5.45 590.26 ZM3.78 592.51 C3.78 593.15 3.2
							 593.6 2.76 593.6 C2.16 593.55 1.68 593.06 1.68 592.51 L1.68 590.33 C1.68 589.78 2.14 589.32 2.69 589.32
							 C3.24 589.32 3.73 589.8 3.78 590.33 L3.78 592.51 Z" class="st1"/>
			</g>
			<g id="shape5-8" v:mID="5" v:groupContext="shape" transform="translate(1.79856E-14,-19.0052)">
				<title>Sheet.5</title>
				<path d="M0.95 595.28 C0.43 595.28 0.01 594.85 0.01 594.33 L0.01 588.61 C0 588.09 0.42 587.66 0.95 587.66 C1.47 587.66
							 1.89 588.09 1.89 588.61 L1.89 594.33 C1.89 594.85 1.47 595.28 0.95 595.28 Z" class="st2"/>
			</g>
			<g id="shape6-10" v:mID="6" v:groupContext="shape" transform="translate(30.5459,-19.0366)">
				<title>Sheet.6</title>
				<path d="M5.45 590.26 C5.33 588.8 4.11 587.64 2.69 587.64 C1.2 587.64 0 588.85 0 590.33 L0 592.51 C0 593.93 1.15
							 595.15 2.69 595.28 C4.19 595.28 5.45 594.01 5.45 592.51 L5.45 590.26 ZM3.77 592.51 C3.77 593.15 3.19
							 593.6 2.75 593.6 C2.15 593.55 1.67 593.06 1.67 592.51 L1.67 590.33 C1.67 589.78 2.13 589.32 2.68 589.32
							 C3.23 589.32 3.72 589.8 3.77 590.33 L3.77 592.51 Z" class="st1"/>
			</g>
			<g id="shape7-12" v:mID="7" v:groupContext="shape" transform="translate(25.8581,-19.0052)">
				<title>Sheet.7</title>
				<path d="M0.94 595.28 C0.42 595.28 0 594.85 0 594.33 L0 588.61 C0 588.09 0.42 587.66 0.94 587.66 C1.46 587.66 1.89
							 588.09 1.89 588.61 L1.89 594.33 C1.89 594.85 1.47 595.28 0.94 595.28 Z" class="st2"/>
			</g>
			<g id="shape8-14" v:mID="8" v:groupContext="shape" transform="translate(17.6169,-0.0304655)">
				<title>Sheet.8</title>
				<path d="M5.45 590.26 C5.33 588.8 4.11 587.64 2.69 587.64 C1.2 587.64 0 588.85 0 590.33 L0 592.51 C0 593.93 1.15
							 595.15 2.69 595.28 C4.19 595.28 5.45 594.01 5.45 592.51 L5.45 590.26 ZM3.77 592.51 C3.77 593.15 3.19
							 593.6 2.75 593.6 C2.15 593.55 1.67 593.06 1.67 592.51 L1.67 590.33 C1.67 589.78 2.13 589.32 2.68 589.32
							 C3.23 589.32 3.72 589.8 3.77 590.33 L3.77 592.51 Z" class="st1"/>
			</g>
			<g id="shape9-16" v:mID="9" v:groupContext="shape" transform="translate(12.9353,0)">
				<title>Sheet.9</title>
				<path d="M0.94 595.28 C0.42 595.28 0 594.85 0 594.33 L0 588.61 C0 588.09 0.42 587.67 0.94 587.67 C1.46 587.67 1.89
							 588.09 1.89 588.61 L1.89 594.33 C1.89 594.85 1.46 595.28 0.94 595.28 Z" class="st2"/>
			</g>
			<g id="shape10-18" v:mID="10" v:groupContext="shape" transform="translate(4.68789,-0.0304655)">
				<title>Sheet.10</title>
				<path d="M5.45 590.26 C5.33 588.8 4.11 587.64 2.69 587.64 C1.2 587.64 0 588.85 0 590.33 L0 592.51 C0 593.93 1.15
							 595.15 2.69 595.28 C4.19 595.28 5.45 594.01 5.45 592.51 L5.45 590.26 ZM3.78 592.51 C3.78 593.15 3.2
							 593.6 2.76 593.6 C2.16 593.55 1.68 593.06 1.68 592.51 L1.68 590.33 C1.68 589.78 2.14 589.32 2.69 589.32
							 C3.24 589.32 3.73 589.8 3.78 590.33 L3.78 592.51 Z" class="st1"/>
			</g>
			<g id="shape11-20" v:mID="11" v:groupContext="shape" transform="translate(0.00663177,0)">
				<title>Sheet.11</title>
				<path d="M0.94 595.28 C0.42 595.28 0 594.85 0 594.33 L0 588.61 C0 588.09 0.42 587.67 0.94 587.67 C1.46 587.67 1.89
							 588.09 1.89 588.61 L1.89 594.33 C1.89 594.85 1.46 595.28 0.94 595.28 Z" class="st2"/>
			</g>
			<g id="shape12-22" v:mID="12" v:groupContext="shape" transform="translate(30.5459,-0.0304655)">
				<title>Sheet.12</title>
				<path d="M5.45 590.26 C5.33 588.8 4.11 587.64 2.69 587.64 C1.2 587.64 0 588.85 0 590.33 L0 592.51 C0 593.93 1.15
							 595.15 2.69 595.28 C4.19 595.28 5.45 594.01 5.45 592.51 L5.45 590.26 ZM3.77 592.51 C3.77 593.15 3.19
							 593.6 2.75 593.6 C2.15 593.55 1.67 593.06 1.67 592.51 L1.67 590.33 C1.67 589.78 2.13 589.32 2.68 589.32
							 C3.23 589.32 3.72 589.8 3.77 590.33 L3.77 592.51 Z" class="st1"/>
			</g>
			<g id="shape13-24" v:mID="13" v:groupContext="shape" transform="translate(25.8581,0)">
				<title>Sheet.13</title>
				<path d="M0.94 595.28 C0.42 595.28 0 594.85 0 594.33 L0 588.61 C0 588.09 0.42 587.67 0.94 587.67 C1.46 587.67 1.89
							 588.09 1.89 588.61 L1.89 594.33 C1.89 594.85 1.47 595.28 0.94 595.28 Z" class="st2"/>
			</g>
			<g id="shape14-26" v:mID="14" v:groupContext="shape" transform="translate(12.9294,-9.43933)">
				<title>Sheet.14</title>
				<path d="M0.01 592.66 C0.13 594.12 1.34 595.28 2.77 595.28 C4.25 595.28 5.45 594.07 5.45 592.59 L5.45 590.41 C5.45
							 588.99 4.31 587.77 2.77 587.64 C1.27 587.64 0 588.91 0 590.41 L0.01 592.66 ZM1.68 590.41 C1.68 589.77
							 2.26 589.32 2.7 589.32 C3.29 589.37 3.78 589.86 3.78 590.41 L3.78 592.59 C3.78 593.13 3.31 593.6 2.77
							 593.6 C2.22 593.6 1.72 593.12 1.68 592.59 L1.68 590.41 Z" class="st2"/>
			</g>
			<g id="shape15-28" v:mID="15" v:groupContext="shape" transform="translate(21.1768,-9.49696)">
				<title>Sheet.15</title>
				<path d="M0.94 587.67 C1.46 587.67 1.89 588.09 1.89 588.61 L1.89 594.33 C1.89 594.85 1.46 595.28 0.94 595.28 C0.42
							 595.28 0 594.85 0 594.33 L0 588.61 C0 588.09 0.42 587.67 0.94 587.67 Z" class="st1"/>
			</g>
			<g id="shape16-30" v:mID="16" v:groupContext="shape" transform="translate(25.8581,-9.43933)">
				<title>Sheet.16</title>
				<path d="M0.01 592.66 C0.13 594.12 1.34 595.28 2.77 595.28 C4.25 595.28 5.45 594.07 5.45 592.59 L5.45 590.41 C5.45
							 588.99 4.31 587.77 2.77 587.64 C1.27 587.64 0 588.91 0 590.41 L0.01 592.66 ZM1.68 590.41 C1.68 589.77
							 2.26 589.32 2.7 589.32 C3.29 589.37 3.78 589.86 3.78 590.41 L3.78 592.59 C3.78 593.13 3.31 593.6 2.77
							 593.6 C2.22 593.6 1.72 593.12 1.68 592.59 L1.68 590.41 Z" class="st2"/>
			</g>
			<g id="shape17-32" v:mID="17" v:groupContext="shape" transform="translate(34.1058,-9.49696)">
				<title>Sheet.17</title>
				<path d="M0.94 587.67 C1.46 587.67 1.89 588.09 1.89 588.61 L1.89 594.33 C1.89 594.85 1.46 595.28 0.94 595.28 C0.42
							 595.28 0 594.85 0 594.33 L0 588.61 C0 588.09 0.42 587.67 0.94 587.67 Z" class="st1"/>
			</g>
			<g id="shape18-34" v:mID="18" v:groupContext="shape" transform="translate(0.000387777,-9.43933)">
				<title>Sheet.18</title>
				<path d="M0.01 592.66 C0.13 594.12 1.34 595.28 2.77 595.28 C4.25 595.28 5.45 594.07 5.45 592.59 L5.45 590.41 C5.45
							 588.99 4.31 587.77 2.77 587.64 C1.27 587.64 0 588.91 0 590.41 L0.01 592.66 ZM1.68 590.41 C1.68 589.77
							 2.26 589.32 2.7 589.32 C3.29 589.37 3.78 589.86 3.78 590.41 L3.78 592.59 C3.78 593.13 3.31 593.6 2.77
							 593.6 C2.22 593.6 1.72 593.12 1.68 592.59 L1.68 590.41 Z" class="st2"/>
			</g>
			<g id="shape19-36" v:mID="19" v:groupContext="shape" transform="translate(8.24775,-9.49696)">
				<title>Sheet.19</title>
				<path d="M0.94 587.67 C1.46 587.67 1.89 588.09 1.89 588.61 L1.89 594.33 C1.89 594.85 1.46 595.28 0.94 595.28 C0.42
							 595.28 0 594.85 0 594.33 L0 588.61 C0 588.09 0.42 587.67 0.94 587.67 Z" class="st1"/>
			</g>
		</g>
		<g id="group20-38" transform="translate(27,-290.25)" v:mID="20" v:groupContext="group">
			<title>Sheet.20</title>
			<g id="shape21-39" v:mID="21" v:groupContext="shape" transform="translate(17.6169,-19.0366)">
				<title>Sheet.21</title>
				<path d="M5.45 590.26 C5.33 588.8 4.11 587.64 2.69 587.64 C1.2 587.64 0 588.85 0 590.33 L0 592.51 C0 593.93 1.15
							 595.15 2.69 595.28 C4.19 595.28 5.45 594.01 5.45 592.51 L5.45 590.26 ZM3.77 592.51 C3.77 593.15 3.19
							 593.6 2.75 593.6 C2.15 593.55 1.67 593.06 1.67 592.51 L1.67 590.33 C1.67 589.78 2.13 589.32 2.68 589.32
							 C3.23 589.32 3.72 589.8 3.77 590.33 L3.77 592.51 Z" class="st1"/>
			</g>
			<g id="shape22-41" v:mID="22" v:groupContext="shape" transform="translate(12.9353,-19.0052)">
				<title>Sheet.22</title>
				<path d="M0.94 595.28 C0.42 595.28 0 594.85 0 594.33 L0 588.61 C0 588.09 0.42 587.66 0.94 587.66 C1.46 587.66 1.89
							 588.09 1.89 588.61 L1.89 594.33 C1.89 594.85 1.46 595.28 0.94 595.28 Z" class="st2"/>
			</g>
			<g id="shape23-43" v:mID="23" v:groupContext="shape" transform="translate(4.68789,-19.0366)">
				<title>Sheet.23</title>
				<path d="M5.45 590.26 C5.33 588.8 4.11 587.64 2.69 587.64 C1.2 587.64 0 588.85 0 590.33 L0 592.51 C0 593.93 1.15
							 595.15 2.69 595.28 C4.19 595.28 5.45 594.01 5.45 592.51 L5.45 590.26 ZM3.78 592.51 C3.78 593.15 3.2
							 593.6 2.76 593.6 C2.16 593.55 1.68 593.06 1.68 592.51 L1.68 590.33 C1.68 589.78 2.14 589.32 2.69 589.32
							 C3.24 589.32 3.73 589.8 3.78 590.33 L3.78 592.51 Z" class="st1"/>
			</g>
			<g id="shape24-45" v:mID="24" v:groupContext="shape" transform="translate(1.79856E-14,-19.0052)">
				<title>Sheet.24</title>
				<path d="M0.95 595.28 C0.43 595.28 0.01 594.85 0.01 594.33 L0.01 588.61 C0 588.09 0.42 587.66 0.95 587.66 C1.47 587.66
							 1.89 588.09 1.89 588.61 L1.89 594.33 C1.89 594.85 1.47 595.28 0.95 595.28 Z" class="st2"/>
			</g>
			<g id="shape25-47" v:mID="25" v:groupContext="shape" transform="translate(30.5459,-19.0366)">
				<title>Sheet.25</title>
				<path d="M5.45 590.26 C5.33 588.8 4.11 587.64 2.69 587.64 C1.2 587.64 0 588.85 0 590.33 L0 592.51 C0 593.93 1.15
							 595.15 2.69 595.28 C4.19 595.28 5.45 594.01 5.45 592.51 L5.45 590.26 ZM3.77 592.51 C3.77 593.15 3.19
							 593.6 2.75 593.6 C2.15 593.55 1.67 593.06 1.67 592.51 L1.67 590.33 C1.67 589.78 2.13 589.32 2.68 589.32
							 C3.23 589.32 3.72 589.8 3.77 590.33 L3.77 592.51 Z" class="st1"/>
			</g>
			<g id="shape26-49" v:mID="26" v:groupContext="shape" transform="translate(25.8581,-19.0052)">
				<title>Sheet.26</title>
				<path d="M0.94 595.28 C0.42 595.28 0 594.85 0 594.33 L0 588.61 C0 588.09 0.42 587.66 0.94 587.66 C1.46 587.66 1.89
							 588.09 1.89 588.61 L1.89 594.33 C1.89 594.85 1.47 595.28 0.94 595.28 Z" class="st2"/>
			</g>
			<g id="shape27-51" v:mID="27" v:groupContext="shape" transform="translate(17.6169,-0.0304655)">
				<title>Sheet.27</title>
				<path d="M5.45 590.26 C5.33 588.8 4.11 587.64 2.69 587.64 C1.2 587.64 0 588.85 0 590.33 L0 592.51 C0 593.93 1.15
							 595.15 2.69 595.28 C4.19 595.28 5.45 594.01 5.45 592.51 L5.45 590.26 ZM3.77 592.51 C3.77 593.15 3.19
							 593.6 2.75 593.6 C2.15 593.55 1.67 593.06 1.67 592.51 L1.67 590.33 C1.67 589.78 2.13 589.32 2.68 589.32
							 C3.23 589.32 3.72 589.8 3.77 590.33 L3.77 592.51 Z" class="st1"/>
			</g>
			<g id="shape28-53" v:mID="28" v:groupContext="shape" transform="translate(12.9353,0)">
				<title>Sheet.28</title>
				<path d="M0.94 595.28 C0.42 595.28 0 594.85 0 594.33 L0 588.61 C0 588.09 0.42 587.67 0.94 587.67 C1.46 587.67 1.89
							 588.09 1.89 588.61 L1.89 594.33 C1.89 594.85 1.46 595.28 0.94 595.28 Z" class="st2"/>
			</g>
			<g id="shape29-55" v:mID="29" v:groupContext="shape" transform="translate(4.68789,-0.0304655)">
				<title>Sheet.29</title>
				<path d="M5.45 590.26 C5.33 588.8 4.11 587.64 2.69 587.64 C1.2 587.64 0 588.85 0 590.33 L0 592.51 C0 593.93 1.15
							 595.15 2.69 595.28 C4.19 595.28 5.45 594.01 5.45 592.51 L5.45 590.26 ZM3.78 592.51 C3.78 593.15 3.2
							 593.6 2.76 593.6 C2.16 593.55 1.68 593.06 1.68 592.51 L1.68 590.33 C1.68 589.78 2.14 589.32 2.69 589.32
							 C3.24 589.32 3.73 589.8 3.78 590.33 L3.78 592.51 Z" class="st1"/>
			</g>
			<g id="shape30-57" v:mID="30" v:groupContext="shape" transform="translate(0.00663177,0)">
				<title>Sheet.30</title>
				<path d="M0.94 595.28 C0.42 595.28 0 594.85 0 594.33 L0 588.61 C0 588.09 0.42 587.67 0.94 587.67 C1.46 587.67 1.89
							 588.09 1.89 588.61 L1.89 594.33 C1.89 594.85 1.46 595.28 0.94 595.28 Z" class="st2"/>
			</g>
			<g id="shape31-59" v:mID="31" v:groupContext="shape" transform="translate(30.5459,-0.0304655)">
				<title>Sheet.31</title>
				<path d="M5.45 590.26 C5.33 588.8 4.11 587.64 2.69 587.64 C1.2 587.64 0 588.85 0 590.33 L0 592.51 C0 593.93 1.15
							 595.15 2.69 595.28 C4.19 595.28 5.45 594.01 5.45 592.51 L5.45 590.26 ZM3.77 592.51 C3.77 593.15 3.19
							 593.6 2.75 593.6 C2.15 593.55 1.67 593.06 1.67 592.51 L1.67 590.33 C1.67 589.78 2.13 589.32 2.68 589.32
							 C3.23 589.32 3.72 589.8 3.77 590.33 L3.77 592.51 Z" class="st1"/>
			</g>
			<g id="shape32-61" v:mID="32" v:groupContext="shape" transform="translate(25.8581,0)">
				<title>Sheet.32</title>
				<path d="M0.94 595.28 C0.42 595.28 0 594.85 0 594.33 L0 588.61 C0 588.09 0.42 587.67 0.94 587.67 C1.46 587.67 1.89
							 588.09 1.89 588.61 L1.89 594.33 C1.89 594.85 1.47 595.28 0.94 595.28 Z" class="st2"/>
			</g>
			<g id="shape33-63" v:mID="33" v:groupContext="shape" transform="translate(12.9294,-9.43933)">
				<title>Sheet.33</title>
				<path d="M0.01 592.66 C0.13 594.12 1.34 595.28 2.77 595.28 C4.25 595.28 5.45 594.07 5.45 592.59 L5.45 590.41 C5.45
							 588.99 4.31 587.77 2.77 587.64 C1.27 587.64 0 588.91 0 590.41 L0.01 592.66 ZM1.68 590.41 C1.68 589.77
							 2.26 589.32 2.7 589.32 C3.29 589.37 3.78 589.86 3.78 590.41 L3.78 592.59 C3.78 593.13 3.31 593.6 2.77
							 593.6 C2.22 593.6 1.72 593.12 1.68 592.59 L1.68 590.41 Z" class="st2"/>
			</g>
			<g id="shape34-65" v:mID="34" v:groupContext="shape" transform="translate(21.1768,-9.49696)">
				<title>Sheet.34</title>
				<path d="M0.94 587.67 C1.46 587.67 1.89 588.09 1.89 588.61 L1.89 594.33 C1.89 594.85 1.46 595.28 0.94 595.28 C0.42
							 595.28 0 594.85 0 594.33 L0 588.61 C0 588.09 0.42 587.67 0.94 587.67 Z" class="st1"/>
			</g>
			<g id="shape35-67" v:mID="35" v:groupContext="shape" transform="translate(25.8581,-9.43933)">
				<title>Sheet.35</title>
				<path d="M0.01 592.66 C0.13 594.12 1.34 595.28 2.77 595.28 C4.25 595.28 5.45 594.07 5.45 592.59 L5.45 590.41 C5.45
							 588.99 4.31 587.77 2.77 587.64 C1.27 587.64 0 588.91 0 590.41 L0.01 592.66 ZM1.68 590.41 C1.68 589.77
							 2.26 589.32 2.7 589.32 C3.29 589.37 3.78 589.86 3.78 590.41 L3.78 592.59 C3.78 593.13 3.31 593.6 2.77
							 593.6 C2.22 593.6 1.72 593.12 1.68 592.59 L1.68 590.41 Z" class="st2"/>
			</g>
			<g id="shape36-69" v:mID="36" v:groupContext="shape" transform="translate(34.1058,-9.49696)">
				<title>Sheet.36</title>
				<path d="M0.94 587.67 C1.46 587.67 1.89 588.09 1.89 588.61 L1.89 594.33 C1.89 594.85 1.46 595.28 0.94 595.28 C0.42
							 595.28 0 594.85 0 594.33 L0 588.61 C0 588.09 0.42 587.67 0.94 587.67 Z" class="st1"/>
			</g>
			<g id="shape37-71" v:mID="37" v:groupContext="shape" transform="translate(0.000387777,-9.43933)">
				<title>Sheet.37</title>
				<path d="M0.01 592.66 C0.13 594.12 1.34 595.28 2.77 595.28 C4.25 595.28 5.45 594.07 5.45 592.59 L5.45 590.41 C5.45
							 588.99 4.31 587.77 2.77 587.64 C1.27 587.64 0 588.91 0 590.41 L0.01 592.66 ZM1.68 590.41 C1.68 589.77
							 2.26 589.32 2.7 589.32 C3.29 589.37 3.78 589.86 3.78 590.41 L3.78 592.59 C3.78 593.13 3.31 593.6 2.77
							 593.6 C2.22 593.6 1.72 593.12 1.68 592.59 L1.68 590.41 Z" class="st2"/>
			</g>
			<g id="shape38-73" v:mID="38" v:groupContext="shape" transform="translate(8.24775,-9.49696)">
				<title>Sheet.38</title>
				<path d="M0.94 587.67 C1.46 587.67 1.89 588.09 1.89 588.61 L1.89 594.33 C1.89 594.85 1.46 595.28 0.94 595.28 C0.42
							 595.28 0 594.85 0 594.33 L0 588.61 C0 588.09 0.42 587.67 0.94 587.67 Z" class="st1"/>
			</g>
		</g>
		<g id="group39-75" transform="translate(295.125,-423.929)" v:mID="39" v:groupContext="group">
			<title>Icon-storage-90</title>
			<g id="shape40-76" v:mID="40" v:groupContext="shape">
				<title>Sheet.40</title>
				<path d="M35.15 569.14 L19.46 569.14 a0.72 0.72 0 0 1 -0.465882 -0.148235 L14.51 566.01 a0.910588 0.910588 -180 0
							 0 -0.465882 -0.127059 L0.85 565.88 a0.847059 0.847059 -180 0 0 -0.847059 0.825882 L0 594.45 a0.847059
							 0.847059 -180 0 0 0.847059 0.825882 L35.15 595.28 a0.847059 0.847059 -180 0 0 0.847059 -0.825882 L36
							 569.99 a0.847059 0.847059 -180 0 0 -0.847059 -0.847059 Z" class="st3"/>
			</g>
			<g id="shape41-78" v:mID="41" v:groupContext="shape" transform="translate(3.28235,-26.1529)">
				<title>Sheet.41</title>
				<path d="M0 594.94 a0.338831 0.338831 -180 0 0 0.338824 0.338824 L7.84 595.28 a0.338831 0.338831 -180 0 0 0.338824
							 -0.338824 L8.17 593.98 a0.338831 0.338831 -180 0 0 -0.338824 -0.338824 L0.34 593.65 a0.338831 0.338831
							 -180 0 0 -0.338824 0.338824 L0 594.94 Z" class="st4"/>
			</g>
			<g id="shape42-80" v:mID="42" v:groupContext="shape" transform="translate(3.28235,-26.1529)">
				<title>Sheet.42</title>
				<path d="M0 595.04 a0.232947 0.232947 -180 0 0 0.232941 0.232941 L1.4 595.28 a0.232947 0.232947 -180 0 0 0.232941
							 -0.232941 L1.63 593.88 a0.232947 0.232947 -180 0 0 -0.232941 -0.232941 L0.23 593.65 a0.232947 0.232947
							 -180 0 0 -0.232941 0.232941 L0 595.04 Z" class="st5"/>
			</g>
			<g id="shape43-82" v:mID="43" v:groupContext="shape" transform="translate(0,-0.0847059)">
				<title>Sheet.43</title>
				<path d="M35.15 569.19 L18 569.19 a0.762353 0.762353 -180 0 0 -0.592941 0.254118 L14.55 572.19 a0.910588 0.910588
							 0 0 1 -0.592941 0.232941 L0.85 572.43 a0.847059 0.847059 -180 0 0 -0.847059 0.847059 L0 594.45 a0.847059
							 0.847059 -180 0 0 0.847059 0.825882 L35.15 595.28 a0.847059 0.847059 -180 0 0 0.847059 -0.825882 L36
							 570.08 a0.847059 0.847059 -180 0 0 -0.847059 -0.889412 Z" class="st6"/>
			</g>
			<g id="shape44-86" v:mID="44" v:groupContext="shape" transform="translate(13.317,-4.98425)">
				<title>Sheet.44</title>
				<path d="M7.18 578.58 a0.317647 0.317647 -180 0 0 -0.169412 0 C7.01 578.58 6.82 578.58 6.74 578.72 L0.05 588.44 a0.338824
							 0.338824 -180 0 0 4.996E-15 0.338824 a0.402353 0.402353 -180 0 0 0.317647 0.211765 L4.32 588.99 L2.57
							 594.88 a0.275294 0.275294 -180 0 0 0.148235 0.381176 a0.211765 0.211765 -180 0 0 0.148235 0 C2.99 595.26
							 3.05 595.26 3.14 595.11 L10.04 585.25 C10.04 585.25 10.04 585.12 10.04 585.03 a0.36 0.36 -180 0 0 -0.36
							 -0.338824 L5.45 584.7 L7.16 578.91 a0.275294 0.275294 -180 0 0 0.0211765 -0.338824 Z" class="st4"/>
			</g>
		</g>
		<g id="group45-88" transform="translate(295.125,-346.726)" v:mID="45" v:groupContext="group">
			<title>Sheet.45</title>
			<g id="shape46-89" v:mID="46" v:groupContext="shape">
				<title>Sheet.46</title>
				<path d="M18 554 L0 564.3 L0 584.87 L18 595.28 L36 584.98 L36 564.34 L18 554 ZM32.68 582.82 L18 591.31 L3.32 582.91
							 L3.32 566.34 L18 557.85 L32.68 566.36 L32.68 582.82 Z" class="st7"/>
			</g>
			<g id="shape47-91" v:mID="47" v:groupContext="shape" transform="translate(0,-28.9376)">
				<title>Sheet.47</title>
				<path d="M18 582.94 L0 593.23 L3.32 595.28 L18 586.79 L32.68 595.28 L36 593.23 L18 582.94 Z" class="st8"/>
			</g>
			<g id="shape48-95" v:mID="48" v:groupContext="shape" transform="translate(5.64764,-5.15694)">
				<title>Sheet.48</title>
				<path d="M20.93 583.18 A1.67389 1.67389 -180 0 0 20.19 582.52 A13.3796 13.3796 -180 0 0 9.92 574.85 L24.77 566.27
							 L21.32 564.29 L4.4 574.06 A1.71975 1.71975 -180 0 0 5.27 577.27 A1.56841 1.56841 -180 0 0 5.47 577.22
							 L5.76 578.42 A9.90344 9.90344 0 0 1 16.85 583.55 L0 593.29 L3.44 595.28 L20.3 585.53 A1.67159 1.67159
							 -180 0 0 20.85 584.99 L21.03 584.95 C21.01 584.88 20.99 584.82 20.97 584.75 A1.68535 1.68535 -180 0
							 0 20.93 583.18 Z" class="st9"/>
			</g>
			<g id="shape49-97" v:mID="49" v:groupContext="shape" transform="translate(7.91278,-13.3655)">
				<title>Sheet.49</title>
				<path d="M17.17 588.03 A4.24204 4.24204 -180 1 0 21.42 592.28 A4.24204 4.24204 -180 0 0 17.17 588.03 ZM3 579.44 A4.24204
							 4.24204 -180 1 0 7.24 583.69 A4.24204 4.24204 -180 0 0 3 579.44 Z" class="st10"/>
			</g>
		</g>
		<g id="group50-101" transform="translate(423,-399.131)" v:mID="50" v:groupContext="group">
			<title>Icon-databases-130</title>
			<g id="shape51-102" v:mID="51" v:groupContext="shape">
				<title>Sheet.51</title>
				<path d="M18 560.57 C8.06 560.57 0 557.76 0 554.05 L0 588.76 C0 592.33 7.92 595.22 17.75 595.28 L18 595.28 C27.94
							 595.28 36 592.47 36 588.76 L36 554.05 C36 557.67 27.94 560.57 18 560.57 Z" class="st11"/>
			</g>
			<g id="shape52-106" v:mID="52" v:groupContext="shape" transform="translate(0,-34.7083)">
				<title>Sheet.52</title>
				<path d="M36 588.76 C36 592.38 27.94 595.28 18 595.28 C8.06 595.28 0 592.47 0 588.76 C0 585.05 8.06 582.25 18 582.25
							 C27.94 582.25 36 585.05 36 588.76 Z" class="st12"/>
			</g>
			<g id="shape53-108" v:mID="53" v:groupContext="shape" transform="translate(4.18409,-37.6006)">
				<title>Sheet.53</title>
				<path d="M27.63 591.12 C27.63 593.42 21.43 595.28 13.82 595.28 C6.21 595.28 0 593.42 0 591.12 C0 588.82 6.21 586.99
							 13.82 586.99 C21.43 586.99 27.63 588.85 27.63 591.12 Z" class="st9"/>
			</g>
			<g id="shape54-110" v:mID="54" v:groupContext="shape" transform="translate(7.07644,-37.6006)">
				<title>Sheet.54</title>
				<path d="M10.92 592.16 A32.4337 32.4337 -180 0 0 -0 593.76 A32.0686 32.0686 -180 0 0 10.92 595.28 A31.3105 31.3105
							 -180 0 0 21.85 593.65 A33.248 33.248 -180 0 0 10.92 592.16 Z" class="st13"/>
			</g>
			<g id="shape55-112" v:mID="55" v:groupContext="shape" transform="translate(4.49298,-12.131)">
				<title>Sheet.55</title>
				<path d="M24.46 590.28 L24.46 580.73 L21.93 580.73 L21.93 592.33 L28.84 592.33 L28.84 590.28 L24.46 590.28 ZM4.41
							 585.59 A5.13885 5.13885 0 0 1 2.98 584.72 A1.23557 1.23557 0 0 1 2.64 583.82 a0.954758 0.954758 0 0
							 1 0.421217 -0.842434 A1.90952 1.90952 0 0 1 4.24 582.64 A4.54914 4.54914 0 0 1 7.05 583.45 L7.05 581.04
							 A7.24493 7.24493 -180 0 0 4.24 580.59 A4.6053 4.6053 -180 0 0 1.18 581.54 A3.03276 3.03276 -180 0 0
							 0 584.04 C0 585.48 0.9 586.6 2.81 587.44 A8.08736 8.08736 0 0 1 4.55 588.45 A1.17941 1.17941 0 0 1 4.97
							 589.35 A1.06708 1.06708 0 0 1 4.52 590.22 A2.27457 2.27457 0 0 1 3.26 590.53 A4.66147 4.66147 0 0 1
							 0.2 589.35 L0.2 591.96 A6.0936 6.0936 -180 0 0 3.2 592.64 A5.27925 5.27925 -180 0 0 6.51 591.71 A3.03276
							 3.03276 -180 0 0 7.44 589.15 A2.94852 2.94852 -180 0 0 6.74 587.19 A6.79563 6.79563 -180 0 0 4.41 585.59
							 ZM19.12 590.05 A6.57098 6.57098 -180 0 0 20.05 586.51 A6.51482 6.51482 -180 0 0 19.12 583.54 A5.08268
							 5.08268 -180 0 0 17.16 581.43 A5.61622 5.61622 -180 0 0 14.35 580.7 A5.92512 5.92512 -180 0 0 11.32
							 581.46 A5.22309 5.22309 -180 0 0 9.27 583.54 A6.90796 6.90796 -180 0 0 8.54 586.74 A6.34633 6.34633
							 -180 0 0 9.21 589.55 A4.94228 4.94228 -180 0 0 11.15 591.63 A5.78471 5.78471 -180 0 0 13.96 592.47 L16.37
							 595.28 L19.77 595.28 L16.32 592.19 A5.02652 5.02652 -180 0 0 19.12 590.05 ZM16.32 589.35 A2.63963 2.63963
							 0 0 1 14.18 590.33 A2.58346 2.58346 0 0 1 12.05 589.32 A4.26833 4.26833 0 0 1 11.23 586.51 A4.29641
							 4.29641 0 0 1 12.05 583.71 A2.80811 2.80811 0 0 1 14.24 582.67 A2.44306 2.44306 0 0 1 16.34 583.71 A4.54914
							 4.54914 0 0 1 17.1 586.51 A4.09984 4.09984 0 0 1 16.32 589.35 Z" class="st14"/>
			</g>
		</g>
		<g id="shape56-116" v:mID="56" v:groupContext="shape" transform="translate(-1.91847E-13,-248.625)">
			<title>Sheet.56</title>
			<path d="M0 595.28 L90 595.28 L90 366.9 L0 366.9 L0 595.28 Z" class="st15"/>
		</g>
		<g id="shape57-118" v:mID="57" v:groupContext="shape" transform="translate(140.625,-248.625)">
			<title>Sheet.57</title>
			<path d="M0 595.28 L90 595.28 L90 366.9 L0 366.9 L0 595.28 Z" class="st15"/>
		</g>
		<g id="group58-120" transform="translate(167.625,-403.606)" v:mID="58" v:groupContext="group">
			<title>Icon-databases-126</title>
			<g id="group59-121" v:mID="59" v:groupContext="group">
				<title>Sheet.59</title>
				<g id="shape60-122" v:mID="60" v:groupContext="shape" transform="translate(9.21176,0)">
					<title>Sheet.60</title>
					<path d="M17.79 580.41 L17.79 572.13 a0.296471 0.296471 -180 0 0 -0.508235 -0.211765 L8.81 580.39 L0 589.2 L0
								 595.28 L25.58 595.28 A1.18588 1.18588 -180 0 0 26.79 594.07 L26.79 572.13 a0.296471 0.296471 -180
								 0 0 -0.508235 -0.211765 L17.79 580.41 Z" class="st3"/>
				</g>
				<g id="shape61-124" v:mID="61" v:groupContext="shape">
					<title>Sheet.61</title>
					<path d="M9 565.8 C4.02 565.8 0 564.34 0 562.45 L0 574.46 L0 594.07 A1.18588 1.18588 -180 0 0 1.21 595.28 L18
								 595.28 L18 562.45 C18 564.34 13.98 565.8 9 565.8 Z" class="st16"/>
				</g>
				<g id="shape62-128" v:mID="62" v:groupContext="shape" transform="translate(26.28,-4.78588)">
					<title>Sheet.62</title>
					<path d="M0 594.68 a0.592955 0.592955 -180 0 0 0.592941 0.592941 L4.21 595.28 a0.592955 0.592955 -180 0 0 0.592941
								 -0.592941 L4.81 591.06 a0.592955 0.592955 -180 0 0 -0.592941 -0.592941 L0.59 590.47 a0.592955 0.592955
								 -180 0 0 -0.592941 0.592941 L0 594.68 Z" class="st4"/>
				</g>
				<g id="shape63-130" v:mID="63" v:groupContext="shape" transform="translate(17.9365,-4.78588)">
					<title>Sheet.63</title>
					<path d="M0 594.68 a0.592955 0.592955 -180 0 0 0.592941 0.592941 L4.21 595.28 a0.592955 0.592955 -180 0 0 0.592941
								 -0.592941 L4.81 591.06 a0.592955 0.592955 -180 0 0 -0.592941 -0.592941 L0.59 590.47 a0.592955 0.592955
								 -180 0 0 -0.592941 0.592941 L0 594.68 Z" class="st4"/>
				</g>
				<g id="shape64-132" v:mID="64" v:groupContext="shape" transform="translate(9.59294,-4.78588)">
					<title>Sheet.64</title>
					<path d="M0 594.68 a0.592955 0.592955 -180 0 0 0.592941 0.592941 L4.21 595.28 a0.592955 0.592955 -180 0 0 0.592941
								 -0.592941 L4.81 591.06 a0.592955 0.592955 -180 0 0 -0.592941 -0.592941 L0.59 590.47 a0.592955 0.592955
								 -180 0 0 -0.592941 0.592941 L0 594.68 Z" class="st4"/>
				</g>
				<g id="shape65-134" v:mID="65" v:groupContext="shape" transform="translate(0,-29.5624)">
					<title>Sheet.65</title>
					<path d="M18 592.01 C18 593.81 13.98 595.28 9 595.28 C4.02 595.28 0 593.9 0 592.01 C0 590.13 4.02 588.84 9 588.84
								 C13.98 588.84 18 590.3 18 592.01 Z" class="st17"/>
				</g>
				<g id="shape66-136" v:mID="66" v:groupContext="shape" transform="translate(2.07529,-30.8965)">
					<title>Sheet.66</title>
					<path d="M13.81 593.16 C13.81 594.32 10.72 595.28 6.9 595.28 C3.09 595.28 0 594.37 0 593.16 C0 591.95 3.22 591.1
								 6.92 591.1 C10.63 591.1 13.81 592.01 13.81 593.16 Z" class="st9"/>
				</g>
				<g id="shape67-138" v:mID="67" v:groupContext="shape" transform="translate(3.53647,-30.9388)">
					<title>Sheet.67</title>
					<path d="M5.46 593.69 A17.0894 17.0894 -180 0 0 0 594.47 A16.1788 16.1788 -180 0 0 5.46 595.28 A16.1788 16.1788
								 -180 0 0 10.93 594.47 A17.0894 17.0894 -180 0 0 5.46 593.69 Z" class="st13"/>
				</g>
			</g>
		</g>
		<g id="group68-140" transform="translate(167.625,-314.144)" v:mID="68" v:groupContext="group">
			<title>Sheet.68</title>
			<g id="group69-141" v:mID="69" v:groupContext="group">
				<title>Sheet.69</title>
				<g id="shape70-142" v:mID="70" v:groupContext="shape">
					<title>Sheet.70</title>
					<path d="M0 578.82 L0 585.2 L18 595.28 L36 585.2 L36 578.82 L0 578.82 Z" class="st18"/>
				</g>
				<g id="shape71-144" v:mID="71" v:groupContext="shape" transform="translate(18.0003,0)">
					<title>Sheet.71</title>
					<rect x="0" y="578.821" width="17.9997" height="16.4546" class="st19"/>
				</g>
				<g id="shape72-146" v:mID="72" v:groupContext="shape" transform="translate(0,-6.37727)">
					<title>Sheet.72</title>
					<path d="M0 585.2 L18 595.28 L36 585.2 L18 575.12 L0 585.2 Z" class="st20"/>
				</g>
				<g id="shape73-148" v:mID="73" v:groupContext="shape" transform="translate(0,-13.2653)">
					<title>Sheet.73</title>
					<path d="M0 578.82 L0 585.2 L18 595.28 L36 585.2 L36 578.82 L0 578.82 Z" class="st18"/>
				</g>
				<g id="shape74-150" v:mID="74" v:groupContext="shape" transform="translate(18.0003,-13.2653)">
					<title>Sheet.74</title>
					<rect x="0" y="578.821" width="17.9997" height="16.4546" class="st19"/>
				</g>
				<g id="shape75-152" v:mID="75" v:groupContext="shape" transform="translate(0,-19.6432)">
					<title>Sheet.75</title>
					<path d="M0 585.2 L18 595.28 L36 585.2 L18 575.12 L0 585.2 Z" class="st20"/>
				</g>
			</g>
		</g>
		<g id="shape76-154" v:mID="76" v:groupContext="shape" transform="translate(268.125,-248.625)">
			<title>Sheet.76</title>
			<path d="M0 595.28 L90 595.28 L90 366.9 L0 366.9 L0 595.28 Z" class="st15"/>
		</g>
		<g id="shape77-156" v:mID="77" v:groupContext="shape" transform="translate(-1.27898E-13,-385.572)">
			<title>Sheet.77</title>
			<desc>企业计量表数据</desc>
			<v:textBlock v:margins="rect(4,4,4,4)"/>
			<v:textRect cx="45" cy="585.276" width="90" height="20"/>
			<rect x="0" y="575.276" width="90" height="20" class="st21"/>
			<text x="10" y="588.28" class="st22" v:langID="2052"><v:paragraph v:horizAlign="1"/><v:tabList/>企业计量表数据</text>		</g>
		<g id="shape78-159" v:mID="78" v:groupContext="shape" transform="translate(-1.27898E-13,-256.357)">
			<title>Sheet.78</title>
			<desc>第三方系统数据</desc>
			<v:textBlock v:margins="rect(4,4,4,4)"/>
			<v:textRect cx="45" cy="580.579" width="90" height="29.3929"/>
			<rect x="0" y="565.883" width="90" height="29.3929" class="st21"/>
			<text x="10" y="583.58" class="st22" v:langID="2052"><v:paragraph v:horizAlign="1"/><v:tabList/>第三方系统数据</text>		</g>
		<g id="shape79-162" v:mID="79" v:groupContext="shape" transform="translate(140.625,-372.304)">
			<title>Sheet.79</title>
			<desc>数据采集网关</desc>
			<v:textBlock v:margins="rect(4,4,4,4)"/>
			<v:textRect cx="45" cy="580.579" width="90" height="29.3929"/>
			<rect x="0" y="565.883" width="90" height="29.3929" class="st21"/>
			<text x="15" y="583.58" class="st22" v:langID="2052"><v:paragraph v:horizAlign="1"/><v:tabList/>数据采集网关</text>		</g>
		<g id="shape80-165" v:mID="80" v:groupContext="shape" transform="translate(140.625,-292.5)">
			<title>Sheet.80</title>
			<desc>协议转换网关</desc>
			<v:textBlock v:margins="rect(4,4,4,4)"/>
			<v:textRect cx="45" cy="585.276" width="90" height="20"/>
			<rect x="0" y="575.276" width="90" height="20" class="st21"/>
			<text x="15" y="588.28" class="st22" v:langID="2052"><v:paragraph v:horizAlign="1"/><v:tabList/>协议转换网关</text>		</g>
		<g id="shape81-168" v:mID="81" v:groupContext="shape" transform="translate(268.125,-394.679)">
			<title>Sheet.81</title>
			<desc>实时报警</desc>
			<v:textBlock v:margins="rect(4,4,4,4)"/>
			<v:textRect cx="45" cy="580.579" width="90" height="29.3929"/>
			<rect x="0" y="565.883" width="90" height="29.3929" class="st21"/>
			<text x="25" y="583.58" class="st22" v:langID="2052"><v:paragraph v:horizAlign="1"/><v:tabList/>实时报警</text>		</g>
		<g id="shape82-171" v:mID="82" v:groupContext="shape" transform="translate(268.125,-326.25)">
			<title>Sheet.82</title>
			<desc>数据清洗</desc>
			<v:textBlock v:margins="rect(4,4,4,4)"/>
			<v:textRect cx="45" cy="585.276" width="90" height="20"/>
			<rect x="0" y="575.276" width="90" height="20" class="st21"/>
			<text x="25" y="588.28" class="st22" v:langID="2052"><v:paragraph v:horizAlign="1"/><v:tabList/>数据清洗</text>		</g>
		<g id="shape83-174" v:mID="83" v:groupContext="shape" transform="translate(268.125,-249.75)">
			<title>Sheet.83</title>
			<desc>历史数据库</desc>
			<v:textBlock v:margins="rect(4,4,4,4)"/>
			<v:textRect cx="45" cy="580.579" width="90" height="29.3929"/>
			<rect x="0" y="565.883" width="90" height="29.3929" class="st21"/>
			<text x="20" y="583.58" class="st22" v:langID="2052"><v:paragraph v:horizAlign="1"/><v:tabList/>历史数据库</text>		</g>
		<g id="shape84-177" v:mID="84" v:groupContext="shape" transform="translate(395.062,-270)">
			<title>Sheet.84</title>
			<path d="M0 595.28 L90 595.28 L90 415.28 L0 415.28 L0 595.28 Z" class="st15"/>
		</g>
		<g id="shape93-179" v:mID="93" v:groupContext="shape" transform="translate(395.062,-374.28)">
			<title>Sheet.93</title>
			<desc>系统配置</desc>
			<v:textBlock v:margins="rect(4,4,4,4)"/>
			<v:textRect cx="45" cy="585.276" width="90" height="20"/>
			<rect x="0" y="575.276" width="90" height="20" class="st21"/>
			<text x="25" y="588.28" class="st22" v:langID="2052"><v:paragraph v:horizAlign="1"/><v:tabList/>系统配置</text>		</g>
		<g id="group94-182" transform="translate(422.288,-312.75)" v:mID="94" v:groupContext="group">
			<title>Icon-166Artboard 1</title>
			<g id="shape95-183" v:mID="95" v:groupContext="shape">
				<title>bc892891-989d-4c43-80d3-d2b4546</title>
				<path d="M33.07 595.28 L2.47 595.28 L0 586.05 L35.55 586.05 L33.07 595.28 Z" class="st13"/>
			</g>
			<g id="shape96-185" v:mID="96" v:groupContext="shape">
				<title>Sheet.96</title>
				<path d="M13.05 557.03 L13.05 571.43 L0 586.05 L2.47 595.28 L22.5 571.43 L22.5 557.03 L13.05 557.03 Z" class="st23"/>
			</g>
			<g id="shape97-189" v:mID="97" v:groupContext="shape" transform="translate(19.1248,1.13687E-13)">
				<title>e6be01d6-345d-4df4-bbdb-151aa8e</title>
				<path d="M13.95 595.28 L0 580.88 L5.85 574.13 L16.42 586.05 L13.95 595.28 Z" class="st24"/>
			</g>
		</g>
		<g id="shape98-191" v:mID="98" v:groupContext="shape" transform="translate(395.062,-279)">
			<title>Sheet.98</title>
			<desc>数据规范化</desc>
			<v:textBlock v:margins="rect(4,4,4,4)"/>
			<v:textRect cx="45" cy="580.579" width="90" height="29.3929"/>
			<rect x="0" y="565.883" width="90" height="29.3929" class="st21"/>
			<text x="20" y="583.58" class="st22" v:langID="2052"><v:paragraph v:horizAlign="1"/><v:tabList/>数据规范化</text>		</g>
		<g id="shape99-194" v:mID="99" v:groupContext="shape" transform="translate(500.812,-270)">
			<title>Sheet.99</title>
			<path d="M0 595.28 L90 595.28 L90 415.28 L0 415.28 L0 595.28 Z" class="st15"/>
		</g>
		<g id="group100-196" transform="translate(527.812,-395.924)" v:mID="100" v:groupContext="group">
			<title>Sheet.100</title>
			<g id="group101-197" v:mID="101" v:groupContext="group">
				<title>Sheet.101</title>
				<g id="shape102-198" v:mID="102" v:groupContext="shape">
					<title>Sheet.102</title>
					<path d="M0 578.82 L0 585.2 L18 595.28 L36 585.2 L36 578.82 L0 578.82 Z" class="st18"/>
				</g>
				<g id="shape103-200" v:mID="103" v:groupContext="shape" transform="translate(18.0003,0)">
					<title>Sheet.103</title>
					<rect x="0" y="578.821" width="17.9997" height="16.4546" class="st19"/>
				</g>
				<g id="shape104-202" v:mID="104" v:groupContext="shape" transform="translate(0,-6.37727)">
					<title>Sheet.104</title>
					<path d="M0 585.2 L18 595.28 L36 585.2 L18 575.12 L0 585.2 Z" class="st20"/>
				</g>
				<g id="shape105-204" v:mID="105" v:groupContext="shape" transform="translate(0,-13.2653)">
					<title>Sheet.105</title>
					<path d="M0 578.82 L0 585.2 L18 595.28 L36 585.2 L36 578.82 L0 578.82 Z" class="st18"/>
				</g>
				<g id="shape106-206" v:mID="106" v:groupContext="shape" transform="translate(18.0003,-13.2653)">
					<title>Sheet.106</title>
					<rect x="0" y="578.821" width="17.9997" height="16.4546" class="st19"/>
				</g>
				<g id="shape107-208" v:mID="107" v:groupContext="shape" transform="translate(0,-19.6432)">
					<title>Sheet.107</title>
					<path d="M0 585.2 L18 595.28 L36 585.2 L18 575.12 L0 585.2 Z" class="st20"/>
				</g>
			</g>
		</g>
		<g id="shape108-210" v:mID="108" v:groupContext="shape" transform="translate(500.812,-374.28)">
			<title>Sheet.108</title>
			<desc>MQTT Broker</desc>
			<v:textBlock v:margins="rect(4,4,4,4)"/>
			<v:textRect cx="45" cy="585.276" width="90" height="20"/>
			<rect x="0" y="575.276" width="90" height="20" class="st21"/>
			<text x="13.13" y="588.28" class="st22" v:langID="2052"><v:paragraph v:horizAlign="1"/><v:tabList/>MQTT Broker</text>		</g>
		<g id="shape109-213" v:mID="109" v:groupContext="shape" transform="translate(500.812,-279)">
			<title>Sheet.109</title>
			<desc>数据汇总</desc>
			<v:textBlock v:margins="rect(4,4,4,4)"/>
			<v:textRect cx="45" cy="580.579" width="90" height="29.3929"/>
			<rect x="0" y="565.883" width="90" height="29.3929" class="st21"/>
			<text x="25" y="583.58" class="st22" v:langID="2052"><v:paragraph v:horizAlign="1"/><v:tabList/>数据汇总</text>		</g>
		<g id="group110-216" transform="translate(528.038,-316.244)" v:mID="110" v:groupContext="group">
			<title>Icon-compute-23</title>
			<g id="shape111-217" v:mID="111" v:groupContext="shape" transform="translate(5.78075,-21.3534)">
				<title>Sheet.111</title>
				<path d="M5.62 585.37 L0 586.41 L0 594.08 L5.62 595.28 L11.27 593.01 L11.27 587.29 L5.62 585.37 Z" class="st25"/>
			</g>
			<g id="shape112-221" v:mID="112" v:groupContext="shape" transform="translate(5.89873,-21.4484)">
				<title>Sheet.112</title>
				<path d="M5.72 595.25 L10.87 593.17 a0.393248 0.393248 -180 0 0 0.235949 -0.275274 L11.11 587.7 a0.412911 0.412911
							 -180 0 0 -0.255612 -0.353924 L5.64 585.58 L5.41 585.58 L0.29 586.52 a0.393248 0.393248 -180 0 0 -0.294936
							 0.353924 L0 593.82 a0.373586 0.373586 -180 0 0 0.294936 0.373586 L5.47 595.27 a0.629198 0.629198 -180
							 0 0 0.255612 -0.0196624 Z" class="st26"/>
			</g>
			<g id="shape113-223" v:mID="113" v:groupContext="shape" transform="translate(5.78075,-21.3534)">
				<title>Sheet.113</title>
				<path d="M0 586.41 L0 594.08 L5.68 595.28 L5.68 585.44 L0 586.41 ZM2.4 593.49 L0.81 593.17 L0.81 587.27 L2.4 587.02
							 L2.4 593.49 ZM4.88 593.94 L3.05 593.64 L3.05 586.9 L4.88 586.58 L4.88 593.94 Z" class="st27"/>
			</g>
			<g id="shape114-225" v:mID="114" v:groupContext="shape" transform="translate(17.9518,-21.2551)">
				<title>Sheet.114</title>
				<path d="M5.62 585.37 L0 586.41 L0 594.08 L5.62 595.28 L11.25 592.99 L11.25 587.29 L5.62 585.37 Z" class="st25"/>
			</g>
			<g id="shape115-228" v:mID="115" v:groupContext="shape" transform="translate(17.9518,-21.2551)">
				<title>Sheet.115</title>
				<path d="M0 586.41 L0 594.08 L5.64 595.28 L5.64 585.44 L0 586.41 ZM2.38 593.49 L0.79 593.17 L0.79 587.27 L2.38 587.02
							 L2.38 593.49 ZM4.86 593.94 L3.03 593.64 L3.03 586.9 L4.86 586.57 L4.86 593.94 Z" class="st27"/>
			</g>
			<g id="shape116-230" v:mID="116" v:groupContext="shape" transform="translate(0.0196624,-10.775)">
				<title>Sheet.116</title>
				<path d="M5.62 585.37 L0 586.41 L0 594.08 L5.62 595.28 L11.27 593.01 L11.27 587.29 L5.62 585.37 Z" class="st25"/>
			</g>
			<g id="shape117-233" v:mID="117" v:groupContext="shape" transform="translate(3.54716E-14,-10.834)">
				<title>Sheet.117</title>
				<path d="M0 586.47 L0 594.08 L5.68 595.28 L5.68 585.44 L0 586.47 ZM2.38 593.56 L0.79 593.23 L0.79 587.33 L2.38 587.06
							 L2.38 593.56 ZM4.88 594.08 L3.05 593.78 L3.05 586.96 L4.88 586.64 L4.88 594.08 Z" class="st27"/>
			</g>
			<g id="shape118-235" v:mID="118" v:groupContext="shape" transform="translate(12.1514,-10.834)">
				<title>Sheet.118</title>
				<path d="M5.62 585.35 L0 586.39 L0 594.06 L5.62 595.28 L11.25 592.99 L11.25 587.27 L5.62 585.35 Z" class="st25"/>
			</g>
			<g id="shape119-238" v:mID="119" v:groupContext="shape" transform="translate(12.1514,-10.834)">
				<title>Sheet.119</title>
				<path d="M0 586.39 L0 594.08 L5.66 595.28 L5.66 585.44 L0 586.39 ZM2.38 593.49 L0.79 593.15 L0.79 587.25 L2.38 586.98
							 L2.38 593.49 ZM4.86 593.92 L3.03 593.62 L3.03 586.88 L4.86 586.57 L4.86 593.92 Z" class="st27"/>
			</g>
			<g id="shape120-240" v:mID="120" v:groupContext="shape" transform="translate(24.2831,-10.7553)">
				<title>Sheet.120</title>
				<path d="M5.62 585.37 L0 586.41 L0 594.08 L5.62 595.28 L11.27 593.01 L11.27 587.29 L5.62 585.37 Z" class="st25"/>
			</g>
			<g id="shape121-243" v:mID="121" v:groupContext="shape" transform="translate(24.2831,-10.834)">
				<title>Sheet.121</title>
				<path d="M0 586.49 L0 594.08 L5.68 595.28 L5.68 585.44 L0 586.49 ZM2.4 593.58 L0.81 593.25 L0.81 587.35 L2.4 587.08
							 L2.4 593.58 ZM4.88 594.02 L3.05 593.72 L3.05 586.98 L4.88 586.66 L4.88 594.02 Z" class="st27"/>
			</g>
			<g id="shape122-245" v:mID="122" v:groupContext="shape" transform="translate(5.64312,-0.0786497)">
				<title>Sheet.122</title>
				<path d="M5.62 585.37 L0 586.39 L0 594.06 L5.62 595.28 L11.27 592.99 L11.27 587.29 L5.62 585.37 Z" class="st25"/>
			</g>
			<g id="shape123-248" v:mID="123" v:groupContext="shape" transform="translate(5.74143,-0.214495)">
				<title>Sheet.123</title>
				<path d="M5.74 595.25 L10.87 593.29 a0.353924 0.353924 -180 0 0 0.235949 -0.353924 L11.11 587.82 a0.393248 0.393248
							 -180 0 0 -0.255612 -0.432573 L5.66 585.62 a0.334261 0.334261 -180 0 0 -0.235949 1.13687E-13 L0.31 586.54
							 a0.373586 0.373586 -180 0 0 -0.314599 0.373586 L0 593.88 a0.373586 0.373586 -180 0 0 0.294936 0.373586
							 L5.47 595.25 a0.452236 0.452236 -180 0 0 0.275274 0 Z" class="st26"/>
			</g>
			<g id="shape124-250" v:mID="124" v:groupContext="shape" transform="translate(5.64312,-0.0786497)">
				<title>Sheet.124</title>
				<path d="M0 586.39 L0 594.06 L5.68 595.28 L5.68 585.29 L0 586.39 ZM2.4 593.49 L0.81 593.15 L0.81 587.25 L2.4 586.98
							 L2.4 593.49 ZM4.88 593.94 L3.05 593.64 L3.05 586.88 L4.88 586.57 L4.88 593.94 Z" class="st27"/>
			</g>
			<g id="shape125-252" v:mID="125" v:groupContext="shape" transform="translate(17.7945,-1.13687E-13)">
				<title>Sheet.125</title>
				<path d="M5.62 585.37 L0 586.41 L0 594.08 L5.62 595.28 L11.27 593.01 L11.27 587.29 L5.62 585.37 Z" class="st25"/>
			</g>
			<g id="shape126-255" v:mID="126" v:groupContext="shape" transform="translate(17.7945,-1.13687E-13)">
				<title>Sheet.126</title>
				<path d="M0 586.41 L0 594.08 L5.68 595.28 L5.68 585.44 L0 586.41 ZM2.4 593.51 L0.81 593.17 L0.81 587.27 L2.4 587
							 L2.4 593.51 ZM4.88 593.94 L3.05 593.64 L3.05 586.9 L4.88 586.58 L4.88 593.94 Z" class="st27"/>
			</g>
		</g>
		<g id="shape127-257" v:mID="127" v:groupContext="shape" transform="translate(383.812,-234)">
			<title>Sheet.127</title>
			<path d="M0 595.28 L225 595.28 L225 325.28 L0 325.28 L0 595.28 Z" class="st15"/>
		</g>
		<g id="group128-259" transform="translate(662.812,-423.929)" v:mID="128" v:groupContext="group">
			<title>Icon-storage-90.1143</title>
			<g id="shape129-260" v:mID="129" v:groupContext="shape">
				<title>Sheet.129</title>
				<path d="M35.15 569.14 L19.46 569.14 a0.72 0.72 0 0 1 -0.465882 -0.148235 L14.51 566.01 a0.910588 0.910588 -180 0
							 0 -0.465882 -0.127059 L0.85 565.88 a0.847059 0.847059 -180 0 0 -0.847059 0.825882 L0 594.45 a0.847059
							 0.847059 -180 0 0 0.847059 0.825882 L35.15 595.28 a0.847059 0.847059 -180 0 0 0.847059 -0.825882 L36
							 569.99 a0.847059 0.847059 -180 0 0 -0.847059 -0.847059 Z" class="st3"/>
			</g>
			<g id="shape130-262" v:mID="130" v:groupContext="shape" transform="translate(3.28235,-26.1529)">
				<title>Sheet.130</title>
				<path d="M0 594.94 a0.338831 0.338831 -180 0 0 0.338824 0.338824 L7.84 595.28 a0.338831 0.338831 -180 0 0 0.338824
							 -0.338824 L8.17 593.98 a0.338831 0.338831 -180 0 0 -0.338824 -0.338824 L0.34 593.65 a0.338831 0.338831
							 -180 0 0 -0.338824 0.338824 L0 594.94 Z" class="st4"/>
			</g>
			<g id="shape131-264" v:mID="131" v:groupContext="shape" transform="translate(3.28235,-26.1529)">
				<title>Sheet.131</title>
				<path d="M0 595.04 a0.232947 0.232947 -180 0 0 0.232941 0.232941 L1.4 595.28 a0.232947 0.232947 -180 0 0 0.232941
							 -0.232941 L1.63 593.88 a0.232947 0.232947 -180 0 0 -0.232941 -0.232941 L0.23 593.65 a0.232947 0.232947
							 -180 0 0 -0.232941 0.232941 L0 595.04 Z" class="st5"/>
			</g>
			<g id="shape132-266" v:mID="132" v:groupContext="shape" transform="translate(0,-0.0847059)">
				<title>Sheet.132</title>
				<path d="M35.15 569.19 L18 569.19 a0.762353 0.762353 -180 0 0 -0.592941 0.254118 L14.55 572.19 a0.910588 0.910588
							 0 0 1 -0.592941 0.232941 L0.85 572.43 a0.847059 0.847059 -180 0 0 -0.847059 0.847059 L0 594.45 a0.847059
							 0.847059 -180 0 0 0.847059 0.825882 L35.15 595.28 a0.847059 0.847059 -180 0 0 0.847059 -0.825882 L36
							 570.08 a0.847059 0.847059 -180 0 0 -0.847059 -0.889412 Z" class="st6"/>
			</g>
			<g id="shape133-269" v:mID="133" v:groupContext="shape" transform="translate(13.317,-4.98425)">
				<title>Sheet.133</title>
				<path d="M7.18 578.58 a0.317647 0.317647 -180 0 0 -0.169412 0 C7.01 578.58 6.82 578.58 6.74 578.72 L0.05 588.44 a0.338824
							 0.338824 -180 0 0 4.996E-15 0.338824 a0.402353 0.402353 -180 0 0 0.317647 0.211765 L4.32 588.99 L2.57
							 594.88 a0.275294 0.275294 -180 0 0 0.148235 0.381176 a0.211765 0.211765 -180 0 0 0.148235 0 C2.99 595.26
							 3.05 595.26 3.14 595.11 L10.04 585.25 C10.04 585.25 10.04 585.12 10.04 585.03 a0.36 0.36 -180 0 0 -0.36
							 -0.338824 L5.45 584.7 L7.16 578.91 a0.275294 0.275294 -180 0 0 0.0211765 -0.338824 Z" class="st4"/>
			</g>
		</g>
		<g id="group134-271" transform="translate(662.812,-346.726)" v:mID="134" v:groupContext="group">
			<title>Sheet.134</title>
			<g id="shape135-272" v:mID="135" v:groupContext="shape">
				<title>Sheet.135</title>
				<path d="M18 554 L0 564.3 L0 584.87 L18 595.28 L36 584.98 L36 564.34 L18 554 ZM32.68 582.82 L18 591.31 L3.32 582.91
							 L3.32 566.34 L18 557.85 L32.68 566.36 L32.68 582.82 Z" class="st7"/>
			</g>
			<g id="shape136-274" v:mID="136" v:groupContext="shape" transform="translate(0,-28.9376)">
				<title>Sheet.136</title>
				<path d="M18 582.94 L0 593.23 L3.32 595.28 L18 586.79 L32.68 595.28 L36 593.23 L18 582.94 Z" class="st8"/>
			</g>
			<g id="shape137-277" v:mID="137" v:groupContext="shape" transform="translate(5.64764,-5.15694)">
				<title>Sheet.137</title>
				<path d="M20.93 583.18 A1.67389 1.67389 -180 0 0 20.19 582.52 A13.3796 13.3796 -180 0 0 9.92 574.85 L24.77 566.27
							 L21.32 564.29 L4.4 574.06 A1.71975 1.71975 -180 0 0 5.27 577.27 A1.56841 1.56841 -180 0 0 5.47 577.22
							 L5.76 578.42 A9.90344 9.90344 0 0 1 16.85 583.55 L0 593.29 L3.44 595.28 L20.3 585.53 A1.67159 1.67159
							 -180 0 0 20.85 584.99 L21.03 584.95 C21.01 584.88 20.99 584.82 20.97 584.75 A1.68535 1.68535 -180 0
							 0 20.93 583.18 Z" class="st9"/>
			</g>
			<g id="shape138-279" v:mID="138" v:groupContext="shape" transform="translate(7.91278,-13.3655)">
				<title>Sheet.138</title>
				<path d="M17.17 588.03 A4.24204 4.24204 -180 1 0 21.42 592.28 A4.24204 4.24204 -180 0 0 17.17 588.03 ZM3 579.44 A4.24204
							 4.24204 -180 1 0 7.24 583.69 A4.24204 4.24204 -180 0 0 3 579.44 Z" class="st10"/>
			</g>
		</g>
		<g id="group139-282" transform="translate(662.812,-276.75)" v:mID="139" v:groupContext="group">
			<title>Icon-databases-130.1154</title>
			<g id="shape140-283" v:mID="140" v:groupContext="shape">
				<title>Sheet.140</title>
				<path d="M18 560.57 C8.06 560.57 0 557.76 0 554.05 L0 588.76 C0 592.33 7.92 595.22 17.75 595.28 L18 595.28 C27.94
							 595.28 36 592.47 36 588.76 L36 554.05 C36 557.67 27.94 560.57 18 560.57 Z" class="st11"/>
			</g>
			<g id="shape141-286" v:mID="141" v:groupContext="shape" transform="translate(0,-34.7083)">
				<title>Sheet.141</title>
				<path d="M36 588.76 C36 592.38 27.94 595.28 18 595.28 C8.06 595.28 0 592.47 0 588.76 C0 585.05 8.06 582.25 18 582.25
							 C27.94 582.25 36 585.05 36 588.76 Z" class="st12"/>
			</g>
			<g id="shape142-288" v:mID="142" v:groupContext="shape" transform="translate(4.18409,-37.6006)">
				<title>Sheet.142</title>
				<path d="M27.63 591.12 C27.63 593.42 21.43 595.28 13.82 595.28 C6.21 595.28 0 593.42 0 591.12 C0 588.82 6.21 586.99
							 13.82 586.99 C21.43 586.99 27.63 588.85 27.63 591.12 Z" class="st9"/>
			</g>
			<g id="shape143-290" v:mID="143" v:groupContext="shape" transform="translate(7.07644,-37.6006)">
				<title>Sheet.143</title>
				<path d="M10.92 592.16 A32.4337 32.4337 -180 0 0 -0 593.76 A32.0686 32.0686 -180 0 0 10.92 595.28 A31.3105 31.3105
							 -180 0 0 21.85 593.65 A33.248 33.248 -180 0 0 10.92 592.16 Z" class="st13"/>
			</g>
			<g id="shape144-292" v:mID="144" v:groupContext="shape" transform="translate(4.49298,-12.131)">
				<title>Sheet.144</title>
				<path d="M24.46 590.28 L24.46 580.73 L21.93 580.73 L21.93 592.33 L28.84 592.33 L28.84 590.28 L24.46 590.28 ZM4.41
							 585.59 A5.13885 5.13885 0 0 1 2.98 584.72 A1.23557 1.23557 0 0 1 2.64 583.82 a0.954758 0.954758 0 0
							 1 0.421217 -0.842434 A1.90952 1.90952 0 0 1 4.24 582.64 A4.54914 4.54914 0 0 1 7.05 583.45 L7.05 581.04
							 A7.24493 7.24493 -180 0 0 4.24 580.59 A4.6053 4.6053 -180 0 0 1.18 581.54 A3.03276 3.03276 -180 0 0
							 0 584.04 C0 585.48 0.9 586.6 2.81 587.44 A8.08736 8.08736 0 0 1 4.55 588.45 A1.17941 1.17941 0 0 1 4.97
							 589.35 A1.06708 1.06708 0 0 1 4.52 590.22 A2.27457 2.27457 0 0 1 3.26 590.53 A4.66147 4.66147 0 0 1
							 0.2 589.35 L0.2 591.96 A6.0936 6.0936 -180 0 0 3.2 592.64 A5.27925 5.27925 -180 0 0 6.51 591.71 A3.03276
							 3.03276 -180 0 0 7.44 589.15 A2.94852 2.94852 -180 0 0 6.74 587.19 A6.79563 6.79563 -180 0 0 4.41 585.59
							 ZM19.12 590.05 A6.57098 6.57098 -180 0 0 20.05 586.51 A6.51482 6.51482 -180 0 0 19.12 583.54 A5.08268
							 5.08268 -180 0 0 17.16 581.43 A5.61622 5.61622 -180 0 0 14.35 580.7 A5.92512 5.92512 -180 0 0 11.32
							 581.46 A5.22309 5.22309 -180 0 0 9.27 583.54 A6.90796 6.90796 -180 0 0 8.54 586.74 A6.34633 6.34633
							 -180 0 0 9.21 589.55 A4.94228 4.94228 -180 0 0 11.15 591.63 A5.78471 5.78471 -180 0 0 13.96 592.47 L16.37
							 595.28 L19.77 595.28 L16.32 592.19 A5.02652 5.02652 -180 0 0 19.12 590.05 ZM16.32 589.35 A2.63963 2.63963
							 0 0 1 14.18 590.33 A2.58346 2.58346 0 0 1 12.05 589.32 A4.26833 4.26833 0 0 1 11.23 586.51 A4.29641
							 4.29641 0 0 1 12.05 583.71 A2.80811 2.80811 0 0 1 14.24 582.67 A2.44306 2.44306 0 0 1 16.34 583.71 A4.54914
							 4.54914 0 0 1 17.1 586.51 A4.09984 4.09984 0 0 1 16.32 589.35 Z" class="st14"/>
			</g>
		</g>
		<g id="shape145-295" v:mID="145" v:groupContext="shape" transform="translate(635.812,-248.625)">
			<title>Sheet.145</title>
			<path d="M0 595.28 L90 595.28 L90 366.9 L0 366.9 L0 595.28 Z" class="st15"/>
		</g>
		<g id="shape146-297" v:mID="146" v:groupContext="shape" transform="translate(635.812,-394.679)">
			<title>Sheet.146</title>
			<desc>故障检测与诊断</desc>
			<v:textBlock v:margins="rect(4,4,4,4)"/>
			<v:textRect cx="45" cy="580.579" width="90" height="29.3929"/>
			<rect x="0" y="565.883" width="90" height="29.3929" class="st21"/>
			<text x="10" y="583.58" class="st22" v:langID="2052"><v:paragraph v:horizAlign="1"/><v:tabList/>故障检测与诊断</text>		</g>
		<g id="shape147-300" v:mID="147" v:groupContext="shape" transform="translate(635.812,-326.25)">
			<title>Sheet.147</title>
			<desc>REST API</desc>
			<v:textBlock v:margins="rect(4,4,4,4)"/>
			<v:textRect cx="45" cy="585.276" width="90" height="20"/>
			<rect x="0" y="575.276" width="90" height="20" class="st21"/>
			<text x="23.71" y="588.28" class="st22" v:langID="2052"><v:paragraph v:horizAlign="1"/><v:tabList/>REST API</text>		</g>
		<g id="shape148-303" v:mID="148" v:groupContext="shape" transform="translate(635.812,-249.75)">
			<title>Sheet.148</title>
			<desc>能耗数据库</desc>
			<v:textBlock v:margins="rect(4,4,4,4)"/>
			<v:textRect cx="45" cy="580.579" width="90" height="29.3929"/>
			<rect x="0" y="565.883" width="90" height="29.3929" class="st21"/>
			<text x="20" y="583.58" class="st22" v:langID="2052"><v:paragraph v:horizAlign="1"/><v:tabList/>能耗数据库</text>		</g>
		<g id="shape149-306" v:mID="149" v:groupContext="shape" transform="translate(747,-248.625)">
			<title>Sheet.149</title>
			<path d="M0 595.28 L90 595.28 L90 366.9 L0 366.9 L0 595.28 Z" class="st15"/>
		</g>
		<g id="group150-308" transform="translate(747,-296.438)" v:mID="150" v:groupContext="group">
			<title>Sheet.150</title>
			<g id="group151-309" transform="translate(27,-96.75)" v:mID="151" v:groupContext="group">
				<title>Power BI.1165</title>
				<g id="group152-310" v:mID="152" v:groupContext="group">
					<title>Sheet.152</title>
					<g id="shape153-311" v:mID="153" v:groupContext="shape" transform="translate(20,-0.734694)">
						<title>Sheet.153</title>
						<path d="M16 560.01 L16 595.28 L0 595.28 L0 560.01 L16 560.01 Z" class="st28"/>
					</g>
					<g id="shape154-315" v:mID="154" v:groupContext="shape" transform="translate(10.0001,-0.587755)">
						<title>Sheet.154</title>
						<path d="M16 570.3 L16 595.28 L0 595.28 L0 568.83 L14 568.83 C15.1 568.83 16 569.48 16 570.3 Z"
								class="st29"/>
					</g>
					<g id="shape155-317" v:mID="155" v:groupContext="shape" transform="translate(10.0001,0)">
						<title>Sheet.155</title>
						<path d="M16 570.3 L16 595.28 L0 595.28 L0 568.83 L14 568.83 C15.1 568.83 16 569.48 16 570.3 Z"
								class="st30"/>
					</g>
					<g id="shape156-319" v:mID="156" v:groupContext="shape" transform="translate(10.0001,-0.734694)">
						<title>Sheet.156</title>
						<path d="M16 570.3 L16 595.28 L0 595.28 L0 568.83 L14 568.83 C15.1 568.83 16 569.48 16 570.3 Z"
								class="st31"/>
					</g>
					<g id="shape157-323" v:mID="157" v:groupContext="shape" transform="translate(0,-0.734694)">
						<title>Sheet.157</title>
						<path d="M0 577.64 L0 595.28 L16 595.28 L16 579.11 C16 578.3 15.1 577.64 14 577.64 L0 577.64 Z"
								class="st32"/>
					</g>
				</g>
			</g>
			<g id="group158-327" transform="translate(27,-24.8435)" v:mID="158" v:groupContext="group">
				<title>Icon-web-41</title>
				<g id="shape159-328" v:mID="159" v:groupContext="shape" transform="translate(1.44459,1.13687E-13)">
					<title>ee75dd06-1aca-4f76-9d11-d05a284</title>
					<path d="M27.36 595.28 A19.4975 19.4975 0 0 1 3.46 564.46 L3.67 564.32 A19.4904 19.4904 0 0 1 27.36 595.28 Z"
							class="st33"/>
				</g>
				<g id="shape160-332" v:mID="160" v:groupContext="shape" transform="translate(8.46115,-19.4675)">
					<title>Sheet.160</title>
					<path d="M3.1 595.28 A29.8089 29.8089 0 0 1 23.53 587.07 A19.4217 19.4217 -180 0 0 20.11 583.76 A32.8815 32.8815
								 -180 0 0 9.36 586.29 A28.7541 28.7541 -180 0 0 0 592.75 A6.32866 6.32866 0 0 1 3.1 595.28 Z"
							class="st34"/>
				</g>
				<g id="shape161-334" v:mID="161" v:groupContext="shape" transform="translate(-3.59712E-14,-2.01783)">
					<title>Sheet.161</title>
					<path d="M1.9 585.67 A40.9529 40.9529 -180 0 0 0 591.68 A17.9312 17.9312 -180 0 0 1.42 593.79 C1.83 594.31 2.22
								 594.79 2.68 595.28 A41.1363 41.1363 0 0 1 5.16 587.32 A6.32866 6.32866 0 0 1 1.9 585.67 Z"
							class="st34"/>
				</g>
				<g id="shape162-336" v:mID="162" v:groupContext="shape" transform="translate(0.0458599,-19.9949)">
					<title>Sheet.162</title>
					<path d="M4.1 593.23 A27.5159 27.5159 0 0 1 2.52 586.49 A18.6879 18.6879 -180 0 0 0 589.82 A29.0981 29.0981 -180
								 0 0 1.31 595.28 A6.16815 6.16815 0 0 1 4.1 593.23 Z" class="st35"/>
				</g>
				<g id="shape163-338" v:mID="163" v:groupContext="shape" transform="translate(0,-9.8828)">
					<title>Sheet.163</title>
					<ellipse cx="6.25987" cy="589.016" rx="6.25987" ry="6.25987" class="st36"/>
				</g>
				<g id="shape164-342" v:mID="164" v:groupContext="shape" transform="translate(7.40637,-4.17325)">
					<title>Sheet.164</title>
					<path d="M7.98 594.75 A4.0586 4.0586 0 0 1 9.22 591.84 A27.2408 27.2408 0 0 1 3.42 587.57 A6.2828 6.2828 0 0
								 1 0 589.47 A30.0382 30.0382 -180 0 0 3.32 592.41 A27.7911 27.7911 -180 0 0 8.03 595.28 A4.10446
								 4.10446 0 0 1 7.98 594.75 Z" class="st35"/>
				</g>
				<g id="shape165-344" v:mID="165" v:groupContext="shape" transform="translate(22.3338,-1.30701)">
					<title>Sheet.165</title>
					<path d="M7.5 592.36 A27.5159 27.5159 0 0 1 1.17 591.63 a0.940127 0.940127 0 0 1 -3.9968E-15 0.252229 A4.01274
								 4.01274 0 0 1 0 594.73 A31.3911 31.3911 -180 0 0 7.84 595.28 A18.8255 18.8255 -180 0 0 10.57 592.2
								 A26.3694 26.3694 0 0 1 7.5 592.36 Z" class="st35"/>
				</g>
				<g id="shape166-346" v:mID="166" v:groupContext="shape" transform="translate(15.3631,-0.619108)">
					<title>Sheet.166</title>
					<ellipse cx="4.08153" cy="591.194" rx="4.08153" ry="4.08153" class="st37"/>
				</g>
				<g id="shape167-350" v:mID="167" v:groupContext="shape" transform="translate(8.55287,-15.5694)">
					<title>Sheet.167</title>
					<path d="M15.91 595.28 A4.19618 4.19618 0 0 1 17.31 592.98 A58.4713 58.4713 0 0 1 7.09 583.49 A38.7745 38.7745
								 0 0 1 2.5 576.79 A17.5185 17.5185 -180 0 0 0 577.76 A41.5949 41.5949 -180 0 0 4.93 585.05 A60.6268
								 60.6268 -180 0 0 15.91 595.28 Z" class="st38"/>
				</g>
				<g id="shape168-352" v:mID="168" v:groupContext="shape" transform="translate(24.3975,-10.4561)">
					<title>Sheet.168</title>
					<ellipse cx="4.33376" cy="590.942" rx="4.33376" ry="4.33376" class="st37"/>
				</g>
				<g id="shape169-355" v:mID="169" v:groupContext="shape" transform="translate(31.4369,-9.37834)">
					<title>Sheet.169</title>
					<path d="M4.56 592.78 L3.76 592.39 L3.07 592.02 L2.94 592.02 L2.34 591.54 L2.18 591.54 L1.47 591.08 A4.03567
								 4.03567 0 0 1 0 593.19 C0.28 593.37 0.57 593.53 0.87 593.69 L1.05 593.81 L1.86 594.24 L3.83 595.28
								 A19.7885 19.7885 -180 0 0 4.49 592.73 L4.56 592.78 Z" class="st35"/>
				</g>
				<g id="shape170-357" v:mID="170" v:groupContext="shape" transform="translate(0,-9.8828)">
					<title>Sheet.170</title>
					<ellipse cx="6.25987" cy="589.016" rx="6.25987" ry="6.25987" class="st36"/>
				</g>
				<g id="shape171-360" v:mID="171" v:groupContext="shape" transform="translate(15.3631,-0.619108)">
					<title>Sheet.171</title>
					<ellipse cx="4.08153" cy="591.194" rx="4.08153" ry="4.08153" class="st37"/>
				</g>
			</g>
			<g id="shape172-363" v:mID="172" v:groupContext="shape">
				<title>Sheet.172</title>
				<desc>Web应用</desc>
				<v:textBlock v:margins="rect(4,4,4,4)"/>
				<v:textRect cx="45" cy="585.276" width="90" height="20"/>
				<rect x="0" y="575.276" width="90" height="20" class="st21"/>
				<text x="23.88" y="588.28" class="st22" v:langID="2052"><v:paragraph v:horizAlign="1"/><v:tabList/>Web应用</text>			</g>
			<g id="shape173-366" v:mID="173" v:groupContext="shape" transform="translate(5.19584E-13,-73.8631)">
				<title>Sheet.173</title>
				<desc>高级报表</desc>
				<v:textBlock v:margins="rect(4,4,4,4)"/>
				<v:textRect cx="45" cy="585.276" width="90" height="20"/>
				<rect x="0" y="575.276" width="90" height="20" class="st21"/>
				<text x="25" y="588.28" class="st22" v:langID="2052"><v:paragraph v:horizAlign="1"/><v:tabList/>高级报表</text>			</g>
		</g>
		<g id="shape174-369" v:mID="174" v:groupContext="shape" transform="translate(-2.55795E-13,-484)">
			<title>Sheet.174</title>
			<desc>计量表数据</desc>
			<v:textBlock v:margins="rect(4,4,4,4)"/>
			<v:textRect cx="45" cy="585.276" width="90" height="20"/>
			<rect x="0" y="575.276" width="90" height="20" class="st21"/>
			<text x="15" y="588.88" class="st39" v:langID="2052"><v:paragraph v:horizAlign="1"/><v:tabList/>计量表数据</text>		</g>
		<g id="shape175-372" v:mID="175" v:groupContext="shape" transform="translate(135,-484)">
			<title>Sheet.175</title>
			<desc>数据采集</desc>
			<v:textBlock v:margins="rect(4,4,4,4)"/>
			<v:textRect cx="50.625" cy="585.276" width="101.25" height="20"/>
			<rect x="0" y="575.276" width="101.25" height="20" class="st21"/>
			<text x="26.62" y="588.88" class="st39" v:langID="2052"><v:paragraph v:horizAlign="1"/><v:tabList/>数据采集</text>		</g>
		<g id="shape176-375" v:mID="176" v:groupContext="shape" transform="translate(262.5,-484)">
			<title>Sheet.176</title>
			<desc>数据清洗</desc>
			<v:textBlock v:margins="rect(4,4,4,4)"/>
			<v:textRect cx="50.625" cy="585.276" width="101.25" height="20"/>
			<rect x="0" y="575.276" width="101.25" height="20" class="st21"/>
			<text x="26.62" y="588.88" class="st39" v:langID="2052"><v:paragraph v:horizAlign="1"/><v:tabList/>数据清洗</text>		</g>
		<g id="shape177-378" v:mID="177" v:groupContext="shape" transform="translate(404.842,-475)">
			<title>Sheet.177</title>
			<desc>数据规范化</desc>
			<v:textBlock v:margins="rect(4,4,4,4)"/>
			<v:textRect cx="45" cy="585.276" width="90" height="20"/>
			<rect x="0" y="575.276" width="90" height="20" class="st21"/>
			<text x="17.5" y="588.58" class="st40" v:langID="2052"><v:paragraph v:horizAlign="1"/><v:tabList/>数据规范化</text>		</g>
		<g id="shape178-381" v:mID="178" v:groupContext="shape" transform="translate(510.592,-475)">
			<title>Sheet.178</title>
			<desc>数据汇总</desc>
			<v:textBlock v:margins="rect(4,4,4,4)"/>
			<v:textRect cx="45" cy="585.276" width="90" height="20"/>
			<rect x="0" y="575.276" width="90" height="20" class="st21"/>
			<text x="23" y="588.58" class="st40" v:langID="2052"><v:paragraph v:horizAlign="1"/><v:tabList/>数据汇总</text>		</g>
		<g id="shape179-384" v:mID="179" v:groupContext="shape" transform="translate(645.592,-479.25)">
			<title>Sheet.179</title>
			<desc>数据分析</desc>
			<v:textBlock v:margins="rect(4,4,4,4)"/>
			<v:textRect cx="35.22" cy="577.276" width="70.44" height="36"/>
			<rect x="0" y="559.276" width="70.44" height="36" class="st21"/>
			<text x="11.22" y="580.88" class="st39" v:langID="2052"><v:paragraph v:horizAlign="1"/><v:tabList/>数据分析</text>		</g>
		<g id="shape180-387" v:mID="180" v:groupContext="shape" transform="translate(756.78,-487.25)">
			<title>Sheet.180</title>
			<desc>数据可视化</desc>
			<v:textBlock v:margins="rect(4,4,4,4)"/>
			<v:textRect cx="35.22" cy="585.276" width="70.44" height="20"/>
			<rect x="0" y="575.276" width="70.44" height="20" class="st21"/>
			<text x="5.22" y="588.88" class="st39" v:langID="2052"><v:paragraph v:horizAlign="1"/><v:tabList/>数据可视化</text>		</g>
		<g id="shape181-390" v:mID="181" v:groupContext="shape" transform="translate(241.414,-524)">
			<title>Sheet.181</title>
			<desc>MyEMS能源管理系统数据流</desc>
			<v:textBlock v:margins="rect(4,4,4,4)"/>
			<v:textRect cx="172.586" cy="577.276" width="345.18" height="36"/>
			<rect x="0" y="559.276" width="345.172" height="36" class="st21"/>
			<text x="95.76" y="580.88" class="st39" v:langID="1033"><v:paragraph v:horizAlign="1"/><v:tabList/>MyEMS<tspan
						class="st41" v:langID="2052">能源管理系统数据流</tspan></text>		</g>
		<g id="shape182-394" v:mID="182" v:groupContext="shape" v:layerMember="0" transform="translate(546.75,-450)">
			<title>Dynamic connector.1197</title>
			<path d="M0 587.6 L0 587.24 L0 576.28 L-174.15 576.28 L-174.15 645.68" class="st42"/>
		</g>
		<g id="shape183-400" v:mID="183" v:groupContext="shape" v:layerMember="0" transform="translate(440.062,-270)">
			<title>Dynamic connector.1198</title>
			<path d="M0 602.96 L0 603.32 L0 618.53 L-68.81 618.53" class="st42"/>
		</g>
		<g id="shape184-405" v:mID="184" v:groupContext="shape" transform="translate(967.848,214.006) rotate(90.5516)">
			<title>Sheet.184</title>
			<path d="M0 595.28 L140.26 595.28" class="st44"/>
		</g>
		<g id="shape185-408" v:mID="185" v:groupContext="shape" transform="translate(109.65,-370.8)">
			<title>Circle.1094</title>
			<desc>1</desc>
			<v:userDefs>
				<v:ud v:nameU="visVersion" v:val="VT0(15):26"/>
			</v:userDefs>
			<v:textBlock v:margins="rect(4,4,4,4)"/>
			<v:textRect cx="12.6" cy="582.676" width="22.05" height="18.9"/>
			<path d="M0 582.68 A12.6 12.6 0 0 1 25.2 582.68 A12.6 12.6 0 1 1 0 582.68 Z" class="st45"/>
			<text x="9.21" y="585.98" class="st46" v:langID="1033"><v:paragraph v:horizAlign="1"/><v:tabList/>1</text>		</g>
		<g id="shape186-411" v:mID="186" v:groupContext="shape" v:layerMember="0" transform="translate(103.875,-423)">
			<title>Dynamic connector.1201</title>
			<path d="M0 595.28 L0 713.4 L-37.88 713.4" class="st44"/>
		</g>
		<g id="shape187-414" v:mID="187" v:groupContext="shape" v:layerMember="0" transform="translate(66.5652,-427.665)">
			<title>Dynamic connector.1202</title>
			<path d="M0 599.94 L37.31 599.94 L37.31 608.61" class="st44"/>
		</g>
		<g id="shape188-417" v:mID="188" v:groupContext="shape" transform="translate(103.875,-362.812)">
			<title>Sheet.188</title>
			<path d="M0 595.28 L28.71 595.28" class="st47"/>
		</g>
		<g id="shape189-423" v:mID="189" v:groupContext="shape" transform="translate(230.625,-362.813)">
			<title>Sheet.189</title>
			<path d="M0 595.28 L28.71 595.28" class="st47"/>
		</g>
		<g id="shape190-428" v:mID="190" v:groupContext="shape" transform="translate(358.312,-362.813)">
			<title>Sheet.190</title>
			<path d="M0 595.28 L4.9 595.28" class="st47"/>
		</g>
		<g id="shape191-433" v:mID="191" v:groupContext="shape" transform="translate(468.09,-331.875)">
			<title>Sheet.191</title>
			<path d="M0 595.28 L42.39 595.28" class="st47"/>
		</g>
		<g id="shape192-438" v:mID="192" v:groupContext="shape" v:layerMember="0" transform="translate(600.214,-416.25)">
			<title>Dynamic connector.1207</title>
			<path d="M0 595.28 L0 676.28 L-30.12 676.28" class="st44"/>
		</g>
		<g id="shape193-441" v:mID="193" v:groupContext="shape" v:layerMember="0" transform="translate(566.138,-420.735)">
			<title>Dynamic connector.1208</title>
			<path d="M0 599.79 L33.71 599.79 L33.71 608.76" class="st44"/>
		</g>
		<g id="shape194-444" v:mID="194" v:groupContext="shape" transform="translate(599.85,-362.813)">
			<title>Sheet.194</title>
			<path d="M0 595.28 L28.71 595.28" class="st47"/>
		</g>
		<g id="shape195-449" v:mID="195" v:groupContext="shape" transform="translate(726.341,-362.813)">
			<title>Sheet.195</title>
			<path d="M0 595.28 L12.62 595.28" class="st47"/>
		</g>
		<g id="shape196-454" v:mID="196" v:groupContext="shape" transform="translate(235.8,-374.4)">
			<title>Circle.1211</title>
			<desc>2</desc>
			<v:userDefs>
				<v:ud v:nameU="visVersion" v:val="VT0(15):26"/>
			</v:userDefs>
			<v:textBlock v:margins="rect(4,4,4,4)"/>
			<v:textRect cx="12.6" cy="582.676" width="22.05" height="18.9"/>
			<path d="M0 582.68 A12.6 12.6 0 0 1 25.2 582.68 A12.6 12.6 0 1 1 0 582.68 Z" class="st45"/>
			<text x="9.21" y="585.98" class="st46" v:langID="1033"><v:paragraph v:horizAlign="1"/><v:tabList/>2</text>		</g>
		<g id="shape197-457" v:mID="197" v:groupContext="shape" transform="translate(360,-374.4)">
			<title>Circle.1212</title>
			<desc>3</desc>
			<v:userDefs>
				<v:ud v:nameU="visVersion" v:val="VT0(15):26"/>
			</v:userDefs>
			<v:textBlock v:margins="rect(4,4,4,4)"/>
			<v:textRect cx="12.6" cy="582.676" width="22.05" height="18.9"/>
			<path d="M0 582.68 A12.6 12.6 0 0 1 25.2 582.68 A12.6 12.6 0 1 1 0 582.68 Z" class="st45"/>
			<text x="9.21" y="585.98" class="st46" v:langID="1033"><v:paragraph v:horizAlign="1"/><v:tabList/>3</text>		</g>
		<g id="shape198-460" v:mID="198" v:groupContext="shape" transform="translate(450.412,-342)">
			<title>Circle.1213</title>
			<desc>4</desc>
			<v:userDefs>
				<v:ud v:nameU="visVersion" v:val="VT0(15):26"/>
			</v:userDefs>
			<v:textBlock v:margins="rect(4,4,4,4)"/>
			<v:textRect cx="12.6" cy="582.676" width="22.05" height="18.9"/>
			<path d="M0 582.68 A12.6 12.6 0 0 1 25.2 582.68 A12.6 12.6 0 1 1 0 582.68 Z" class="st45"/>
			<text x="9.21" y="585.98" class="st46" v:langID="2052"><v:paragraph v:horizAlign="1"/><v:tabList/>4</text>		</g>
		<g id="shape199-463" v:mID="199" v:groupContext="shape" transform="translate(562.5,-423.3)">
			<title>Circle.1214</title>
			<desc>5</desc>
			<v:userDefs>
				<v:ud v:nameU="visVersion" v:val="VT0(15):26"/>
			</v:userDefs>
			<v:textBlock v:margins="rect(4,4,4,4)"/>
			<v:textRect cx="12.6" cy="582.676" width="22.05" height="18.9"/>
			<path d="M0 582.68 A12.6 12.6 0 0 1 25.2 582.68 A12.6 12.6 0 1 1 0 582.68 Z" class="st45"/>
			<text x="9.21" y="585.98" class="st46" v:langID="2052"><v:paragraph v:horizAlign="1"/><v:tabList/>5</text>		</g>
		<g id="shape200-466" v:mID="200" v:groupContext="shape" transform="translate(558,-342)">
			<title>Circle.1215</title>
			<desc>6</desc>
			<v:userDefs>
				<v:ud v:nameU="visVersion" v:val="VT0(15):26"/>
			</v:userDefs>
			<v:textBlock v:margins="rect(4,4,4,4)"/>
			<v:textRect cx="12.6" cy="582.676" width="22.05" height="18.9"/>
			<path d="M0 582.68 A12.6 12.6 0 0 1 25.2 582.68 A12.6 12.6 0 1 1 0 582.68 Z" class="st45"/>
			<text x="9.21" y="585.98" class="st46" v:langID="2052"><v:paragraph v:horizAlign="1"/><v:tabList/>6</text>		</g>
		<g id="shape201-469" v:mID="201" v:groupContext="shape" transform="translate(624.15,-463.5)">
			<title>Circle.1216</title>
			<desc>7</desc>
			<v:userDefs>
				<v:ud v:nameU="visVersion" v:val="VT0(15):26"/>
			</v:userDefs>
			<v:textBlock v:margins="rect(4,4,4,4)"/>
			<v:textRect cx="12.6" cy="582.676" width="22.05" height="18.9"/>
			<path d="M0 582.68 A12.6 12.6 0 0 1 25.2 582.68 A12.6 12.6 0 1 1 0 582.68 Z" class="st45"/>
			<text x="9.21" y="585.98" class="st46" v:langID="2052"><v:paragraph v:horizAlign="1"/><v:tabList/>7</text>		</g>
		<g id="shape202-472" v:mID="202" v:groupContext="shape" transform="translate(443.25,-449)">
			<title>Sheet.202</title>
			<desc>实时处理</desc>
			<v:textBlock v:margins="rect(4,4,4,4)"/>
			<v:textRect cx="26.5312" cy="585.276" width="53.07" height="20"/>
			<rect x="0" y="575.276" width="53.0623" height="20" class="st21"/>
			<text x="8.53" y="587.98" class="st48" v:langID="2052"><v:paragraph v:horizAlign="1"/><v:tabList/>实时处理</text>		</g>
		<g id="shape203-475" v:mID="203" v:groupContext="shape" transform="translate(424.905,-243.9)">
			<title>Sheet.203</title>
			<desc>批处理</desc>
			<v:textBlock v:margins="rect(4,4,4,4)"/>
			<v:textRect cx="35.22" cy="585.276" width="70.44" height="20"/>
			<rect x="0" y="575.276" width="70.44" height="20" class="st21"/>
			<text x="21.72" y="587.98" class="st48" v:langID="2052"><v:paragraph v:horizAlign="1"/><v:tabList/>批处理</text>		</g>
		<g id="shape205-478" v:mID="205" v:groupContext="shape" transform="translate(734.4,-464.4)">
			<title>Circle.205</title>
			<desc>8</desc>
			<v:userDefs>
				<v:ud v:nameU="visVersion" v:val="VT0(15):26"/>
			</v:userDefs>
			<v:textBlock v:margins="rect(4,4,4,4)"/>
			<v:textRect cx="12.6" cy="582.676" width="22.05" height="18.9"/>
			<path d="M0 582.68 A12.6 12.6 0 0 1 25.2 582.68 A12.6 12.6 0 1 1 0 582.68 Z" class="st45"/>
			<text x="9.21" y="585.98" class="st46" v:langID="2052"><v:paragraph v:horizAlign="1"/><v:tabList/>8</text>		</g>
		<g id="group206-481" transform="translate(297,-282.131)" v:mID="206" v:groupContext="group">
			<title>Icon-databases-130.206</title>
			<g id="shape207-482" v:mID="207" v:groupContext="shape">
				<title>Sheet.207</title>
				<path d="M18 560.57 C8.06 560.57 0 557.76 0 554.05 L0 588.76 C0 592.33 7.92 595.22 17.75 595.28 L18 595.28 C27.94
							 595.28 36 592.47 36 588.76 L36 554.05 C36 557.67 27.94 560.57 18 560.57 Z" class="st11"/>
			</g>
			<g id="shape208-485" v:mID="208" v:groupContext="shape" transform="translate(0,-34.7083)">
				<title>Sheet.208</title>
				<path d="M36 588.76 C36 592.38 27.94 595.28 18 595.28 C8.06 595.28 0 592.47 0 588.76 C0 585.05 8.06 582.25 18 582.25
							 C27.94 582.25 36 585.05 36 588.76 Z" class="st12"/>
			</g>
			<g id="shape209-487" v:mID="209" v:groupContext="shape" transform="translate(4.18409,-37.6006)">
				<title>Sheet.209</title>
				<path d="M27.63 591.12 C27.63 593.42 21.43 595.28 13.82 595.28 C6.21 595.28 0 593.42 0 591.12 C0 588.82 6.21 586.99
							 13.82 586.99 C21.43 586.99 27.63 588.85 27.63 591.12 Z" class="st9"/>
			</g>
			<g id="shape210-489" v:mID="210" v:groupContext="shape" transform="translate(7.07644,-37.6006)">
				<title>Sheet.210</title>
				<path d="M10.92 592.16 A32.4337 32.4337 -180 0 0 -0 593.76 A32.0686 32.0686 -180 0 0 10.92 595.28 A31.3105 31.3105
							 -180 0 0 21.85 593.65 A33.248 33.248 -180 0 0 10.92 592.16 Z" class="st13"/>
			</g>
			<g id="shape211-491" v:mID="211" v:groupContext="shape" transform="translate(4.49298,-12.131)">
				<title>Sheet.211</title>
				<path d="M24.46 590.28 L24.46 580.73 L21.93 580.73 L21.93 592.33 L28.84 592.33 L28.84 590.28 L24.46 590.28 ZM4.41
							 585.59 A5.13885 5.13885 0 0 1 2.98 584.72 A1.23557 1.23557 0 0 1 2.64 583.82 a0.954758 0.954758 0 0
							 1 0.421217 -0.842434 A1.90952 1.90952 0 0 1 4.24 582.64 A4.54914 4.54914 0 0 1 7.05 583.45 L7.05 581.04
							 A7.24493 7.24493 -180 0 0 4.24 580.59 A4.6053 4.6053 -180 0 0 1.18 581.54 A3.03276 3.03276 -180 0 0
							 0 584.04 C0 585.48 0.9 586.6 2.81 587.44 A8.08736 8.08736 0 0 1 4.55 588.45 A1.17941 1.17941 0 0 1 4.97
							 589.35 A1.06708 1.06708 0 0 1 4.52 590.22 A2.27457 2.27457 0 0 1 3.26 590.53 A4.66147 4.66147 0 0 1
							 0.2 589.35 L0.2 591.96 A6.0936 6.0936 -180 0 0 3.2 592.64 A5.27925 5.27925 -180 0 0 6.51 591.71 A3.03276
							 3.03276 -180 0 0 7.44 589.15 A2.94852 2.94852 -180 0 0 6.74 587.19 A6.79563 6.79563 -180 0 0 4.41 585.59
							 ZM19.12 590.05 A6.57098 6.57098 -180 0 0 20.05 586.51 A6.51482 6.51482 -180 0 0 19.12 583.54 A5.08268
							 5.08268 -180 0 0 17.16 581.43 A5.61622 5.61622 -180 0 0 14.35 580.7 A5.92512 5.92512 -180 0 0 11.32
							 581.46 A5.22309 5.22309 -180 0 0 9.27 583.54 A6.90796 6.90796 -180 0 0 8.54 586.74 A6.34633 6.34633
							 -180 0 0 9.21 589.55 A4.94228 4.94228 -180 0 0 11.15 591.63 A5.78471 5.78471 -180 0 0 13.96 592.47 L16.37
							 595.28 L19.77 595.28 L16.32 592.19 A5.02652 5.02652 -180 0 0 19.12 590.05 ZM16.32 589.35 A2.63963 2.63963
							 0 0 1 14.18 590.33 A2.58346 2.58346 0 0 1 12.05 589.32 A4.26833 4.26833 0 0 1 11.23 586.51 A4.29641
							 4.29641 0 0 1 12.05 583.71 A2.80811 2.80811 0 0 1 14.24 582.67 A2.44306 2.44306 0 0 1 16.34 583.71 A4.54914
							 4.54914 0 0 1 17.1 586.51 A4.09984 4.09984 0 0 1 16.32 589.35 Z" class="st14"/>
			</g>
		</g>
	</g>
</svg>
