<?xml version="1.0" encoding="UTF-8" standalone="no"?>
<!DOCTYPE svg PUBLIC "-//W3C//DTD SVG 1.1//EN" "http://www.w3.org/Graphics/SVG/1.1/DTD/svg11.dtd">
<!-- Generated by Microsoft Visio, SVG Export data-flow.svg Page-1 -->
<svg xmlns="http://www.w3.org/2000/svg" xmlns:xlink="http://www.w3.org/1999/xlink" xmlns:ev="http://www.w3.org/2001/xml-events"
		xmlns:v="http://schemas.microsoft.com/visio/2003/SVGExtensions/" width="11.7747in" height="4.54167in"
		viewBox="0 0 847.78 327" xml:space="preserve" color-interpolation-filters="sRGB" class="st49">
	<v:documentProperties v:langID="2052" v:viewMarkup="false"/>

	<style type="text/css">
	<![CDATA[
		.st1 {fill:#0078d4;stroke:none;stroke-linecap:butt;stroke-width:12.75}
		.st2 {fill:#50e6ff;stroke:none;stroke-linecap:butt;stroke-width:12.75}
		.st3 {fill:#005ba1;stroke:none;stroke-linecap:butt;stroke-width:0.75}
		.st4 {fill:#ffffff;stroke:none;stroke-linecap:butt;stroke-width:0.75}
		.st5 {fill:#1ac3f2;stroke:none;stroke-linecap:butt;stroke-width:0.75}
		.st6 {fill:url(#grad0-85);stroke:none;stroke-linecap:butt;stroke-width:0.75}
		.st7 {fill:#0078d4;stroke:none;stroke-linecap:butt;stroke-width:0.75}
		.st8 {fill:url(#grad0-94);stroke:none;stroke-linecap:butt;stroke-width:0.75}
		.st9 {fill:#50e6ff;stroke:none;stroke-linecap:butt;stroke-width:0.75}
		.st10 {fill:url(#grad0-100);stroke:none;stroke-linecap:butt;stroke-width:0.75}
		.st11 {fill:url(#grad0-105);stroke:none;stroke-linecap:butt;stroke-width:0.75}
		.st12 {fill:#e8e8e8;stroke:none;stroke-linecap:butt;stroke-width:0.75}
		.st13 {fill:#198ab3;stroke:none;stroke-linecap:butt;stroke-width:0.75}
		.st14 {fill:url(#grad3-115);stroke:none;stroke-linecap:butt;stroke-width:0.75}
		.st15 {fill:none;stroke:#000000;stroke-dasharray:5.25,3.75;stroke-width:0.75}
		.st16 {fill:url(#grad0-127);stroke:none;stroke-linecap:butt;stroke-width:0.75}
		.st17 {fill:#eaeaea;stroke:none;stroke-linecap:butt;stroke-width:0.75}
		.st18 {fill:#cc271f;stroke:none;stroke-linecap:butt;stroke-width:10.2}
		.st19 {fill:#e63118;stroke:none;stroke-linecap:butt;stroke-width:10.2}
		.st20 {fill:#f65b23;stroke:none;stroke-linecap:butt;stroke-width:10.2}
		.st21 {fill:none;stroke:none;stroke-width:0.25}
		.st22 {fill:#000000;font-family:Microsoft YaHei UI;font-size:0.833336em}
		.st23 {font-size:1em}
		.st24 {fill:url(#grad0-193);stroke:none;stroke-linecap:butt;stroke-width:0.75}
		.st25 {fill:#32bedd;stroke:none;stroke-linecap:butt;stroke-width:0.75}
		.st26 {fill:url(#grad0-227);stroke:none;stroke-linecap:butt;stroke-width:0.75}
		.st27 {fill:none;stroke:none;stroke-linecap:butt;stroke-width:0.75}
		.st28 {fill:#341a6e;stroke:none;stroke-linecap:butt;stroke-width:0.75}
		.st29 {fill:url(#grad0-323);stroke:none;stroke-linecap:butt;stroke-width:0.75}
		.st30 {fill:#000000;fill-opacity:0.2;stroke:none;stroke-linecap:butt;stroke-width:0.75}
		.st31 {fill:#000000;fill-opacity:0.18;stroke:none;stroke-linecap:butt;stroke-width:0.75}
		.st32 {fill:url(#grad0-331);stroke:none;stroke-linecap:butt;stroke-width:0.75}
		.st33 {fill:url(#grad0-335);stroke:none;stroke-linecap:butt;stroke-width:0.75}
		.st34 {fill:url(#grad7-340);stroke:none;stroke-linecap:butt;stroke-width:0.75}
		.st35 {fill:#ffffff;fill-opacity:0.6;stroke:none;stroke-linecap:butt;stroke-width:0.75}
		.st36 {fill:#f2f2f2;fill-opacity:0.55;stroke:none;stroke-linecap:butt;stroke-width:0.75}
		.st37 {fill:url(#grad0-350);stroke:none;stroke-linecap:butt;stroke-width:0.75}
		.st38 {fill:url(#grad0-358);stroke:none;stroke-linecap:butt;stroke-width:0.75}
		.st39 {fill:#f2f2f2;fill-opacity:0.7;stroke:none;stroke-linecap:butt;stroke-width:0.75}
		.st40 {fill:#000000;font-family:Microsoft YaHei UI;font-size:1.00001em;font-weight:bold}
		.st41 {fill:#000000;font-family:Microsoft YaHei UI;font-size:0.916672em;font-weight:bold}
		.st42 {marker-start:url(#mrkr4-413);stroke:#000000;stroke-linecap:round;stroke-linejoin:round;stroke-width:1.5}
		.st43 {fill:#000000;fill-opacity:1;stroke:#000000;stroke-opacity:1;stroke-width:0.37313432835821}
		.st44 {stroke:#000000;stroke-linecap:round;stroke-linejoin:round;stroke-width:1.5}
		.st45 {fill:#107c10;stroke:none;stroke-width:0.75}
		.st46 {fill:#ffffff;font-family:Microsoft YaHei UI;font-size:0.916672em;font-weight:bold}
		.st47 {marker-end:url(#mrkr4-436);stroke:#000000;stroke-linecap:round;stroke-linejoin:round;stroke-width:1.5}
		.st48 {fill:#000000;font-family:Microsoft YaHei UI;font-size:0.75em;font-style:italic}
		.st49 {fill:none;fill-rule:evenodd;font-size:12px;overflow:visible;stroke-linecap:square;stroke-miterlimit:3}
	]]>
	</style>

	<defs id="Patterns_And_Gradients">
		<linearGradient id="grad0-85" x1="0" y1="0" x2="1" y2="0" gradientTransform="rotate(91.040618821164 0.5 0.5)">
			<stop offset="0" stop-color="#32d4f5" stop-opacity="1"/>
			<stop offset="0.23" stop-color="#31d0f1" stop-opacity="1"/>
			<stop offset="0.46" stop-color="#2cc3e6" stop-opacity="1"/>
			<stop offset="0.7" stop-color="#25afd4" stop-opacity="1"/>
			<stop offset="0.94" stop-color="#1c92ba" stop-opacity="1"/>
			<stop offset="1" stop-color="#198ab3" stop-opacity="1"/>
		</linearGradient>
		<linearGradient id="grad0-94" x1="0" y1="0" x2="1" y2="0" gradientTransform="rotate(-90 0.5 0.5)">
			<stop offset="0.2" stop-color="#005ba1" stop-opacity="1"/>
			<stop offset="1" stop-color="#0078d4" stop-opacity="1"/>
		</linearGradient>
		<linearGradient id="grad0-100" x1="0" y1="0" x2="1" y2="0" gradientTransform="rotate(-90 0.5 0.5)">
			<stop offset="0" stop-color="#198ab3" stop-opacity="1"/>
			<stop offset="0.17" stop-color="#32bedd" stop-opacity="1"/>
			<stop offset="0.5" stop-color="#50e6ff" stop-opacity="1"/>
			<stop offset="0.5" stop-color="#4fe4fd" stop-opacity="1"/>
			<stop offset="0.5" stop-color="#4bddf8" stop-opacity="1"/>
			<stop offset="0.5" stop-color="#44d2ee" stop-opacity="1"/>
			<stop offset="0.5" stop-color="#3ac1e0" stop-opacity="1"/>
			<stop offset="0.5" stop-color="#2dabce" stop-opacity="1"/>
			<stop offset="0.5" stop-color="#1d90b8" stop-opacity="1"/>
			<stop offset="0.5" stop-color="#198ab3" stop-opacity="1"/>
			<stop offset="0.66" stop-color="#32bedd" stop-opacity="1"/>
			<stop offset="0.975" stop-color="#50e6ff" stop-opacity="1"/>
		</linearGradient>
		<linearGradient id="grad0-105" x1="0" y1="0" x2="1" y2="0" gradientTransform="rotate(0 0.5 0.5)">
			<stop offset="0" stop-color="#005ba1" stop-opacity="1"/>
			<stop offset="0.07" stop-color="#0060a9" stop-opacity="1"/>
			<stop offset="0.36" stop-color="#0071c8" stop-opacity="1"/>
			<stop offset="0.52" stop-color="#0078d4" stop-opacity="1"/>
			<stop offset="0.64" stop-color="#0074cd" stop-opacity="1"/>
			<stop offset="0.82" stop-color="#006abb" stop-opacity="1"/>
			<stop offset="1" stop-color="#005ba1" stop-opacity="1"/>
		</linearGradient>
		<radialGradient id="grad3-115" cx="0.5" cy="0.5" r="0.73">
			<stop offset="0" stop-color="#f2f2f2" stop-opacity="1"/>
			<stop offset="0.58" stop-color="#eeeeee" stop-opacity="1"/>
			<stop offset="1" stop-color="#e6e6e6" stop-opacity="1"/>
		</radialGradient>
		<linearGradient id="grad0-127" x1="0" y1="0" x2="1" y2="0" gradientTransform="rotate(0 0.5 0.5)">
			<stop offset="0" stop-color="#005ba1" stop-opacity="1"/>
			<stop offset="0.07" stop-color="#0060a9" stop-opacity="1"/>
			<stop offset="0.36" stop-color="#0071c8" stop-opacity="1"/>
			<stop offset="0.52" stop-color="#0078d4" stop-opacity="1"/>
			<stop offset="0.64" stop-color="#0074cd" stop-opacity="1"/>
			<stop offset="0.81" stop-color="#006abb" stop-opacity="1"/>
			<stop offset="0.99" stop-color="#005ba1" stop-opacity="1"/>
		</linearGradient>
		<linearGradient id="grad0-193" x1="0" y1="0" x2="1" y2="0" gradientTransform="rotate(0 0.5 0.5)">
			<stop offset="0" stop-color="#50c7e8" stop-opacity="1"/>
			<stop offset="0.25" stop-color="#4cc3e4" stop-opacity="1"/>
			<stop offset="0.51" stop-color="#41b6da" stop-opacity="1"/>
			<stop offset="0.77" stop-color="#2fa2c8" stop-opacity="1"/>
			<stop offset="1" stop-color="#1989b2" stop-opacity="1"/>
		</linearGradient>
		<linearGradient id="grad0-227" x1="0" y1="0" x2="1" y2="0" gradientTransform="rotate(0 0.5 0.5)">
			<stop offset="0" stop-color="#b77af4" stop-opacity="1"/>
			<stop offset="1" stop-color="#773adc" stop-opacity="1"/>
		</linearGradient>
		<linearGradient id="grad0-323" x1="0" y1="0" x2="1" y2="0" gradientTransform="rotate(35.2432185142 0.5 0.5)">
			<stop offset="0" stop-color="#e6ad10" stop-opacity="1"/>
			<stop offset="1" stop-color="#c87e0e" stop-opacity="1"/>
		</linearGradient>
		<linearGradient id="grad0-331" x1="0" y1="0" x2="1" y2="0" gradientTransform="rotate(40.759716433349 0.5 0.5)">
			<stop offset="0" stop-color="#f6d751" stop-opacity="1"/>
			<stop offset="1" stop-color="#e6ad10" stop-opacity="1"/>
		</linearGradient>
		<linearGradient id="grad0-335" x1="0" y1="0" x2="1" y2="0" gradientTransform="rotate(57.669552439706 0.5 0.5)">
			<stop offset="0" stop-color="#f9e589" stop-opacity="1"/>
			<stop offset="1" stop-color="#f6d751" stop-opacity="1"/>
		</linearGradient>
		<radialGradient id="grad7-340" cx="0" cy="0" r="1.4">
			<stop offset="0.18" stop-color="#5ea0ef" stop-opacity="1"/>
			<stop offset="1" stop-color="#0078d4" stop-opacity="1"/>
		</radialGradient>
		<linearGradient id="grad0-350" x1="0" y1="0" x2="1" y2="0" gradientTransform="rotate(-90.435149452297 0.5 0.5)">
			<stop offset="0" stop-color="#cccccc" stop-opacity="1"/>
			<stop offset="1" stop-color="#fcfcfc" stop-opacity="1"/>
		</linearGradient>
		<linearGradient id="grad0-358" x1="0" y1="0" x2="1" y2="0" gradientTransform="rotate(-90 0.5 0.5)">
			<stop offset="0" stop-color="#cccccc" stop-opacity="1"/>
			<stop offset="1" stop-color="#fcfcfc" stop-opacity="1"/>
		</linearGradient>
	</defs>
	<defs id="Markers">
		<g id="lend4">
			<path d="M 2 1 L 0 0 L 2 -1 L 2 1 " style="stroke:none"/>
		</g>
		<marker id="mrkr4-413" class="st43" v:arrowType="4" v:arrowSize="2" v:setback="5.12" refX="5.12" orient="auto"
				markerUnits="strokeWidth" overflow="visible">
			<use xlink:href="#lend4" transform="scale(2.68) "/>
		</marker>
		<marker id="mrkr4-436" class="st43" v:arrowType="4" v:arrowSize="2" v:setback="5.36" refX="-5.36" orient="auto"
				markerUnits="strokeWidth" overflow="visible">
			<use xlink:href="#lend4" transform="scale(-2.68,-2.68) "/>
		</marker>
	</defs>
	<g v:mID="0" v:index="1" v:groupContext="foregroundPage">
		<title>Page-1</title>
		<v:pageProperties v:drawingScale="1" v:pageScale="1" v:drawingUnits="19" v:shadowOffsetX="9" v:shadowOffsetY="-9"/>
		<v:layer v:name="Connector" v:index="0"/>
		<g id="group1-1" transform="translate(27.75,-175.021)" v:mID="1" v:groupContext="group">
			<title>Sheet.1</title>
			<g id="shape2-2" v:mID="2" v:groupContext="shape" transform="translate(17.6169,-19.0366)">
				<title>Sheet.2</title>
				<path d="M5.45 321.98 C5.33 320.52 4.11 319.37 2.69 319.37 C1.2 319.37 0 320.57 0 322.05 L0 324.23 C0 325.66 1.15
							 326.87 2.69 327 C4.19 327 5.45 325.73 5.45 324.23 L5.45 321.98 ZM3.77 324.23 C3.77 324.87 3.19 325.32
							 2.75 325.32 C2.15 325.27 1.67 324.78 1.67 324.23 L1.67 322.05 C1.67 321.51 2.13 321.05 2.68 321.05 C3.23
							 321.05 3.72 321.53 3.77 322.05 L3.77 324.23 Z" class="st1"/>
			</g>
			<g id="shape3-4" v:mID="3" v:groupContext="shape" transform="translate(12.9353,-19.0052)">
				<title>Sheet.3</title>
				<path d="M0.94 327 C0.42 327 0 326.58 0 326.06 L0 320.33 C0 319.81 0.42 319.39 0.94 319.39 C1.46 319.39 1.89 319.81
							 1.89 320.33 L1.89 326.05 C1.89 326.58 1.46 327 0.94 327 Z" class="st2"/>
			</g>
			<g id="shape4-6" v:mID="4" v:groupContext="shape" transform="translate(4.68789,-19.0366)">
				<title>Sheet.4</title>
				<path d="M5.45 321.98 C5.33 320.52 4.11 319.37 2.69 319.37 C1.2 319.37 0 320.57 0 322.05 L0 324.23 C0 325.66 1.15
							 326.87 2.69 327 C4.19 327 5.45 325.73 5.45 324.23 L5.45 321.98 ZM3.78 324.23 C3.78 324.87 3.2 325.32
							 2.76 325.32 C2.16 325.27 1.68 324.78 1.68 324.23 L1.68 322.05 C1.68 321.51 2.14 321.05 2.69 321.05 C3.24
							 321.05 3.73 321.53 3.78 322.05 L3.78 324.23 Z" class="st1"/>
			</g>
			<g id="shape5-8" v:mID="5" v:groupContext="shape" transform="translate(1.79856E-14,-19.0052)">
				<title>Sheet.5</title>
				<path d="M0.95 327 C0.43 327 0.01 326.58 0.01 326.06 L0.01 320.33 C0 319.81 0.42 319.39 0.95 319.39 C1.47 319.39
							 1.89 319.81 1.89 320.33 L1.89 326.05 C1.89 326.58 1.47 327 0.95 327 Z" class="st2"/>
			</g>
			<g id="shape6-10" v:mID="6" v:groupContext="shape" transform="translate(30.5459,-19.0366)">
				<title>Sheet.6</title>
				<path d="M5.45 321.98 C5.33 320.52 4.11 319.37 2.69 319.37 C1.2 319.37 0 320.57 0 322.05 L0 324.23 C0 325.66 1.15
							 326.87 2.69 327 C4.19 327 5.45 325.73 5.45 324.23 L5.45 321.98 ZM3.77 324.23 C3.77 324.87 3.19 325.32
							 2.75 325.32 C2.15 325.27 1.67 324.78 1.67 324.23 L1.67 322.05 C1.67 321.51 2.13 321.05 2.68 321.05 C3.23
							 321.05 3.72 321.53 3.77 322.05 L3.77 324.23 Z" class="st1"/>
			</g>
			<g id="shape7-12" v:mID="7" v:groupContext="shape" transform="translate(25.8581,-19.0052)">
				<title>Sheet.7</title>
				<path d="M0.94 327 C0.42 327 0 326.58 0 326.06 L0 320.33 C0 319.81 0.42 319.39 0.94 319.39 C1.46 319.39 1.89 319.81
							 1.89 320.33 L1.89 326.05 C1.89 326.58 1.47 327 0.94 327 Z" class="st2"/>
			</g>
			<g id="shape8-14" v:mID="8" v:groupContext="shape" transform="translate(17.6169,-0.0304655)">
				<title>Sheet.8</title>
				<path d="M5.45 321.98 C5.33 320.52 4.11 319.37 2.69 319.37 C1.2 319.37 0 320.57 0 322.05 L0 324.23 C0 325.66 1.15
							 326.87 2.69 327 C4.19 327 5.45 325.73 5.45 324.23 L5.45 321.98 ZM3.77 324.23 C3.77 324.87 3.19 325.32
							 2.75 325.32 C2.15 325.27 1.67 324.78 1.67 324.23 L1.67 322.05 C1.67 321.51 2.13 321.05 2.68 321.05 C3.23
							 321.05 3.72 321.53 3.77 322.05 L3.77 324.23 Z" class="st1"/>
			</g>
			<g id="shape9-16" v:mID="9" v:groupContext="shape" transform="translate(12.9353,0)">
				<title>Sheet.9</title>
				<path d="M0.94 327 C0.42 327 0 326.58 0 326.06 L0 320.34 C0 319.82 0.42 319.39 0.94 319.39 C1.46 319.39 1.89 319.82
							 1.89 320.34 L1.89 326.06 C1.89 326.58 1.46 327 0.94 327 Z" class="st2"/>
			</g>
			<g id="shape10-18" v:mID="10" v:groupContext="shape" transform="translate(4.68789,-0.0304655)">
				<title>Sheet.10</title>
				<path d="M5.45 321.98 C5.33 320.52 4.11 319.37 2.69 319.37 C1.2 319.37 0 320.57 0 322.05 L0 324.23 C0 325.66 1.15
							 326.87 2.69 327 C4.19 327 5.45 325.73 5.45 324.23 L5.45 321.98 ZM3.78 324.23 C3.78 324.87 3.2 325.32
							 2.76 325.32 C2.16 325.27 1.68 324.78 1.68 324.23 L1.68 322.05 C1.68 321.51 2.14 321.05 2.69 321.05 C3.24
							 321.05 3.73 321.53 3.78 322.05 L3.78 324.23 Z" class="st1"/>
			</g>
			<g id="shape11-20" v:mID="11" v:groupContext="shape" transform="translate(0.00663177,0)">
				<title>Sheet.11</title>
				<path d="M0.94 327 C0.42 327 0 326.58 0 326.06 L0 320.34 C0 319.82 0.42 319.39 0.94 319.39 C1.46 319.39 1.89 319.82
							 1.89 320.34 L1.89 326.06 C1.89 326.58 1.46 327 0.94 327 Z" class="st2"/>
			</g>
			<g id="shape12-22" v:mID="12" v:groupContext="shape" transform="translate(30.5459,-0.0304655)">
				<title>Sheet.12</title>
				<path d="M5.45 321.98 C5.33 320.52 4.11 319.37 2.69 319.37 C1.2 319.37 0 320.57 0 322.05 L0 324.23 C0 325.66 1.15
							 326.87 2.69 327 C4.19 327 5.45 325.73 5.45 324.23 L5.45 321.98 ZM3.77 324.23 C3.77 324.87 3.19 325.32
							 2.75 325.32 C2.15 325.27 1.67 324.78 1.67 324.23 L1.67 322.05 C1.67 321.51 2.13 321.05 2.68 321.05 C3.23
							 321.05 3.72 321.53 3.77 322.05 L3.77 324.23 Z" class="st1"/>
			</g>
			<g id="shape13-24" v:mID="13" v:groupContext="shape" transform="translate(25.8581,0)">
				<title>Sheet.13</title>
				<path d="M0.94 327 C0.42 327 0 326.58 0 326.06 L0 320.34 C0 319.82 0.42 319.39 0.94 319.39 C1.46 319.39 1.89 319.82
							 1.89 320.34 L1.89 326.06 C1.89 326.58 1.47 327 0.94 327 Z" class="st2"/>
			</g>
			<g id="shape14-26" v:mID="14" v:groupContext="shape" transform="translate(12.9294,-9.43933)">
				<title>Sheet.14</title>
				<path d="M0.01 324.38 C0.13 325.85 1.34 327 2.77 327 C4.25 327 5.45 325.8 5.45 324.31 L5.45 322.14 C5.45 320.71 4.31
							 319.49 2.77 319.37 C1.27 319.37 0 320.63 0 322.14 L0.01 324.38 ZM1.68 322.14 C1.68 321.5 2.26 321.05
							 2.7 321.05 C3.29 321.1 3.78 321.58 3.78 322.14 L3.78 324.31 C3.78 324.86 3.31 325.32 2.77 325.32 C2.22
							 325.32 1.72 324.84 1.68 324.31 L1.68 322.14 Z" class="st2"/>
			</g>
			<g id="shape15-28" v:mID="15" v:groupContext="shape" transform="translate(21.1768,-9.49696)">
				<title>Sheet.15</title>
				<path d="M0.94 319.39 C1.46 319.39 1.89 319.82 1.89 320.34 L1.89 326.06 C1.89 326.58 1.46 327 0.94 327 C0.42 327
							 0 326.58 0 326.06 L0 320.34 C0 319.82 0.42 319.39 0.94 319.39 Z" class="st1"/>
			</g>
			<g id="shape16-30" v:mID="16" v:groupContext="shape" transform="translate(25.8581,-9.43933)">
				<title>Sheet.16</title>
				<path d="M0.01 324.38 C0.13 325.85 1.34 327 2.77 327 C4.25 327 5.45 325.8 5.45 324.31 L5.45 322.14 C5.45 320.71 4.31
							 319.49 2.77 319.37 C1.27 319.37 0 320.63 0 322.14 L0.01 324.38 ZM1.68 322.14 C1.68 321.5 2.26 321.05
							 2.7 321.05 C3.29 321.1 3.78 321.58 3.78 322.14 L3.78 324.31 C3.78 324.86 3.31 325.32 2.77 325.32 C2.22
							 325.32 1.72 324.84 1.68 324.31 L1.68 322.14 Z" class="st2"/>
			</g>
			<g id="shape17-32" v:mID="17" v:groupContext="shape" transform="translate(34.1058,-9.49696)">
				<title>Sheet.17</title>
				<path d="M0.94 319.39 C1.46 319.39 1.89 319.82 1.89 320.34 L1.89 326.06 C1.89 326.58 1.46 327 0.94 327 C0.42 327
							 0 326.58 0 326.06 L0 320.34 C0 319.82 0.42 319.39 0.94 319.39 Z" class="st1"/>
			</g>
			<g id="shape18-34" v:mID="18" v:groupContext="shape" transform="translate(0.000387777,-9.43933)">
				<title>Sheet.18</title>
				<path d="M0.01 324.38 C0.13 325.85 1.34 327 2.77 327 C4.25 327 5.45 325.8 5.45 324.31 L5.45 322.14 C5.45 320.71 4.31
							 319.49 2.77 319.37 C1.27 319.37 0 320.63 0 322.14 L0.01 324.38 ZM1.68 322.14 C1.68 321.5 2.26 321.05
							 2.7 321.05 C3.29 321.1 3.78 321.58 3.78 322.14 L3.78 324.31 C3.78 324.86 3.31 325.32 2.77 325.32 C2.22
							 325.32 1.72 324.84 1.68 324.31 L1.68 322.14 Z" class="st2"/>
			</g>
			<g id="shape19-36" v:mID="19" v:groupContext="shape" transform="translate(8.24775,-9.49696)">
				<title>Sheet.19</title>
				<path d="M0.94 319.39 C1.46 319.39 1.89 319.82 1.89 320.34 L1.89 326.06 C1.89 326.58 1.46 327 0.94 327 C0.42 327
							 0 326.58 0 326.06 L0 320.34 C0 319.82 0.42 319.39 0.94 319.39 Z" class="st1"/>
			</g>
		</g>
		<g id="group20-38" transform="translate(27.75,-57)" v:mID="20" v:groupContext="group">
			<title>Sheet.20</title>
			<g id="shape21-39" v:mID="21" v:groupContext="shape" transform="translate(17.6169,-19.0366)">
				<title>Sheet.21</title>
				<path d="M5.45 321.98 C5.33 320.52 4.11 319.37 2.69 319.37 C1.2 319.37 0 320.57 0 322.05 L0 324.23 C0 325.66 1.15
							 326.87 2.69 327 C4.19 327 5.45 325.73 5.45 324.23 L5.45 321.98 ZM3.77 324.23 C3.77 324.87 3.19 325.32
							 2.75 325.32 C2.15 325.27 1.67 324.78 1.67 324.23 L1.67 322.05 C1.67 321.51 2.13 321.05 2.68 321.05 C3.23
							 321.05 3.72 321.53 3.77 322.05 L3.77 324.23 Z" class="st1"/>
			</g>
			<g id="shape22-41" v:mID="22" v:groupContext="shape" transform="translate(12.9353,-19.0052)">
				<title>Sheet.22</title>
				<path d="M0.94 327 C0.42 327 0 326.58 0 326.06 L0 320.33 C0 319.81 0.42 319.39 0.94 319.39 C1.46 319.39 1.89 319.81
							 1.89 320.33 L1.89 326.05 C1.89 326.58 1.46 327 0.94 327 Z" class="st2"/>
			</g>
			<g id="shape23-43" v:mID="23" v:groupContext="shape" transform="translate(4.68789,-19.0366)">
				<title>Sheet.23</title>
				<path d="M5.45 321.98 C5.33 320.52 4.11 319.37 2.69 319.37 C1.2 319.37 0 320.57 0 322.05 L0 324.23 C0 325.66 1.15
							 326.87 2.69 327 C4.19 327 5.45 325.73 5.45 324.23 L5.45 321.98 ZM3.78 324.23 C3.78 324.87 3.2 325.32
							 2.76 325.32 C2.16 325.27 1.68 324.78 1.68 324.23 L1.68 322.05 C1.68 321.51 2.14 321.05 2.69 321.05 C3.24
							 321.05 3.73 321.53 3.78 322.05 L3.78 324.23 Z" class="st1"/>
			</g>
			<g id="shape24-45" v:mID="24" v:groupContext="shape" transform="translate(1.79856E-14,-19.0052)">
				<title>Sheet.24</title>
				<path d="M0.95 327 C0.43 327 0.01 326.58 0.01 326.06 L0.01 320.33 C0 319.81 0.42 319.39 0.95 319.39 C1.47 319.39
							 1.89 319.81 1.89 320.33 L1.89 326.05 C1.89 326.58 1.47 327 0.95 327 Z" class="st2"/>
			</g>
			<g id="shape25-47" v:mID="25" v:groupContext="shape" transform="translate(30.5459,-19.0366)">
				<title>Sheet.25</title>
				<path d="M5.45 321.98 C5.33 320.52 4.11 319.37 2.69 319.37 C1.2 319.37 0 320.57 0 322.05 L0 324.23 C0 325.66 1.15
							 326.87 2.69 327 C4.19 327 5.45 325.73 5.45 324.23 L5.45 321.98 ZM3.77 324.23 C3.77 324.87 3.19 325.32
							 2.75 325.32 C2.15 325.27 1.67 324.78 1.67 324.23 L1.67 322.05 C1.67 321.51 2.13 321.05 2.68 321.05 C3.23
							 321.05 3.72 321.53 3.77 322.05 L3.77 324.23 Z" class="st1"/>
			</g>
			<g id="shape26-49" v:mID="26" v:groupContext="shape" transform="translate(25.8581,-19.0052)">
				<title>Sheet.26</title>
				<path d="M0.94 327 C0.42 327 0 326.58 0 326.06 L0 320.33 C0 319.81 0.42 319.39 0.94 319.39 C1.46 319.39 1.89 319.81
							 1.89 320.33 L1.89 326.05 C1.89 326.58 1.47 327 0.94 327 Z" class="st2"/>
			</g>
			<g id="shape27-51" v:mID="27" v:groupContext="shape" transform="translate(17.6169,-0.0304655)">
				<title>Sheet.27</title>
				<path d="M5.45 321.98 C5.33 320.52 4.11 319.37 2.69 319.37 C1.2 319.37 0 320.57 0 322.05 L0 324.23 C0 325.66 1.15
							 326.87 2.69 327 C4.19 327 5.45 325.73 5.45 324.23 L5.45 321.98 ZM3.77 324.23 C3.77 324.87 3.19 325.32
							 2.75 325.32 C2.15 325.27 1.67 324.78 1.67 324.23 L1.67 322.05 C1.67 321.51 2.13 321.05 2.68 321.05 C3.23
							 321.05 3.72 321.53 3.77 322.05 L3.77 324.23 Z" class="st1"/>
			</g>
			<g id="shape28-53" v:mID="28" v:groupContext="shape" transform="translate(12.9353,0)">
				<title>Sheet.28</title>
				<path d="M0.94 327 C0.42 327 0 326.58 0 326.06 L0 320.34 C0 319.82 0.42 319.39 0.94 319.39 C1.46 319.39 1.89 319.82
							 1.89 320.34 L1.89 326.06 C1.89 326.58 1.46 327 0.94 327 Z" class="st2"/>
			</g>
			<g id="shape29-55" v:mID="29" v:groupContext="shape" transform="translate(4.68789,-0.0304655)">
				<title>Sheet.29</title>
				<path d="M5.45 321.98 C5.33 320.52 4.11 319.37 2.69 319.37 C1.2 319.37 0 320.57 0 322.05 L0 324.23 C0 325.66 1.15
							 326.87 2.69 327 C4.19 327 5.45 325.73 5.45 324.23 L5.45 321.98 ZM3.78 324.23 C3.78 324.87 3.2 325.32
							 2.76 325.32 C2.16 325.27 1.68 324.78 1.68 324.23 L1.68 322.05 C1.68 321.51 2.14 321.05 2.69 321.05 C3.24
							 321.05 3.73 321.53 3.78 322.05 L3.78 324.23 Z" class="st1"/>
			</g>
			<g id="shape30-57" v:mID="30" v:groupContext="shape" transform="translate(0.00663177,0)">
				<title>Sheet.30</title>
				<path d="M0.94 327 C0.42 327 0 326.58 0 326.06 L0 320.34 C0 319.82 0.42 319.39 0.94 319.39 C1.46 319.39 1.89 319.82
							 1.89 320.34 L1.89 326.06 C1.89 326.58 1.46 327 0.94 327 Z" class="st2"/>
			</g>
			<g id="shape31-59" v:mID="31" v:groupContext="shape" transform="translate(30.5459,-0.0304655)">
				<title>Sheet.31</title>
				<path d="M5.45 321.98 C5.33 320.52 4.11 319.37 2.69 319.37 C1.2 319.37 0 320.57 0 322.05 L0 324.23 C0 325.66 1.15
							 326.87 2.69 327 C4.19 327 5.45 325.73 5.45 324.23 L5.45 321.98 ZM3.77 324.23 C3.77 324.87 3.19 325.32
							 2.75 325.32 C2.15 325.27 1.67 324.78 1.67 324.23 L1.67 322.05 C1.67 321.51 2.13 321.05 2.68 321.05 C3.23
							 321.05 3.72 321.53 3.77 322.05 L3.77 324.23 Z" class="st1"/>
			</g>
			<g id="shape32-61" v:mID="32" v:groupContext="shape" transform="translate(25.8581,0)">
				<title>Sheet.32</title>
				<path d="M0.94 327 C0.42 327 0 326.58 0 326.06 L0 320.34 C0 319.82 0.42 319.39 0.94 319.39 C1.46 319.39 1.89 319.82
							 1.89 320.34 L1.89 326.06 C1.89 326.58 1.47 327 0.94 327 Z" class="st2"/>
			</g>
			<g id="shape33-63" v:mID="33" v:groupContext="shape" transform="translate(12.9294,-9.43933)">
				<title>Sheet.33</title>
				<path d="M0.01 324.38 C0.13 325.85 1.34 327 2.77 327 C4.25 327 5.45 325.8 5.45 324.31 L5.45 322.14 C5.45 320.71 4.31
							 319.49 2.77 319.37 C1.27 319.37 0 320.63 0 322.14 L0.01 324.38 ZM1.68 322.14 C1.68 321.5 2.26 321.05
							 2.7 321.05 C3.29 321.1 3.78 321.58 3.78 322.14 L3.78 324.31 C3.78 324.86 3.31 325.32 2.77 325.32 C2.22
							 325.32 1.72 324.84 1.68 324.31 L1.68 322.14 Z" class="st2"/>
			</g>
			<g id="shape34-65" v:mID="34" v:groupContext="shape" transform="translate(21.1768,-9.49696)">
				<title>Sheet.34</title>
				<path d="M0.94 319.39 C1.46 319.39 1.89 319.82 1.89 320.34 L1.89 326.06 C1.89 326.58 1.46 327 0.94 327 C0.42 327
							 0 326.58 0 326.06 L0 320.34 C0 319.82 0.42 319.39 0.94 319.39 Z" class="st1"/>
			</g>
			<g id="shape35-67" v:mID="35" v:groupContext="shape" transform="translate(25.8581,-9.43933)">
				<title>Sheet.35</title>
				<path d="M0.01 324.38 C0.13 325.85 1.34 327 2.77 327 C4.25 327 5.45 325.8 5.45 324.31 L5.45 322.14 C5.45 320.71 4.31
							 319.49 2.77 319.37 C1.27 319.37 0 320.63 0 322.14 L0.01 324.38 ZM1.68 322.14 C1.68 321.5 2.26 321.05
							 2.7 321.05 C3.29 321.1 3.78 321.58 3.78 322.14 L3.78 324.31 C3.78 324.86 3.31 325.32 2.77 325.32 C2.22
							 325.32 1.72 324.84 1.68 324.31 L1.68 322.14 Z" class="st2"/>
			</g>
			<g id="shape36-69" v:mID="36" v:groupContext="shape" transform="translate(34.1058,-9.49696)">
				<title>Sheet.36</title>
				<path d="M0.94 319.39 C1.46 319.39 1.89 319.82 1.89 320.34 L1.89 326.06 C1.89 326.58 1.46 327 0.94 327 C0.42 327
							 0 326.58 0 326.06 L0 320.34 C0 319.82 0.42 319.39 0.94 319.39 Z" class="st1"/>
			</g>
			<g id="shape37-71" v:mID="37" v:groupContext="shape" transform="translate(0.000387777,-9.43933)">
				<title>Sheet.37</title>
				<path d="M0.01 324.38 C0.13 325.85 1.34 327 2.77 327 C4.25 327 5.45 325.8 5.45 324.31 L5.45 322.14 C5.45 320.71 4.31
							 319.49 2.77 319.37 C1.27 319.37 0 320.63 0 322.14 L0.01 324.38 ZM1.68 322.14 C1.68 321.5 2.26 321.05
							 2.7 321.05 C3.29 321.1 3.78 321.58 3.78 322.14 L3.78 324.31 C3.78 324.86 3.31 325.32 2.77 325.32 C2.22
							 325.32 1.72 324.84 1.68 324.31 L1.68 322.14 Z" class="st2"/>
			</g>
			<g id="shape38-73" v:mID="38" v:groupContext="shape" transform="translate(8.24775,-9.49696)">
				<title>Sheet.38</title>
				<path d="M0.94 319.39 C1.46 319.39 1.89 319.82 1.89 320.34 L1.89 326.06 C1.89 326.58 1.46 327 0.94 327 C0.42 327
							 0 326.58 0 326.06 L0 320.34 C0 319.82 0.42 319.39 0.94 319.39 Z" class="st1"/>
			</g>
		</g>
		<g id="group39-75" transform="translate(295.875,-190.679)" v:mID="39" v:groupContext="group">
			<title>Icon-storage-90</title>
			<g id="shape40-76" v:mID="40" v:groupContext="shape">
				<title>Sheet.40</title>
				<path d="M35.15 300.87 L19.46 300.87 a0.72 0.72 0 0 1 -0.465882 -0.148235 L14.51 297.73 a0.910588 0.910588 -180 0
							 0 -0.465882 -0.127059 L0.85 297.61 a0.847059 0.847059 -180 0 0 -0.847059 0.825882 L0 326.17 a0.847059
							 0.847059 -180 0 0 0.847059 0.825882 L35.15 327 a0.847059 0.847059 -180 0 0 0.847059 -0.825882 L36 301.72
							 a0.847059 0.847059 -180 0 0 -0.847059 -0.847059 Z" class="st3"/>
			</g>
			<g id="shape41-78" v:mID="41" v:groupContext="shape" transform="translate(3.28235,-26.1529)">
				<title>Sheet.41</title>
				<path d="M0 326.66 a0.338831 0.338831 -180 0 0 0.338824 0.338824 L7.84 327 a0.338831 0.338831 -180 0 0 0.338824 -0.338824
							 L8.17 325.71 a0.338831 0.338831 -180 0 0 -0.338824 -0.338824 L0.34 325.37 a0.338831 0.338831 -180 0
							 0 -0.338824 0.338824 L0 326.66 Z" class="st4"/>
			</g>
			<g id="shape42-80" v:mID="42" v:groupContext="shape" transform="translate(3.28235,-26.1529)">
				<title>Sheet.42</title>
				<path d="M0 326.77 a0.232947 0.232947 -180 0 0 0.232941 0.232941 L1.4 327 a0.232947 0.232947 -180 0 0 0.232941 -0.232941
							 L1.63 325.6 a0.232947 0.232947 -180 0 0 -0.232941 -0.232941 L0.23 325.37 a0.232947 0.232947 -180 0 0
							 -0.232941 0.232941 L0 326.77 Z" class="st5"/>
			</g>
			<g id="shape43-82" v:mID="43" v:groupContext="shape" transform="translate(0,-0.0847059)">
				<title>Sheet.43</title>
				<path d="M35.15 300.91 L18 300.91 a0.762353 0.762353 -180 0 0 -0.592941 0.254118 L14.55 303.92 a0.910588 0.910588
							 0 0 1 -0.592941 0.232941 L0.85 304.15 a0.847059 0.847059 -180 0 0 -0.847059 0.847059 L0 326.17 a0.847059
							 0.847059 -180 0 0 0.847059 0.825882 L35.15 327 a0.847059 0.847059 -180 0 0 0.847059 -0.825882 L36 301.8
							 a0.847059 0.847059 -180 0 0 -0.847059 -0.889412 Z" class="st6"/>
			</g>
			<g id="shape44-86" v:mID="44" v:groupContext="shape" transform="translate(13.317,-4.98425)">
				<title>Sheet.44</title>
				<path d="M7.18 310.3 a0.317647 0.317647 -180 0 0 -0.169412 -5.68434E-14 C7.01 310.3 6.82 310.3 6.74 310.45 L0.05
							 320.17 a0.338824 0.338824 -180 0 0 4.996E-15 0.338824 a0.402353 0.402353 -180 0 0 0.317647 0.211765
							 L4.32 320.72 L2.57 326.61 a0.275294 0.275294 -180 0 0 0.148235 0.381176 a0.211765 0.211765 -180 0 0
							 0.148235 0 C2.99 326.99 3.05 326.99 3.14 326.84 L10.04 316.97 C10.04 316.97 10.04 316.84 10.04 316.76
							 a0.36 0.36 -180 0 0 -0.36 -0.338824 L5.45 316.42 L7.16 310.64 a0.275294 0.275294 -180 0 0 0.0211765
							 -0.338824 Z" class="st4"/>
			</g>
		</g>
		<g id="group45-88" transform="translate(295.875,-113.476)" v:mID="45" v:groupContext="group">
			<title>Sheet.45</title>
			<g id="shape46-89" v:mID="46" v:groupContext="shape">
				<title>Sheet.46</title>
				<path d="M18 285.73 L0 296.02 L0 316.59 L18 327 L36 316.7 L36 296.07 L18 285.73 ZM32.68 314.55 L18 323.03 L3.32 314.64
							 L3.32 298.06 L18 289.58 L32.68 298.09 L32.68 314.55 Z" class="st7"/>
			</g>
			<g id="shape47-91" v:mID="47" v:groupContext="shape" transform="translate(0,-28.9376)">
				<title>Sheet.47</title>
				<path d="M18 314.66 L0 324.96 L3.32 327 L18 318.52 L32.68 327 L36 324.96 L18 314.66 Z" class="st8"/>
			</g>
			<g id="shape48-95" v:mID="48" v:groupContext="shape" transform="translate(5.64764,-5.15694)">
				<title>Sheet.48</title>
				<path d="M20.93 314.9 A1.67389 1.67389 -180 0 0 20.19 314.25 A13.3796 13.3796 -180 0 0 9.92 306.57 L24.77 297.99
							 L21.32 296.01 L4.4 305.79 A1.71975 1.71975 -180 0 0 5.27 309 A1.56841 1.56841 -180 0 0 5.47 308.94 L5.76
							 310.14 A9.90344 9.90344 0 0 1 16.85 315.28 L0 325.01 L3.44 327 L20.3 317.25 A1.67159 1.67159 -180 0
							 0 20.85 316.71 L21.03 316.67 C21.01 316.6 20.99 316.54 20.97 316.48 A1.68535 1.68535 -180 0 0 20.93
							 314.9 Z" class="st9"/>
			</g>
			<g id="shape49-97" v:mID="49" v:groupContext="shape" transform="translate(7.91278,-13.3655)">
				<title>Sheet.49</title>
				<path d="M17.17 319.76 A4.24204 4.24204 -180 1 0 21.42 324 A4.24204 4.24204 -180 0 0 17.17 319.76 ZM3 311.17 A4.24204
							 4.24204 -180 1 0 7.24 315.41 A4.24204 4.24204 -180 0 0 3 311.17 Z" class="st10"/>
			</g>
		</g>
		<g id="group50-101" transform="translate(423.75,-165.881)" v:mID="50" v:groupContext="group">
			<title>Icon-databases-130</title>
			<g id="shape51-102" v:mID="51" v:groupContext="shape">
				<title>Sheet.51</title>
				<path d="M18 292.29 C8.06 292.29 0 289.48 0 285.78 L0 320.49 C0 324.05 7.92 326.94 17.75 327 L18 327 C27.94 327 36
							 324.19 36 320.49 L36 285.78 C36 289.4 27.94 292.29 18 292.29 Z" class="st11"/>
			</g>
			<g id="shape52-106" v:mID="52" v:groupContext="shape" transform="translate(0,-34.7083)">
				<title>Sheet.52</title>
				<path d="M36 320.49 C36 324.11 27.94 327 18 327 C8.06 327 0 324.19 0 320.49 C0 316.78 8.06 313.97 18 313.97 C27.94
							 313.97 36 316.78 36 320.49 Z" class="st12"/>
			</g>
			<g id="shape53-108" v:mID="53" v:groupContext="shape" transform="translate(4.18409,-37.6006)">
				<title>Sheet.53</title>
				<path d="M27.63 322.84 C27.63 325.15 21.43 327 13.82 327 C6.21 327 0 325.15 0 322.84 C0 320.54 6.21 318.72 13.82
							 318.72 C21.43 318.72 27.63 320.57 27.63 322.84 Z" class="st9"/>
			</g>
			<g id="shape54-110" v:mID="54" v:groupContext="shape" transform="translate(7.07644,-37.6006)">
				<title>Sheet.54</title>
				<path d="M10.92 323.88 A32.4337 32.4337 -180 0 0 -0 325.48 A32.0686 32.0686 -180 0 0 10.92 327 A31.3105 31.3105 -180
							 0 0 21.85 325.37 A33.248 33.248 -180 0 0 10.92 323.88 Z" class="st13"/>
			</g>
			<g id="shape55-112" v:mID="55" v:groupContext="shape" transform="translate(4.49298,-12.131)">
				<title>Sheet.55</title>
				<path d="M24.46 322 L24.46 312.45 L21.93 312.45 L21.93 324.05 L28.84 324.05 L28.84 322 L24.46 322 ZM4.41 317.31 A5.13885
							 5.13885 0 0 1 2.98 316.44 A1.23557 1.23557 0 0 1 2.64 315.54 a0.954758 0.954758 0 0 1 0.421217 -0.842434
							 A1.90952 1.90952 0 0 1 4.24 314.36 A4.54914 4.54914 0 0 1 7.05 315.18 L7.05 312.76 A7.24493 7.24493
							 -180 0 0 4.24 312.31 A4.6053 4.6053 -180 0 0 1.18 313.27 A3.03276 3.03276 -180 0 0 0 315.77 C0 317.2
							 0.9 318.32 2.81 319.17 A8.08736 8.08736 0 0 1 4.55 320.18 A1.17941 1.17941 0 0 1 4.97 321.07 A1.06708
							 1.06708 0 0 1 4.52 321.95 A2.27457 2.27457 0 0 1 3.26 322.25 A4.66147 4.66147 0 0 1 0.2 321.07 L0.2
							 323.69 A6.0936 6.0936 -180 0 0 3.2 324.36 A5.27925 5.27925 -180 0 0 6.51 323.43 A3.03276 3.03276 -180
							 0 0 7.44 320.88 A2.94852 2.94852 -180 0 0 6.74 318.91 A6.79563 6.79563 -180 0 0 4.41 317.31 ZM19.12
							 321.78 A6.57098 6.57098 -180 0 0 20.05 318.24 A6.51482 6.51482 -180 0 0 19.12 315.26 A5.08268 5.08268
							 -180 0 0 17.16 313.16 A5.61622 5.61622 -180 0 0 14.35 312.43 A5.92512 5.92512 -180 0 0 11.32 313.18
							 A5.22309 5.22309 -180 0 0 9.27 315.26 A6.90796 6.90796 -180 0 0 8.54 318.46 A6.34633 6.34633 -180 0
							 0 9.21 321.27 A4.94228 4.94228 -180 0 0 11.15 323.35 A5.78471 5.78471 -180 0 0 13.96 324.19 L16.37 327
							 L19.77 327 L16.32 323.91 A5.02652 5.02652 -180 0 0 19.12 321.78 ZM16.32 321.07 A2.63963 2.63963 0 0
							 1 14.18 322.06 A2.58346 2.58346 0 0 1 12.05 321.05 A4.26833 4.26833 0 0 1 11.23 318.24 A4.29641 4.29641
							 0 0 1 12.05 315.43 A2.80811 2.80811 0 0 1 14.24 314.39 A2.44306 2.44306 0 0 1 16.34 315.43 A4.54914
							 4.54914 0 0 1 17.1 318.24 A4.09984 4.09984 0 0 1 16.32 321.07 Z" class="st14"/>
			</g>
		</g>
		<g id="shape56-116" v:mID="56" v:groupContext="shape" transform="translate(0.75,-15.375)">
			<title>Sheet.56</title>
			<path d="M0 327 L90 327 L90 98.63 L0 98.63 L0 327 Z" class="st15"/>
		</g>
		<g id="shape57-118" v:mID="57" v:groupContext="shape" transform="translate(141.375,-15.375)">
			<title>Sheet.57</title>
			<path d="M0 327 L90 327 L90 98.63 L0 98.63 L0 327 Z" class="st15"/>
		</g>
		<g id="group58-120" transform="translate(168.375,-170.356)" v:mID="58" v:groupContext="group">
			<title>Icon-databases-126</title>
			<g id="group59-121" v:mID="59" v:groupContext="group">
				<title>Sheet.59</title>
				<g id="shape60-122" v:mID="60" v:groupContext="shape" transform="translate(9.21176,0)">
					<title>Sheet.60</title>
					<path d="M17.79 312.13 L17.79 303.85 a0.296471 0.296471 -180 0 0 -0.508235 -0.211765 L8.81 312.11 L0 320.92 L0
								 327 L25.58 327 A1.18588 1.18588 -180 0 0 26.79 325.79 L26.79 303.85 a0.296471 0.296471 -180 0 0
								 -0.508235 -0.211765 L17.79 312.13 Z" class="st3"/>
				</g>
				<g id="shape61-124" v:mID="61" v:groupContext="shape">
					<title>Sheet.61</title>
					<path d="M9 297.52 C4.02 297.52 0 296.06 0 294.18 L0 306.18 L0 325.79 A1.18588 1.18588 -180 0 0 1.21 327 L18
								 327 L18 294.18 C18 296.06 13.98 297.52 9 297.52 Z" class="st16"/>
				</g>
				<g id="shape62-128" v:mID="62" v:groupContext="shape" transform="translate(26.28,-4.78588)">
					<title>Sheet.62</title>
					<path d="M0 326.41 a0.592955 0.592955 -180 0 0 0.592941 0.592941 L4.21 327 a0.592955 0.592955 -180 0 0 0.592941
								 -0.592941 L4.81 322.79 a0.592955 0.592955 -180 0 0 -0.592941 -0.592941 L0.59 322.19 a0.592955 0.592955
								 -180 0 0 -0.592941 0.592941 L0 326.41 Z" class="st4"/>
				</g>
				<g id="shape63-130" v:mID="63" v:groupContext="shape" transform="translate(17.9365,-4.78588)">
					<title>Sheet.63</title>
					<path d="M0 326.41 a0.592955 0.592955 -180 0 0 0.592941 0.592941 L4.21 327 a0.592955 0.592955 -180 0 0 0.592941
								 -0.592941 L4.81 322.79 a0.592955 0.592955 -180 0 0 -0.592941 -0.592941 L0.59 322.19 a0.592955 0.592955
								 -180 0 0 -0.592941 0.592941 L0 326.41 Z" class="st4"/>
				</g>
				<g id="shape64-132" v:mID="64" v:groupContext="shape" transform="translate(9.59294,-4.78588)">
					<title>Sheet.64</title>
					<path d="M0 326.41 a0.592955 0.592955 -180 0 0 0.592941 0.592941 L4.21 327 a0.592955 0.592955 -180 0 0 0.592941
								 -0.592941 L4.81 322.79 a0.592955 0.592955 -180 0 0 -0.592941 -0.592941 L0.59 322.19 a0.592955 0.592955
								 -180 0 0 -0.592941 0.592941 L0 326.41 Z" class="st4"/>
				</g>
				<g id="shape65-134" v:mID="65" v:groupContext="shape" transform="translate(0,-29.5624)">
					<title>Sheet.65</title>
					<path d="M18 323.74 C18 325.54 13.98 327 9 327 C4.02 327 0 325.62 0 323.74 C0 321.85 4.02 320.56 9 320.56 C13.98
								 320.56 18 322.02 18 323.74 Z" class="st17"/>
				</g>
				<g id="shape66-136" v:mID="66" v:groupContext="shape" transform="translate(2.07529,-30.8965)">
					<title>Sheet.66</title>
					<path d="M13.81 324.88 C13.81 326.05 10.72 327 6.9 327 C3.09 327 0 326.09 0 324.88 C0 323.68 3.22 322.83 6.92
								 322.83 C10.63 322.83 13.81 323.74 13.81 324.88 Z" class="st9"/>
				</g>
				<g id="shape67-138" v:mID="67" v:groupContext="shape" transform="translate(3.53647,-30.9388)">
					<title>Sheet.67</title>
					<path d="M5.46 325.41 A17.0894 17.0894 -180 0 0 0 326.2 A16.1788 16.1788 -180 0 0 5.46 327 A16.1788 16.1788 -180
								 0 0 10.93 326.2 A17.0894 17.0894 -180 0 0 5.46 325.41 Z" class="st13"/>
				</g>
			</g>
		</g>
		<g id="group68-140" transform="translate(168.375,-80.8941)" v:mID="68" v:groupContext="group">
			<title>Sheet.68</title>
			<g id="group69-141" v:mID="69" v:groupContext="group">
				<title>Sheet.69</title>
				<g id="shape70-142" v:mID="70" v:groupContext="shape">
					<title>Sheet.70</title>
					<path d="M0 310.55 L0 316.92 L18 327 L36 316.92 L36 310.55 L0 310.55 Z" class="st18"/>
				</g>
				<g id="shape71-144" v:mID="71" v:groupContext="shape" transform="translate(18.0003,0)">
					<title>Sheet.71</title>
					<rect x="0" y="310.545" width="17.9997" height="16.4546" class="st19"/>
				</g>
				<g id="shape72-146" v:mID="72" v:groupContext="shape" transform="translate(0,-6.37727)">
					<title>Sheet.72</title>
					<path d="M0 316.92 L18 327 L36 316.92 L18 306.85 L0 316.92 Z" class="st20"/>
				</g>
				<g id="shape73-148" v:mID="73" v:groupContext="shape" transform="translate(0,-13.2653)">
					<title>Sheet.73</title>
					<path d="M0 310.55 L0 316.92 L18 327 L36 316.92 L36 310.55 L0 310.55 Z" class="st18"/>
				</g>
				<g id="shape74-150" v:mID="74" v:groupContext="shape" transform="translate(18.0003,-13.2653)">
					<title>Sheet.74</title>
					<rect x="0" y="310.545" width="17.9997" height="16.4546" class="st19"/>
				</g>
				<g id="shape75-152" v:mID="75" v:groupContext="shape" transform="translate(0,-19.6432)">
					<title>Sheet.75</title>
					<path d="M0 316.92 L18 327 L36 316.92 L18 306.85 L0 316.92 Z" class="st20"/>
				</g>
			</g>
		</g>
		<g id="shape76-154" v:mID="76" v:groupContext="shape" transform="translate(268.875,-15.375)">
			<title>Sheet.76</title>
			<path d="M0 327 L90 327 L90 98.63 L0 98.63 L0 327 Z" class="st15"/>
		</g>
		<g id="shape77-156" v:mID="77" v:groupContext="shape" transform="translate(0.75,-152.322)">
			<title>Sheet.77</title>
			<desc>Enterprise Meter Data</desc>
			<v:textBlock v:margins="rect(4,4,4,4)"/>
			<v:textRect cx="45" cy="317" width="90" height="20"/>
			<rect x="0" y="307" width="90" height="20" class="st21"/>
			<text x="20.98" y="314" class="st22" v:langID="2052"><v:paragraph v:horizAlign="1"/><v:tabList/>Enterprise<v:newlineChar/><tspan
						x="17.99" dy="1.2em" class="st23">Meter Data</tspan></text>		</g>
		<g id="shape78-160" v:mID="78" v:groupContext="shape" transform="translate(0.75,-23.1071)">
			<title>Sheet.78</title>
			<desc>Third-party Meter Data</desc>
			<v:textBlock v:margins="rect(4,4,4,4)"/>
			<v:textRect cx="45" cy="312.304" width="90" height="29.3929"/>
			<rect x="0" y="297.607" width="90" height="29.3929" class="st21"/>
			<text x="18.08" y="309.3" class="st22" v:langID="2052"><v:paragraph v:horizAlign="1"/><v:tabList/>Third-party <tspan
						x="17.99" dy="1.2em" class="st23">Meter Data</tspan></text>		</g>
		<g id="shape79-164" v:mID="79" v:groupContext="shape" transform="translate(141.375,-139.054)">
			<title>Sheet.79</title>
			<desc>EnMS Gateways</desc>
			<v:textBlock v:margins="rect(4,4,4,4)"/>
			<v:textRect cx="45" cy="312.304" width="90" height="29.3929"/>
			<rect x="0" y="297.607" width="90" height="29.3929" class="st21"/>
			<text x="7.07" y="315.3" class="st22" v:langID="2052"><v:paragraph v:horizAlign="1"/><v:tabList/>EnMS Gateways</text>		</g>
		<g id="shape80-167" v:mID="80" v:groupContext="shape" transform="translate(141.375,-59.25)">
			<title>Sheet.80</title>
			<desc>Protocol Converter</desc>
			<v:textBlock v:margins="rect(4,4,4,4)"/>
			<v:textRect cx="45" cy="317" width="90" height="20"/>
			<rect x="0" y="307" width="90" height="20" class="st21"/>
			<text x="24.79" y="314" class="st22" v:langID="2052"><v:paragraph v:horizAlign="1"/><v:tabList/>Protocol <tspan
						x="21.42" dy="1.2em" class="st23">Converter</tspan></text>		</g>
		<g id="shape81-171" v:mID="81" v:groupContext="shape" transform="translate(268.875,-161.429)">
			<title>Sheet.81</title>
			<desc>Real Time Alarm</desc>
			<v:textBlock v:margins="rect(4,4,4,4)"/>
			<v:textRect cx="45" cy="312.304" width="90" height="29.3929"/>
			<rect x="0" y="297.607" width="90" height="29.3929" class="st21"/>
			<text x="5.92" y="315.3" class="st22" v:langID="2052"><v:paragraph v:horizAlign="1"/><v:tabList/>Real Time Alarm  </text>		</g>
		<g id="shape82-174" v:mID="82" v:groupContext="shape" transform="translate(268.875,-93)">
			<title>Sheet.82</title>
			<desc>Data Cleaning</desc>
			<v:textBlock v:margins="rect(4,4,4,4)"/>
			<v:textRect cx="45" cy="317" width="90" height="20"/>
			<rect x="0" y="307" width="90" height="20" class="st21"/>
			<text x="11.35" y="320" class="st22" v:langID="2052"><v:paragraph v:horizAlign="1"/><v:tabList/>Data Cleaning</text>		</g>
		<g id="shape83-177" v:mID="83" v:groupContext="shape" transform="translate(268.875,-16.5)">
			<title>Sheet.83</title>
			<desc>Historical Database</desc>
			<v:textBlock v:margins="rect(4,4,4,4)"/>
			<v:textRect cx="45" cy="312.304" width="90" height="29.3929"/>
			<rect x="0" y="297.607" width="90" height="29.3929" class="st21"/>
			<text x="22.6" y="309.3" class="st22" v:langID="2052"><v:paragraph v:horizAlign="1"/><v:tabList/>Historical <tspan
						x="22.69" dy="1.2em" class="st23">Database</tspan></text>		</g>
		<g id="shape84-181" v:mID="84" v:groupContext="shape" transform="translate(395.812,-36.75)">
			<title>Sheet.84</title>
			<path d="M0 327 L90 327 L90 147 L0 147 L0 327 Z" class="st15"/>
		</g>
		<g id="shape93-183" v:mID="93" v:groupContext="shape" transform="translate(395.812,-141.03)">
			<title>Sheet.93</title>
			<desc>System Configuration</desc>
			<v:textBlock v:margins="rect(4,4,4,4)"/>
			<v:textRect cx="45" cy="317" width="90" height="20"/>
			<rect x="0" y="307" width="90" height="20" class="st21"/>
			<text x="27.77" y="314" class="st22" v:langID="2052"><v:paragraph v:horizAlign="1"/><v:tabList/>System <tspan x="11.93"
						dy="1.2em" class="st23">Configuration</tspan></text>		</g>
		<g id="group94-187" transform="translate(423.038,-79.5004)" v:mID="94" v:groupContext="group">
			<title>Icon-166Artboard 1</title>
			<g id="shape95-188" v:mID="95" v:groupContext="shape">
				<title>bc892891-989d-4c43-80d3-d2b4546</title>
				<path d="M33.07 327 L2.47 327 L0 317.78 L35.55 317.78 L33.07 327 Z" class="st13"/>
			</g>
			<g id="shape96-190" v:mID="96" v:groupContext="shape">
				<title>Sheet.96</title>
				<path d="M13.05 288.75 L13.05 303.15 L0 317.78 L2.47 327 L22.5 303.15 L22.5 288.75 L13.05 288.75 Z" class="st24"/>
			</g>
			<g id="shape97-194" v:mID="97" v:groupContext="shape" transform="translate(19.1248,2.27374E-13)">
				<title>e6be01d6-345d-4df4-bbdb-151aa8e</title>
				<path d="M13.95 327 L0 312.6 L5.85 305.85 L16.42 317.78 L13.95 327 Z" class="st25"/>
			</g>
		</g>
		<g id="shape98-196" v:mID="98" v:groupContext="shape" transform="translate(395.812,-45.75)">
			<title>Sheet.98</title>
			<desc>Data Normalization</desc>
			<v:textBlock v:margins="rect(4,4,4,4)"/>
			<v:textRect cx="45" cy="312.304" width="90" height="29.3929"/>
			<rect x="0" y="297.607" width="90" height="29.3929" class="st21"/>
			<text x="33.8" y="309.3" class="st22" v:langID="2052"><v:paragraph v:horizAlign="1"/><v:tabList/>Data <tspan x="11.06"
						dy="1.2em" class="st23">Normalization</tspan></text>		</g>
		<g id="shape99-200" v:mID="99" v:groupContext="shape" transform="translate(501.562,-36.75)">
			<title>Sheet.99</title>
			<path d="M0 327 L90 327 L90 147 L0 147 L0 327 Z" class="st15"/>
		</g>
		<g id="group100-202" transform="translate(528.562,-162.674)" v:mID="100" v:groupContext="group">
			<title>Sheet.100</title>
			<g id="group101-203" v:mID="101" v:groupContext="group">
				<title>Sheet.101</title>
				<g id="shape102-204" v:mID="102" v:groupContext="shape">
					<title>Sheet.102</title>
					<path d="M0 310.55 L0 316.92 L18 327 L36 316.92 L36 310.55 L0 310.55 Z" class="st18"/>
				</g>
				<g id="shape103-206" v:mID="103" v:groupContext="shape" transform="translate(18.0003,0)">
					<title>Sheet.103</title>
					<rect x="0" y="310.545" width="17.9997" height="16.4546" class="st19"/>
				</g>
				<g id="shape104-208" v:mID="104" v:groupContext="shape" transform="translate(0,-6.37727)">
					<title>Sheet.104</title>
					<path d="M0 316.92 L18 327 L36 316.92 L18 306.85 L0 316.92 Z" class="st20"/>
				</g>
				<g id="shape105-210" v:mID="105" v:groupContext="shape" transform="translate(0,-13.2653)">
					<title>Sheet.105</title>
					<path d="M0 310.55 L0 316.92 L18 327 L36 316.92 L36 310.55 L0 310.55 Z" class="st18"/>
				</g>
				<g id="shape106-212" v:mID="106" v:groupContext="shape" transform="translate(18.0003,-13.2653)">
					<title>Sheet.106</title>
					<rect x="0" y="310.545" width="17.9997" height="16.4546" class="st19"/>
				</g>
				<g id="shape107-214" v:mID="107" v:groupContext="shape" transform="translate(0,-19.6432)">
					<title>Sheet.107</title>
					<path d="M0 316.92 L18 327 L36 316.92 L18 306.85 L0 316.92 Z" class="st20"/>
				</g>
			</g>
		</g>
		<g id="shape108-216" v:mID="108" v:groupContext="shape" transform="translate(501.562,-141.03)">
			<title>Sheet.108</title>
			<desc>MQTT Broker</desc>
			<v:textBlock v:margins="rect(4,4,4,4)"/>
			<v:textRect cx="45" cy="317" width="90" height="20"/>
			<rect x="0" y="307" width="90" height="20" class="st21"/>
			<text x="13.13" y="320" class="st22" v:langID="2052"><v:paragraph v:horizAlign="1"/><v:tabList/>MQTT Broker</text>		</g>
		<g id="shape109-219" v:mID="109" v:groupContext="shape" transform="translate(501.562,-45.75)">
			<title>Sheet.109</title>
			<desc>Data Aggregation</desc>
			<v:textBlock v:margins="rect(4,4,4,4)"/>
			<v:textRect cx="45" cy="312.304" width="90" height="29.3929"/>
			<rect x="0" y="297.607" width="90" height="29.3929" class="st21"/>
			<text x="33.8" y="309.3" class="st22" v:langID="2052"><v:paragraph v:horizAlign="1"/><v:tabList/>Data <tspan x="14.92"
						dy="1.2em" class="st23">Aggregation</tspan></text>		</g>
		<g id="group110-223" transform="translate(528.788,-82.9936)" v:mID="110" v:groupContext="group">
			<title>Icon-compute-23</title>
			<g id="shape111-224" v:mID="111" v:groupContext="shape" transform="translate(5.78075,-21.3534)">
				<title>Sheet.111</title>
				<path d="M5.62 317.09 L0 318.13 L0 325.8 L5.62 327 L11.27 324.74 L11.27 319.02 L5.62 317.09 Z" class="st26"/>
			</g>
			<g id="shape112-228" v:mID="112" v:groupContext="shape" transform="translate(5.89873,-21.4484)">
				<title>Sheet.112</title>
				<path d="M5.72 326.98 L10.87 324.89 a0.393248 0.393248 -180 0 0 0.235949 -0.275274 L11.11 319.43 a0.412911 0.412911
							 -180 0 0 -0.255612 -0.353924 L5.64 317.3 L5.41 317.3 L0.29 318.25 a0.393248 0.393248 -180 0 0 -0.294936
							 0.353924 L0 325.54 a0.373586 0.373586 -180 0 0 0.294936 0.373586 L5.47 327 a0.629198 0.629198 -180 0
							 0 0.255612 -0.0196624 Z" class="st27"/>
			</g>
			<g id="shape113-230" v:mID="113" v:groupContext="shape" transform="translate(5.78075,-21.3534)">
				<title>Sheet.113</title>
				<path d="M0 318.13 L0 325.8 L5.68 327 L5.68 317.17 L0 318.13 ZM2.4 325.21 L0.81 324.9 L0.81 319 L2.4 318.74 L2.4
							 325.21 ZM4.88 325.66 L3.05 325.37 L3.05 318.62 L4.88 318.31 L4.88 325.66 Z" class="st28"/>
			</g>
			<g id="shape114-232" v:mID="114" v:groupContext="shape" transform="translate(17.9518,-21.2551)">
				<title>Sheet.114</title>
				<path d="M5.62 317.09 L0 318.13 L0 325.8 L5.62 327 L11.25 324.72 L11.25 319.02 L5.62 317.09 Z" class="st26"/>
			</g>
			<g id="shape115-235" v:mID="115" v:groupContext="shape" transform="translate(17.9518,-21.2551)">
				<title>Sheet.115</title>
				<path d="M0 318.13 L0 325.8 L5.64 327 L5.64 317.17 L0 318.13 ZM2.38 325.21 L0.79 324.9 L0.79 319 L2.38 318.74 L2.38
							 325.21 ZM4.86 325.66 L3.03 325.37 L3.03 318.62 L4.86 318.29 L4.86 325.66 Z" class="st28"/>
			</g>
			<g id="shape116-237" v:mID="116" v:groupContext="shape" transform="translate(0.0196624,-10.775)">
				<title>Sheet.116</title>
				<path d="M5.62 317.09 L0 318.13 L0 325.8 L5.62 327 L11.27 324.74 L11.27 319.02 L5.62 317.09 Z" class="st26"/>
			</g>
			<g id="shape117-240" v:mID="117" v:groupContext="shape" transform="translate(3.54716E-14,-10.834)">
				<title>Sheet.117</title>
				<path d="M0 318.19 L0 325.8 L5.68 327 L5.68 317.17 L0 318.19 ZM2.38 325.29 L0.79 324.96 L0.79 319.06 L2.38 318.78
							 L2.38 325.29 ZM4.88 325.8 L3.05 325.51 L3.05 318.68 L4.88 318.37 L4.88 325.8 Z" class="st28"/>
			</g>
			<g id="shape118-242" v:mID="118" v:groupContext="shape" transform="translate(12.1514,-10.834)">
				<title>Sheet.118</title>
				<path d="M5.62 317.07 L0 318.11 L0 325.78 L5.62 327 L11.25 324.72 L11.25 319 L5.62 317.07 Z" class="st26"/>
			</g>
			<g id="shape119-245" v:mID="119" v:groupContext="shape" transform="translate(12.1514,-10.834)">
				<title>Sheet.119</title>
				<path d="M0 318.11 L0 325.8 L5.66 327 L5.66 317.17 L0 318.11 ZM2.38 325.21 L0.79 324.88 L0.79 318.98 L2.38 318.7
							 L2.38 325.21 ZM4.86 325.64 L3.03 325.35 L3.03 318.6 L4.86 318.29 L4.86 325.64 Z" class="st28"/>
			</g>
			<g id="shape120-247" v:mID="120" v:groupContext="shape" transform="translate(24.2831,-10.7553)">
				<title>Sheet.120</title>
				<path d="M5.62 317.09 L0 318.13 L0 325.8 L5.62 327 L11.27 324.74 L11.27 319.02 L5.62 317.09 Z" class="st26"/>
			</g>
			<g id="shape121-250" v:mID="121" v:groupContext="shape" transform="translate(24.2831,-10.834)">
				<title>Sheet.121</title>
				<path d="M0 318.21 L0 325.8 L5.68 327 L5.68 317.17 L0 318.21 ZM2.4 325.31 L0.81 324.97 L0.81 319.08 L2.4 318.8 L2.4
							 325.31 ZM4.88 325.74 L3.05 325.45 L3.05 318.7 L4.88 318.39 L4.88 325.74 Z" class="st28"/>
			</g>
			<g id="shape122-252" v:mID="122" v:groupContext="shape" transform="translate(5.64312,-0.0786497)">
				<title>Sheet.122</title>
				<path d="M5.62 317.09 L0 318.11 L0 325.78 L5.62 327 L11.27 324.72 L11.27 319.02 L5.62 317.09 Z" class="st26"/>
			</g>
			<g id="shape123-255" v:mID="123" v:groupContext="shape" transform="translate(5.74143,-0.214495)">
				<title>Sheet.123</title>
				<path d="M5.74 326.98 L10.87 325.01 a0.353924 0.353924 -180 0 0 0.235949 -0.353924 L11.11 319.55 a0.393248 0.393248
							 -180 0 0 -0.255612 -0.432573 L5.66 317.34 a0.334261 0.334261 -180 0 0 -0.235949 0 L0.31 318.27 a0.373586
							 0.373586 -180 0 0 -0.314599 0.373586 L0 325.6 a0.373586 0.373586 -180 0 0 0.294936 0.373586 L5.47 326.98
							 a0.452236 0.452236 -180 0 0 0.275274 0 Z" class="st27"/>
			</g>
			<g id="shape124-257" v:mID="124" v:groupContext="shape" transform="translate(5.64312,-0.0786497)">
				<title>Sheet.124</title>
				<path d="M0 318.11 L0 325.78 L5.68 327 L5.68 317.01 L0 318.11 ZM2.4 325.21 L0.81 324.88 L0.81 318.98 L2.4 318.7 L2.4
							 325.21 ZM4.88 325.66 L3.05 325.37 L3.05 318.6 L4.88 318.29 L4.88 325.66 Z" class="st28"/>
			</g>
			<g id="shape125-259" v:mID="125" v:groupContext="shape" transform="translate(17.7945,-1.13687E-13)">
				<title>Sheet.125</title>
				<path d="M5.62 317.09 L0 318.13 L0 325.8 L5.62 327 L11.27 324.74 L11.27 319.02 L5.62 317.09 Z" class="st26"/>
			</g>
			<g id="shape126-262" v:mID="126" v:groupContext="shape" transform="translate(17.7945,-1.13687E-13)">
				<title>Sheet.126</title>
				<path d="M0 318.13 L0 325.8 L5.68 327 L5.68 317.17 L0 318.13 ZM2.4 325.23 L0.81 324.9 L0.81 319 L2.4 318.72 L2.4
							 325.23 ZM4.88 325.66 L3.05 325.37 L3.05 318.62 L4.88 318.31 L4.88 325.66 Z" class="st28"/>
			</g>
		</g>
		<g id="shape127-264" v:mID="127" v:groupContext="shape" transform="translate(384.562,-0.75)">
			<title>Sheet.127</title>
			<path d="M0 327 L225 327 L225 57 L0 57 L0 327 Z" class="st15"/>
		</g>
		<g id="group128-266" transform="translate(663.562,-190.679)" v:mID="128" v:groupContext="group">
			<title>Icon-storage-90.1143</title>
			<g id="shape129-267" v:mID="129" v:groupContext="shape">
				<title>Sheet.129</title>
				<path d="M35.15 300.87 L19.46 300.87 a0.72 0.72 0 0 1 -0.465882 -0.148235 L14.51 297.73 a0.910588 0.910588 -180 0
							 0 -0.465882 -0.127059 L0.85 297.61 a0.847059 0.847059 -180 0 0 -0.847059 0.825882 L0 326.17 a0.847059
							 0.847059 -180 0 0 0.847059 0.825882 L35.15 327 a0.847059 0.847059 -180 0 0 0.847059 -0.825882 L36 301.72
							 a0.847059 0.847059 -180 0 0 -0.847059 -0.847059 Z" class="st3"/>
			</g>
			<g id="shape130-269" v:mID="130" v:groupContext="shape" transform="translate(3.28235,-26.1529)">
				<title>Sheet.130</title>
				<path d="M0 326.66 a0.338831 0.338831 -180 0 0 0.338824 0.338824 L7.84 327 a0.338831 0.338831 -180 0 0 0.338824 -0.338824
							 L8.17 325.71 a0.338831 0.338831 -180 0 0 -0.338824 -0.338824 L0.34 325.37 a0.338831 0.338831 -180 0
							 0 -0.338824 0.338824 L0 326.66 Z" class="st4"/>
			</g>
			<g id="shape131-271" v:mID="131" v:groupContext="shape" transform="translate(3.28235,-26.1529)">
				<title>Sheet.131</title>
				<path d="M0 326.77 a0.232947 0.232947 -180 0 0 0.232941 0.232941 L1.4 327 a0.232947 0.232947 -180 0 0 0.232941 -0.232941
							 L1.63 325.6 a0.232947 0.232947 -180 0 0 -0.232941 -0.232941 L0.23 325.37 a0.232947 0.232947 -180 0 0
							 -0.232941 0.232941 L0 326.77 Z" class="st5"/>
			</g>
			<g id="shape132-273" v:mID="132" v:groupContext="shape" transform="translate(0,-0.0847059)">
				<title>Sheet.132</title>
				<path d="M35.15 300.91 L18 300.91 a0.762353 0.762353 -180 0 0 -0.592941 0.254118 L14.55 303.92 a0.910588 0.910588
							 0 0 1 -0.592941 0.232941 L0.85 304.15 a0.847059 0.847059 -180 0 0 -0.847059 0.847059 L0 326.17 a0.847059
							 0.847059 -180 0 0 0.847059 0.825882 L35.15 327 a0.847059 0.847059 -180 0 0 0.847059 -0.825882 L36 301.8
							 a0.847059 0.847059 -180 0 0 -0.847059 -0.889412 Z" class="st6"/>
			</g>
			<g id="shape133-276" v:mID="133" v:groupContext="shape" transform="translate(13.317,-4.98425)">
				<title>Sheet.133</title>
				<path d="M7.18 310.3 a0.317647 0.317647 -180 0 0 -0.169412 -5.68434E-14 C7.01 310.3 6.82 310.3 6.74 310.45 L0.05
							 320.17 a0.338824 0.338824 -180 0 0 4.996E-15 0.338824 a0.402353 0.402353 -180 0 0 0.317647 0.211765
							 L4.32 320.72 L2.57 326.61 a0.275294 0.275294 -180 0 0 0.148235 0.381176 a0.211765 0.211765 -180 0 0
							 0.148235 0 C2.99 326.99 3.05 326.99 3.14 326.84 L10.04 316.97 C10.04 316.97 10.04 316.84 10.04 316.76
							 a0.36 0.36 -180 0 0 -0.36 -0.338824 L5.45 316.42 L7.16 310.64 a0.275294 0.275294 -180 0 0 0.0211765
							 -0.338824 Z" class="st4"/>
			</g>
		</g>
		<g id="group134-278" transform="translate(663.562,-113.476)" v:mID="134" v:groupContext="group">
			<title>Sheet.134</title>
			<g id="shape135-279" v:mID="135" v:groupContext="shape">
				<title>Sheet.135</title>
				<path d="M18 285.73 L0 296.02 L0 316.59 L18 327 L36 316.7 L36 296.07 L18 285.73 ZM32.68 314.55 L18 323.03 L3.32 314.64
							 L3.32 298.06 L18 289.58 L32.68 298.09 L32.68 314.55 Z" class="st7"/>
			</g>
			<g id="shape136-281" v:mID="136" v:groupContext="shape" transform="translate(0,-28.9376)">
				<title>Sheet.136</title>
				<path d="M18 314.66 L0 324.96 L3.32 327 L18 318.52 L32.68 327 L36 324.96 L18 314.66 Z" class="st8"/>
			</g>
			<g id="shape137-284" v:mID="137" v:groupContext="shape" transform="translate(5.64764,-5.15694)">
				<title>Sheet.137</title>
				<path d="M20.93 314.9 A1.67389 1.67389 -180 0 0 20.19 314.25 A13.3796 13.3796 -180 0 0 9.92 306.57 L24.77 297.99
							 L21.32 296.01 L4.4 305.79 A1.71975 1.71975 -180 0 0 5.27 309 A1.56841 1.56841 -180 0 0 5.47 308.94 L5.76
							 310.14 A9.90344 9.90344 0 0 1 16.85 315.28 L0 325.01 L3.44 327 L20.3 317.25 A1.67159 1.67159 -180 0
							 0 20.85 316.71 L21.03 316.67 C21.01 316.6 20.99 316.54 20.97 316.48 A1.68535 1.68535 -180 0 0 20.93
							 314.9 Z" class="st9"/>
			</g>
			<g id="shape138-286" v:mID="138" v:groupContext="shape" transform="translate(7.91278,-13.3655)">
				<title>Sheet.138</title>
				<path d="M17.17 319.76 A4.24204 4.24204 -180 1 0 21.42 324 A4.24204 4.24204 -180 0 0 17.17 319.76 ZM3 311.17 A4.24204
							 4.24204 -180 1 0 7.24 315.41 A4.24204 4.24204 -180 0 0 3 311.17 Z" class="st10"/>
			</g>
		</g>
		<g id="group139-289" transform="translate(663.562,-43.5)" v:mID="139" v:groupContext="group">
			<title>Icon-databases-130.1154</title>
			<g id="shape140-290" v:mID="140" v:groupContext="shape">
				<title>Sheet.140</title>
				<path d="M18 292.29 C8.06 292.29 0 289.48 0 285.78 L0 320.49 C0 324.05 7.92 326.94 17.75 327 L18 327 C27.94 327 36
							 324.19 36 320.49 L36 285.78 C36 289.4 27.94 292.29 18 292.29 Z" class="st11"/>
			</g>
			<g id="shape141-293" v:mID="141" v:groupContext="shape" transform="translate(0,-34.7083)">
				<title>Sheet.141</title>
				<path d="M36 320.49 C36 324.11 27.94 327 18 327 C8.06 327 0 324.19 0 320.49 C0 316.78 8.06 313.97 18 313.97 C27.94
							 313.97 36 316.78 36 320.49 Z" class="st12"/>
			</g>
			<g id="shape142-295" v:mID="142" v:groupContext="shape" transform="translate(4.18409,-37.6006)">
				<title>Sheet.142</title>
				<path d="M27.63 322.84 C27.63 325.15 21.43 327 13.82 327 C6.21 327 0 325.15 0 322.84 C0 320.54 6.21 318.72 13.82
							 318.72 C21.43 318.72 27.63 320.57 27.63 322.84 Z" class="st9"/>
			</g>
			<g id="shape143-297" v:mID="143" v:groupContext="shape" transform="translate(7.07644,-37.6006)">
				<title>Sheet.143</title>
				<path d="M10.92 323.88 A32.4337 32.4337 -180 0 0 -0 325.48 A32.0686 32.0686 -180 0 0 10.92 327 A31.3105 31.3105 -180
							 0 0 21.85 325.37 A33.248 33.248 -180 0 0 10.92 323.88 Z" class="st13"/>
			</g>
			<g id="shape144-299" v:mID="144" v:groupContext="shape" transform="translate(4.49298,-12.131)">
				<title>Sheet.144</title>
				<path d="M24.46 322 L24.46 312.45 L21.93 312.45 L21.93 324.05 L28.84 324.05 L28.84 322 L24.46 322 ZM4.41 317.31 A5.13885
							 5.13885 0 0 1 2.98 316.44 A1.23557 1.23557 0 0 1 2.64 315.54 a0.954758 0.954758 0 0 1 0.421217 -0.842434
							 A1.90952 1.90952 0 0 1 4.24 314.36 A4.54914 4.54914 0 0 1 7.05 315.18 L7.05 312.76 A7.24493 7.24493
							 -180 0 0 4.24 312.31 A4.6053 4.6053 -180 0 0 1.18 313.27 A3.03276 3.03276 -180 0 0 0 315.77 C0 317.2
							 0.9 318.32 2.81 319.17 A8.08736 8.08736 0 0 1 4.55 320.18 A1.17941 1.17941 0 0 1 4.97 321.07 A1.06708
							 1.06708 0 0 1 4.52 321.95 A2.27457 2.27457 0 0 1 3.26 322.25 A4.66147 4.66147 0 0 1 0.2 321.07 L0.2
							 323.69 A6.0936 6.0936 -180 0 0 3.2 324.36 A5.27925 5.27925 -180 0 0 6.51 323.43 A3.03276 3.03276 -180
							 0 0 7.44 320.88 A2.94852 2.94852 -180 0 0 6.74 318.91 A6.79563 6.79563 -180 0 0 4.41 317.31 ZM19.12
							 321.78 A6.57098 6.57098 -180 0 0 20.05 318.24 A6.51482 6.51482 -180 0 0 19.12 315.26 A5.08268 5.08268
							 -180 0 0 17.16 313.16 A5.61622 5.61622 -180 0 0 14.35 312.43 A5.92512 5.92512 -180 0 0 11.32 313.18
							 A5.22309 5.22309 -180 0 0 9.27 315.26 A6.90796 6.90796 -180 0 0 8.54 318.46 A6.34633 6.34633 -180 0
							 0 9.21 321.27 A4.94228 4.94228 -180 0 0 11.15 323.35 A5.78471 5.78471 -180 0 0 13.96 324.19 L16.37 327
							 L19.77 327 L16.32 323.91 A5.02652 5.02652 -180 0 0 19.12 321.78 ZM16.32 321.07 A2.63963 2.63963 0 0
							 1 14.18 322.06 A2.58346 2.58346 0 0 1 12.05 321.05 A4.26833 4.26833 0 0 1 11.23 318.24 A4.29641 4.29641
							 0 0 1 12.05 315.43 A2.80811 2.80811 0 0 1 14.24 314.39 A2.44306 2.44306 0 0 1 16.34 315.43 A4.54914
							 4.54914 0 0 1 17.1 318.24 A4.09984 4.09984 0 0 1 16.32 321.07 Z" class="st14"/>
			</g>
		</g>
		<g id="shape145-302" v:mID="145" v:groupContext="shape" transform="translate(636.562,-15.375)">
			<title>Sheet.145</title>
			<path d="M0 327 L90 327 L90 98.63 L0 98.63 L0 327 Z" class="st15"/>
		</g>
		<g id="shape146-304" v:mID="146" v:groupContext="shape" transform="translate(636.562,-161.429)">
			<title>Sheet.146</title>
			<desc>Fault Detection &#38; Diagnosis</desc>
			<v:textBlock v:margins="rect(4,4,4,4)"/>
			<v:textRect cx="45" cy="312.304" width="90" height="29.3929"/>
			<rect x="0" y="297.607" width="90" height="29.3929" class="st21"/>
			<text x="8.52" y="309.3" class="st22" v:langID="2052"><v:paragraph v:horizAlign="1"/><v:tabList/>Fault Detection <tspan
						x="15.85" dy="1.2em" class="st23">&#38; </tspan>Diagnosis</text>		</g>
		<g id="shape147-308" v:mID="147" v:groupContext="shape" transform="translate(636.562,-93)">
			<title>Sheet.147</title>
			<desc>REST API</desc>
			<v:textBlock v:margins="rect(4,4,4,4)"/>
			<v:textRect cx="45" cy="317" width="90" height="20"/>
			<rect x="0" y="307" width="90" height="20" class="st21"/>
			<text x="23.71" y="320" class="st22" v:langID="2052"><v:paragraph v:horizAlign="1"/><v:tabList/>REST API</text>		</g>
		<g id="shape148-311" v:mID="148" v:groupContext="shape" transform="translate(636.562,-16.5)">
			<title>Sheet.148</title>
			<desc>Energy Database</desc>
			<v:textBlock v:margins="rect(4,4,4,4)"/>
			<v:textRect cx="45" cy="312.304" width="90" height="29.3929"/>
			<rect x="0" y="297.607" width="90" height="29.3929" class="st21"/>
			<text x="28.58" y="309.3" class="st22" v:langID="2052"><v:paragraph v:horizAlign="1"/><v:tabList/>Energy <v:newlineChar/><tspan
						x="22.69" dy="1.2em" class="st23">Database</tspan></text>		</g>
		<g id="shape149-315" v:mID="149" v:groupContext="shape" transform="translate(747.75,-15.375)">
			<title>Sheet.149</title>
			<path d="M0 327 L90 327 L90 98.63 L0 98.63 L0 327 Z" class="st15"/>
		</g>
		<g id="group150-317" transform="translate(747.75,-63.1875)" v:mID="150" v:groupContext="group">
			<title>Sheet.150</title>
			<g id="group151-318" transform="translate(27,-96.75)" v:mID="151" v:groupContext="group">
				<title>Power BI.1165</title>
				<g id="group152-319" v:mID="152" v:groupContext="group">
					<title>Sheet.152</title>
					<g id="shape153-320" v:mID="153" v:groupContext="shape" transform="translate(20,-0.734694)">
						<title>Sheet.153</title>
						<path d="M16 291.73 L16 327 L0 327 L0 291.73 L16 291.73 Z" class="st29"/>
					</g>
					<g id="shape154-324" v:mID="154" v:groupContext="shape" transform="translate(10.0001,-0.587755)">
						<title>Sheet.154</title>
						<path d="M16 302.02 L16 327 L0 327 L0 300.55 L14 300.55 C15.1 300.55 16 301.21 16 302.02 Z" class="st30"/>
					</g>
					<g id="shape155-326" v:mID="155" v:groupContext="shape" transform="translate(10.0001,0)">
						<title>Sheet.155</title>
						<path d="M16 302.02 L16 327 L0 327 L0 300.55 L14 300.55 C15.1 300.55 16 301.21 16 302.02 Z" class="st31"/>
					</g>
					<g id="shape156-328" v:mID="156" v:groupContext="shape" transform="translate(10.0001,-0.734694)">
						<title>Sheet.156</title>
						<path d="M16 302.02 L16 327 L0 327 L0 300.55 L14 300.55 C15.1 300.55 16 301.21 16 302.02 Z" class="st32"/>
					</g>
					<g id="shape157-332" v:mID="157" v:groupContext="shape" transform="translate(0,-0.734694)">
						<title>Sheet.157</title>
						<path d="M0 309.37 L0 327 L16 327 L16 310.84 C16 310.03 15.1 309.37 14 309.37 L0 309.37 Z" class="st33"/>
					</g>
				</g>
			</g>
			<g id="group158-336" transform="translate(27,-24.8435)" v:mID="158" v:groupContext="group">
				<title>Icon-web-41</title>
				<g id="shape159-337" v:mID="159" v:groupContext="shape" transform="translate(1.44459,2.27374E-13)">
					<title>ee75dd06-1aca-4f76-9d11-d05a284</title>
					<path d="M27.36 327 A19.4975 19.4975 0 0 1 3.46 296.18 L3.67 296.04 A19.4904 19.4904 0 0 1 27.36 327 Z"
							class="st34"/>
				</g>
				<g id="shape160-341" v:mID="160" v:groupContext="shape" transform="translate(8.46115,-19.4675)">
					<title>Sheet.160</title>
					<path d="M3.1 327 A29.8089 29.8089 0 0 1 23.53 318.79 A19.4217 19.4217 -180 0 0 20.11 315.49 A32.8815 32.8815
								 -180 0 0 9.36 318.01 A28.7541 28.7541 -180 0 0 0 324.48 A6.32866 6.32866 0 0 1 3.1 327 Z"
							class="st35"/>
				</g>
				<g id="shape161-343" v:mID="161" v:groupContext="shape" transform="translate(-3.59712E-14,-2.01783)">
					<title>Sheet.161</title>
					<path d="M1.9 317.39 A40.9529 40.9529 -180 0 0 0 323.4 A17.9312 17.9312 -180 0 0 1.42 325.51 C1.83 326.04 2.22
								 326.52 2.68 327 A41.1363 41.1363 0 0 1 5.16 319.04 A6.32866 6.32866 0 0 1 1.9 317.39 Z"
							class="st35"/>
				</g>
				<g id="shape162-345" v:mID="162" v:groupContext="shape" transform="translate(0.0458599,-19.9949)">
					<title>Sheet.162</title>
					<path d="M4.1 324.96 A27.5159 27.5159 0 0 1 2.52 318.22 A18.6879 18.6879 -180 0 0 0 321.54 A29.0981 29.0981 -180
								 0 0 1.31 327 A6.16815 6.16815 0 0 1 4.1 324.96 Z" class="st36"/>
				</g>
				<g id="shape163-347" v:mID="163" v:groupContext="shape" transform="translate(0,-9.8828)">
					<title>Sheet.163</title>
					<ellipse cx="6.25987" cy="320.74" rx="6.25987" ry="6.25987" class="st37"/>
				</g>
				<g id="shape164-351" v:mID="164" v:groupContext="shape" transform="translate(7.40637,-4.17325)">
					<title>Sheet.164</title>
					<path d="M7.98 326.47 A4.0586 4.0586 0 0 1 9.22 323.56 A27.2408 27.2408 0 0 1 3.42 319.3 A6.2828 6.2828 0 0 1
								 0 321.2 A30.0382 30.0382 -180 0 0 3.32 324.13 A27.7911 27.7911 -180 0 0 8.03 327 A4.10446 4.10446
								 0 0 1 7.98 326.47 Z" class="st36"/>
				</g>
				<g id="shape165-353" v:mID="165" v:groupContext="shape" transform="translate(22.3338,-1.30701)">
					<title>Sheet.165</title>
					<path d="M7.5 324.09 A27.5159 27.5159 0 0 1 1.17 323.35 a0.940127 0.940127 0 0 1 -3.9968E-15 0.252229 A4.01274
								 4.01274 0 0 1 0 326.45 A31.3911 31.3911 -180 0 0 7.84 327 A18.8255 18.8255 -180 0 0 10.57 323.93
								 A26.3694 26.3694 0 0 1 7.5 324.09 Z" class="st36"/>
				</g>
				<g id="shape166-355" v:mID="166" v:groupContext="shape" transform="translate(15.3631,-0.619108)">
					<title>Sheet.166</title>
					<ellipse cx="4.08153" cy="322.918" rx="4.08153" ry="4.08153" class="st38"/>
				</g>
				<g id="shape167-359" v:mID="167" v:groupContext="shape" transform="translate(8.55287,-15.5694)">
					<title>Sheet.167</title>
					<path d="M15.91 327 A4.19618 4.19618 0 0 1 17.31 324.71 A58.4713 58.4713 0 0 1 7.09 315.21 A38.7745 38.7745 0
								 0 1 2.5 308.52 A17.5185 17.5185 -180 0 0 0 309.48 A41.5949 41.5949 -180 0 0 4.93 316.77 A60.6268
								 60.6268 -180 0 0 15.91 327 Z" class="st39"/>
				</g>
				<g id="shape168-361" v:mID="168" v:groupContext="shape" transform="translate(24.3975,-10.4561)">
					<title>Sheet.168</title>
					<ellipse cx="4.33376" cy="322.666" rx="4.33376" ry="4.33376" class="st38"/>
				</g>
				<g id="shape169-364" v:mID="169" v:groupContext="shape" transform="translate(31.4369,-9.37834)">
					<title>Sheet.169</title>
					<path d="M4.56 324.5 L3.76 324.11 L3.07 323.74 L2.94 323.74 L2.34 323.26 L2.18 323.26 L1.47 322.8 A4.03567 4.03567
								 0 0 1 0 324.91 C0.28 325.1 0.57 325.26 0.87 325.42 L1.05 325.53 L1.86 325.97 L3.83 327 A19.7885
								 19.7885 -180 0 0 4.49 324.45 L4.56 324.5 Z" class="st36"/>
				</g>
				<g id="shape170-366" v:mID="170" v:groupContext="shape" transform="translate(0,-9.8828)">
					<title>Sheet.170</title>
					<ellipse cx="6.25987" cy="320.74" rx="6.25987" ry="6.25987" class="st37"/>
				</g>
				<g id="shape171-369" v:mID="171" v:groupContext="shape" transform="translate(15.3631,-0.619108)">
					<title>Sheet.171</title>
					<ellipse cx="4.08153" cy="322.918" rx="4.08153" ry="4.08153" class="st38"/>
				</g>
			</g>
			<g id="shape172-372" v:mID="172" v:groupContext="shape">
				<title>Sheet.172</title>
				<desc>Web application</desc>
				<v:textBlock v:margins="rect(4,4,4,4)"/>
				<v:textRect cx="45" cy="317" width="90" height="20"/>
				<rect x="0" y="307" width="90" height="20" class="st21"/>
				<text x="5.87" y="320" class="st22" v:langID="2052"><v:paragraph v:horizAlign="1"/><v:tabList/>Web application</text>			</g>
			<g id="shape173-375" v:mID="173" v:groupContext="shape" transform="translate(5.19584E-13,-73.8631)">
				<title>Sheet.173</title>
				<desc>Advanced Reporting</desc>
				<v:textBlock v:margins="rect(4,4,4,4)"/>
				<v:textRect cx="45" cy="317" width="90" height="20"/>
				<rect x="0" y="307" width="90" height="20" class="st21"/>
				<text x="21.27" y="314" class="st22" v:langID="2052"><v:paragraph v:horizAlign="1"/><v:tabList/>Advanced <tspan
							x="21.15" dy="1.2em" class="st23">Reporting</tspan></text>			</g>
		</g>
		<g id="shape174-379" v:mID="174" v:groupContext="shape" transform="translate(0.75,-250.75)">
			<title>Sheet.174</title>
			<desc>Meter data</desc>
			<v:textBlock v:margins="rect(4,4,4,4)"/>
			<v:textRect cx="45" cy="317" width="90" height="20"/>
			<rect x="0" y="307" width="90" height="20" class="st21"/>
			<text x="11.63" y="320.6" class="st40" v:langID="2052"><v:paragraph v:horizAlign="1"/><v:tabList/>Meter data</text>		</g>
		<g id="shape175-382" v:mID="175" v:groupContext="shape" transform="translate(135.75,-250.75)">
			<title>Sheet.175</title>
			<desc>Data Ingestion</desc>
			<v:textBlock v:margins="rect(4,4,4,4)"/>
			<v:textRect cx="50.625" cy="317" width="101.25" height="20"/>
			<rect x="0" y="307" width="101.25" height="20" class="st21"/>
			<text x="6.24" y="320.6" class="st40" v:langID="2052"><v:paragraph v:horizAlign="1"/><v:tabList/>Data Ingestion</text>		</g>
		<g id="shape176-385" v:mID="176" v:groupContext="shape" transform="translate(263.25,-250.75)">
			<title>Sheet.176</title>
			<desc>Data Cleaning</desc>
			<v:textBlock v:margins="rect(4,4,4,4)"/>
			<v:textRect cx="50.625" cy="317" width="101.25" height="20"/>
			<rect x="0" y="307" width="101.25" height="20" class="st21"/>
			<text x="8.36" y="320.6" class="st40" v:langID="2052"><v:paragraph v:horizAlign="1"/><v:tabList/>Data Cleaning</text>		</g>
		<g id="shape177-388" v:mID="177" v:groupContext="shape" transform="translate(405.592,-241.75)">
			<title>Sheet.177</title>
			<desc>Data Normalization</desc>
			<v:textBlock v:margins="rect(4,4,4,4)"/>
			<v:textRect cx="45" cy="317" width="90" height="20"/>
			<rect x="0" y="307" width="90" height="20" class="st21"/>
			<text x="32.02" y="313.7" class="st41" v:langID="2052"><v:paragraph v:horizAlign="1"/><v:tabList/>Data <tspan x="5.47"
						dy="1.2em" class="st23">Normalization</tspan></text>		</g>
		<g id="shape178-392" v:mID="178" v:groupContext="shape" transform="translate(511.342,-241.75)">
			<title>Sheet.178</title>
			<desc>Data Aggregation</desc>
			<v:textBlock v:margins="rect(4,4,4,4)"/>
			<v:textRect cx="45" cy="317" width="90" height="20"/>
			<rect x="0" y="307" width="90" height="20" class="st21"/>
			<text x="32.02" y="313.7" class="st41" v:langID="2052"><v:paragraph v:horizAlign="1"/><v:tabList/>Data <tspan x="10.11"
						dy="1.2em" class="st23">Aggregation</tspan></text>		</g>
		<g id="shape179-396" v:mID="179" v:groupContext="shape" transform="translate(646.342,-246)">
			<title>Sheet.179</title>
			<desc>Data Analysis</desc>
			<v:textBlock v:margins="rect(4,4,4,4)"/>
			<v:textRect cx="35.22" cy="309" width="70.44" height="36"/>
			<rect x="0" y="291" width="70.44" height="36" class="st21"/>
			<text x="21.05" y="305.4" class="st40" v:langID="2052"><v:paragraph v:horizAlign="1"/><v:tabList/>Data <tspan x="10.43"
						dy="1.2em" class="st23">Analysis</tspan></text>		</g>
		<g id="shape180-400" v:mID="180" v:groupContext="shape" transform="translate(757.53,-254)">
			<title>Sheet.180</title>
			<desc>Data Visualization</desc>
			<v:textBlock v:margins="rect(4,4,4,4)"/>
			<v:textRect cx="45" cy="317" width="90" height="20"/>
			<rect x="0" y="307" width="90" height="20" class="st21"/>
			<text x="30.83" y="313.4" class="st40" v:langID="2052"><v:paragraph v:horizAlign="1"/><v:tabList/>Data <tspan x="6.43"
						dy="1.2em" class="st23">Visualization</tspan></text>		</g>
		<g id="shape181-404" v:mID="181" v:groupContext="shape" transform="translate(242.164,-290.75)">
			<title>Sheet.181</title>
			<desc>MyEMS Energy Management System Data Flow</desc>
			<v:textBlock v:margins="rect(4,4,4,4)"/>
			<v:textRect cx="172.586" cy="309" width="345.18" height="36"/>
			<rect x="0" y="291" width="345.172" height="36" class="st21"/>
			<text x="29.59" y="312.6" class="st40" v:langID="1033"><v:paragraph v:horizAlign="1"/><v:tabList/>MyEMS <tspan
						class="st23" v:langID="2052">Energy Management System Data Flow</tspan></text>		</g>
		<g id="shape182-408" v:mID="182" v:groupContext="shape" v:layerMember="0" transform="translate(548.625,-216.75)">
			<title>Dynamic connector.1197</title>
			<path d="M0 319.32 L0 318.96 L0 308 L-175.28 308 L-175.28 390" class="st42"/>
		</g>
		<g id="shape183-414" v:mID="183" v:groupContext="shape" v:layerMember="0" transform="translate(440.812,-36.75)">
			<title>Dynamic connector.1198</title>
			<path d="M0 334.68 L0 335.04 L0 350.25 L-68.81 350.25" class="st42"/>
		</g>
		<g id="shape184-419" v:mID="184" v:groupContext="shape" transform="translate(700.335,176.398) rotate(90.5516)">
			<title>Sheet.184</title>
			<path d="M0 327 L140.26 327" class="st44"/>
		</g>
		<g id="shape185-422" v:mID="185" v:groupContext="shape" transform="translate(110.4,-137.55)">
			<title>Circle.1094</title>
			<desc>1</desc>
			<v:userDefs>
				<v:ud v:nameU="visVersion" v:val="VT0(15):26"/>
			</v:userDefs>
			<v:textBlock v:margins="rect(4,4,4,4)"/>
			<v:textRect cx="12.6" cy="314.4" width="22.05" height="18.9"/>
			<path d="M0 314.4 A12.6 12.6 0 0 1 25.2 314.4 A12.6 12.6 0 1 1 0 314.4 Z" class="st45"/>
			<text x="9.21" y="317.7" class="st46" v:langID="1033"><v:paragraph v:horizAlign="1"/><v:tabList/>1</text>		</g>
		<g id="shape186-425" v:mID="186" v:groupContext="shape" v:layerMember="0" transform="translate(104.625,-189.75)">
			<title>Dynamic connector.1201</title>
			<path d="M0 327 L0 445.13 L-37.88 445.13" class="st44"/>
		</g>
		<g id="shape187-428" v:mID="187" v:groupContext="shape" v:layerMember="0" transform="translate(67.3152,-194.415)">
			<title>Dynamic connector.1202</title>
			<path d="M0 331.66 L37.31 331.66 L37.31 340.34" class="st44"/>
		</g>
		<g id="shape188-431" v:mID="188" v:groupContext="shape" transform="translate(104.625,-129.562)">
			<title>Sheet.188</title>
			<path d="M0 327 L28.71 327" class="st47"/>
		</g>
		<g id="shape189-437" v:mID="189" v:groupContext="shape" transform="translate(231.375,-129.563)">
			<title>Sheet.189</title>
			<path d="M0 327 L28.71 327" class="st47"/>
		</g>
		<g id="shape190-442" v:mID="190" v:groupContext="shape" transform="translate(359.062,-129.563)">
			<title>Sheet.190</title>
			<path d="M0 327 L4.9 327" class="st47"/>
		</g>
		<g id="shape191-447" v:mID="191" v:groupContext="shape" transform="translate(468.84,-98.6252)">
			<title>Sheet.191</title>
			<path d="M0 327 L42.39 327" class="st47"/>
		</g>
		<g id="shape192-452" v:mID="192" v:groupContext="shape" v:layerMember="0" transform="translate(600.964,-183)">
			<title>Dynamic connector.1207</title>
			<path d="M0 327 L0 408 L-30.12 408" class="st44"/>
		</g>
		<g id="shape193-455" v:mID="193" v:groupContext="shape" v:layerMember="0" transform="translate(566.888,-187.485)">
			<title>Dynamic connector.1208</title>
			<path d="M0 331.51 L33.71 331.51 L33.71 340.49" class="st44"/>
		</g>
		<g id="shape194-458" v:mID="194" v:groupContext="shape" transform="translate(600.6,-129.563)">
			<title>Sheet.194</title>
			<path d="M0 327 L28.71 327" class="st47"/>
		</g>
		<g id="shape195-463" v:mID="195" v:groupContext="shape" transform="translate(727.091,-129.563)">
			<title>Sheet.195</title>
			<path d="M0 327 L12.62 327" class="st47"/>
		</g>
		<g id="shape196-468" v:mID="196" v:groupContext="shape" transform="translate(236.55,-141.15)">
			<title>Circle.1211</title>
			<desc>2</desc>
			<v:userDefs>
				<v:ud v:nameU="visVersion" v:val="VT0(15):26"/>
			</v:userDefs>
			<v:textBlock v:margins="rect(4,4,4,4)"/>
			<v:textRect cx="12.6" cy="314.4" width="22.05" height="18.9"/>
			<path d="M0 314.4 A12.6 12.6 0 0 1 25.2 314.4 A12.6 12.6 0 1 1 0 314.4 Z" class="st45"/>
			<text x="9.21" y="317.7" class="st46" v:langID="1033"><v:paragraph v:horizAlign="1"/><v:tabList/>2</text>		</g>
		<g id="shape197-471" v:mID="197" v:groupContext="shape" transform="translate(360.75,-141.15)">
			<title>Circle.1212</title>
			<desc>3</desc>
			<v:userDefs>
				<v:ud v:nameU="visVersion" v:val="VT0(15):26"/>
			</v:userDefs>
			<v:textBlock v:margins="rect(4,4,4,4)"/>
			<v:textRect cx="12.6" cy="314.4" width="22.05" height="18.9"/>
			<path d="M0 314.4 A12.6 12.6 0 0 1 25.2 314.4 A12.6 12.6 0 1 1 0 314.4 Z" class="st45"/>
			<text x="9.21" y="317.7" class="st46" v:langID="1033"><v:paragraph v:horizAlign="1"/><v:tabList/>3</text>		</g>
		<g id="shape198-474" v:mID="198" v:groupContext="shape" transform="translate(451.162,-108.75)">
			<title>Circle.1213</title>
			<desc>4</desc>
			<v:userDefs>
				<v:ud v:nameU="visVersion" v:val="VT0(15):26"/>
			</v:userDefs>
			<v:textBlock v:margins="rect(4,4,4,4)"/>
			<v:textRect cx="12.6" cy="314.4" width="22.05" height="18.9"/>
			<path d="M0 314.4 A12.6 12.6 0 0 1 25.2 314.4 A12.6 12.6 0 1 1 0 314.4 Z" class="st45"/>
			<text x="9.21" y="317.7" class="st46" v:langID="2052"><v:paragraph v:horizAlign="1"/><v:tabList/>4</text>		</g>
		<g id="shape199-477" v:mID="199" v:groupContext="shape" transform="translate(563.25,-190.05)">
			<title>Circle.1214</title>
			<desc>5</desc>
			<v:userDefs>
				<v:ud v:nameU="visVersion" v:val="VT0(15):26"/>
			</v:userDefs>
			<v:textBlock v:margins="rect(4,4,4,4)"/>
			<v:textRect cx="12.6" cy="314.4" width="22.05" height="18.9"/>
			<path d="M0 314.4 A12.6 12.6 0 0 1 25.2 314.4 A12.6 12.6 0 1 1 0 314.4 Z" class="st45"/>
			<text x="9.21" y="317.7" class="st46" v:langID="2052"><v:paragraph v:horizAlign="1"/><v:tabList/>5</text>		</g>
		<g id="shape200-480" v:mID="200" v:groupContext="shape" transform="translate(558.75,-108.75)">
			<title>Circle.1215</title>
			<desc>6</desc>
			<v:userDefs>
				<v:ud v:nameU="visVersion" v:val="VT0(15):26"/>
			</v:userDefs>
			<v:textBlock v:margins="rect(4,4,4,4)"/>
			<v:textRect cx="12.6" cy="314.4" width="22.05" height="18.9"/>
			<path d="M0 314.4 A12.6 12.6 0 0 1 25.2 314.4 A12.6 12.6 0 1 1 0 314.4 Z" class="st45"/>
			<text x="9.21" y="317.7" class="st46" v:langID="2052"><v:paragraph v:horizAlign="1"/><v:tabList/>6</text>		</g>
		<g id="shape201-483" v:mID="201" v:groupContext="shape" transform="translate(624.9,-230.25)">
			<title>Circle.1216</title>
			<desc>7</desc>
			<v:userDefs>
				<v:ud v:nameU="visVersion" v:val="VT0(15):26"/>
			</v:userDefs>
			<v:textBlock v:margins="rect(4,4,4,4)"/>
			<v:textRect cx="12.6" cy="314.4" width="22.05" height="18.9"/>
			<path d="M0 314.4 A12.6 12.6 0 0 1 25.2 314.4 A12.6 12.6 0 1 1 0 314.4 Z" class="st45"/>
			<text x="9.21" y="317.7" class="st46" v:langID="2052"><v:paragraph v:horizAlign="1"/><v:tabList/>7</text>		</g>
		<g id="shape202-486" v:mID="202" v:groupContext="shape" transform="translate(444,-215.75)">
			<title>Sheet.202</title>
			<desc>Real Time</desc>
			<v:textBlock v:margins="rect(4,4,4,4)"/>
			<v:textRect cx="26.5312" cy="317" width="53.07" height="20"/>
			<rect x="0" y="307" width="53.0623" height="20" class="st21"/>
			<text x="5.48" y="319.7" class="st48" v:langID="2052"><v:paragraph v:horizAlign="1"/><v:tabList/>Real Time  </text>		</g>
		<g id="shape203-489" v:mID="203" v:groupContext="shape" transform="translate(425.655,-10.65)">
			<title>Sheet.203</title>
			<desc>Batch</desc>
			<v:textBlock v:margins="rect(4,4,4,4)"/>
			<v:textRect cx="35.22" cy="317" width="70.44" height="20"/>
			<rect x="0" y="307" width="70.44" height="20" class="st21"/>
			<text x="23.21" y="319.7" class="st48" v:langID="2052"><v:paragraph v:horizAlign="1"/><v:tabList/>Batch</text>		</g>
		<g id="shape205-492" v:mID="205" v:groupContext="shape" transform="translate(735.15,-231.15)">
			<title>Circle.205</title>
			<desc>8</desc>
			<v:userDefs>
				<v:ud v:nameU="visVersion" v:val="VT0(15):26"/>
			</v:userDefs>
			<v:textBlock v:margins="rect(4,4,4,4)"/>
			<v:textRect cx="12.6" cy="314.4" width="22.05" height="18.9"/>
			<path d="M0 314.4 A12.6 12.6 0 0 1 25.2 314.4 A12.6 12.6 0 1 1 0 314.4 Z" class="st45"/>
			<text x="9.21" y="317.7" class="st46" v:langID="2052"><v:paragraph v:horizAlign="1"/><v:tabList/>8</text>		</g>
		<g id="group206-495" transform="translate(297.75,-48.881)" v:mID="206" v:groupContext="group">
			<title>Icon-databases-130.206</title>
			<g id="shape207-496" v:mID="207" v:groupContext="shape">
				<title>Sheet.207</title>
				<path d="M18 292.29 C8.06 292.29 0 289.48 0 285.78 L0 320.49 C0 324.05 7.92 326.94 17.75 327 L18 327 C27.94 327 36
							 324.19 36 320.49 L36 285.78 C36 289.4 27.94 292.29 18 292.29 Z" class="st11"/>
			</g>
			<g id="shape208-499" v:mID="208" v:groupContext="shape" transform="translate(0,-34.7083)">
				<title>Sheet.208</title>
				<path d="M36 320.49 C36 324.11 27.94 327 18 327 C8.06 327 0 324.19 0 320.49 C0 316.78 8.06 313.97 18 313.97 C27.94
							 313.97 36 316.78 36 320.49 Z" class="st12"/>
			</g>
			<g id="shape209-501" v:mID="209" v:groupContext="shape" transform="translate(4.18409,-37.6006)">
				<title>Sheet.209</title>
				<path d="M27.63 322.84 C27.63 325.15 21.43 327 13.82 327 C6.21 327 0 325.15 0 322.84 C0 320.54 6.21 318.72 13.82
							 318.72 C21.43 318.72 27.63 320.57 27.63 322.84 Z" class="st9"/>
			</g>
			<g id="shape210-503" v:mID="210" v:groupContext="shape" transform="translate(7.07644,-37.6006)">
				<title>Sheet.210</title>
				<path d="M10.92 323.88 A32.4337 32.4337 -180 0 0 -0 325.48 A32.0686 32.0686 -180 0 0 10.92 327 A31.3105 31.3105 -180
							 0 0 21.85 325.37 A33.248 33.248 -180 0 0 10.92 323.88 Z" class="st13"/>
			</g>
			<g id="shape211-505" v:mID="211" v:groupContext="shape" transform="translate(4.49298,-12.131)">
				<title>Sheet.211</title>
				<path d="M24.46 322 L24.46 312.45 L21.93 312.45 L21.93 324.05 L28.84 324.05 L28.84 322 L24.46 322 ZM4.41 317.31 A5.13885
							 5.13885 0 0 1 2.98 316.44 A1.23557 1.23557 0 0 1 2.64 315.54 a0.954758 0.954758 0 0 1 0.421217 -0.842434
							 A1.90952 1.90952 0 0 1 4.24 314.36 A4.54914 4.54914 0 0 1 7.05 315.18 L7.05 312.76 A7.24493 7.24493
							 -180 0 0 4.24 312.31 A4.6053 4.6053 -180 0 0 1.18 313.27 A3.03276 3.03276 -180 0 0 0 315.77 C0 317.2
							 0.9 318.32 2.81 319.17 A8.08736 8.08736 0 0 1 4.55 320.18 A1.17941 1.17941 0 0 1 4.97 321.07 A1.06708
							 1.06708 0 0 1 4.52 321.95 A2.27457 2.27457 0 0 1 3.26 322.25 A4.66147 4.66147 0 0 1 0.2 321.07 L0.2
							 323.69 A6.0936 6.0936 -180 0 0 3.2 324.36 A5.27925 5.27925 -180 0 0 6.51 323.43 A3.03276 3.03276 -180
							 0 0 7.44 320.88 A2.94852 2.94852 -180 0 0 6.74 318.91 A6.79563 6.79563 -180 0 0 4.41 317.31 ZM19.12
							 321.78 A6.57098 6.57098 -180 0 0 20.05 318.24 A6.51482 6.51482 -180 0 0 19.12 315.26 A5.08268 5.08268
							 -180 0 0 17.16 313.16 A5.61622 5.61622 -180 0 0 14.35 312.43 A5.92512 5.92512 -180 0 0 11.32 313.18
							 A5.22309 5.22309 -180 0 0 9.27 315.26 A6.90796 6.90796 -180 0 0 8.54 318.46 A6.34633 6.34633 -180 0
							 0 9.21 321.27 A4.94228 4.94228 -180 0 0 11.15 323.35 A5.78471 5.78471 -180 0 0 13.96 324.19 L16.37 327
							 L19.77 327 L16.32 323.91 A5.02652 5.02652 -180 0 0 19.12 321.78 ZM16.32 321.07 A2.63963 2.63963 0 0
							 1 14.18 322.06 A2.58346 2.58346 0 0 1 12.05 321.05 A4.26833 4.26833 0 0 1 11.23 318.24 A4.29641 4.29641
							 0 0 1 12.05 315.43 A2.80811 2.80811 0 0 1 14.24 314.39 A2.44306 2.44306 0 0 1 16.34 315.43 A4.54914
							 4.54914 0 0 1 17.1 318.24 A4.09984 4.09984 0 0 1 16.32 321.07 Z" class="st14"/>
			</g>
		</g>
	</g>
</svg>
